<svg width="854" height="512" viewBox="0 0 854 512" fill="none" xmlns="http://www.w3.org/2000/svg">
<g clip-path="url(#clip0_47_228)">
<g opacity="0.1">
<g filter="url(#filter0_f_47_228)">
<path d="M756 68.3128C756 134.311 909.673 174.5 807.5 174.5C705.327 174.5 589 185.498 589 119.5C589 53.502 671.827 0 774 0C876.173 0 756 2.31475 756 68.3128Z" fill="#FFB0CC"/>
</g>
<g filter="url(#filter1_f_47_228)">
<path d="M1058 271.626C1058 337.624 1211.67 377.813 1109.5 377.813C850.5 486.313 802.5 319.311 802.5 253.313C802.5 187.315 973.827 203.313 1076 203.313C1178.17 203.313 1058 205.628 1058 271.626Z" fill="#DFAAFF"/>
</g>
<g filter="url(#filter2_f_47_228)">
<path d="M921.91 360.595C921.91 426.593 1053.58 485.095 951.41 485.095C692.41 593.595 644.41 426.593 644.41 360.595C644.41 294.597 542.237 303.389 644.41 303.389C746.583 303.389 921.91 294.597 921.91 360.595Z" fill="#96FDEB"/>
</g>
<g filter="url(#filter3_f_47_228)">
<path d="M924.5 196.687C924.5 262.685 841.673 316.187 739.5 316.187C637.327 316.187 521 327.185 521 261.187C521 195.189 603.827 141.687 706 141.687C808.173 141.687 924.5 130.689 924.5 196.687Z" fill="#FFF7B0"/>
</g>
</g>
<g opacity="0.1">
<g filter="url(#filter4_f_47_228)">
<path d="M38 -7.68723C38 58.3108 191.673 98.5 89.5 98.5C-12.6727 98.5 -129 109.498 -129 43.5C-129 -22.498 -46.1727 -76 56 -76C158.173 -76 38 -73.6852 38 -7.68723Z" fill="#FFB0CC"/>
</g>
<g filter="url(#filter5_f_47_228)">
<path d="M340 195.626C340 261.624 493.673 301.813 391.5 301.813C132.5 410.313 84.5 243.311 84.5 177.313C84.5 111.315 255.827 127.313 358 127.313C460.173 127.313 340 129.628 340 195.626Z" fill="#B1AAFF"/>
</g>
<g filter="url(#filter6_f_47_228)">
<path d="M203.91 284.595C203.91 350.593 335.583 409.095 233.41 409.095C-25.5901 517.595 -73.5899 350.593 -73.5899 284.595C-73.5899 218.597 -175.763 227.389 -73.5899 227.389C28.5828 227.389 203.91 218.597 203.91 284.595Z" fill="white"/>
</g>
<g filter="url(#filter7_f_47_228)">
<path d="M206.5 120.687C206.5 186.685 123.673 240.187 21.5 240.187C-80.6727 240.187 -197 251.185 -197 185.187C-197 119.189 -114.173 65.6872 -12 65.6872C90.1727 65.6872 206.5 54.6892 206.5 120.687Z" fill="#D3B0FF"/>
</g>
</g>
<path d="M325.042 305.219L275.458 256L435.875 95.5833H534.677L325.042 305.219ZM435.875 416.417L349.469 330.01L435.875 243.604H534.677L448.271 330.01L534.677 416.417H435.875Z" fill="#FFFDD5"/>
</g>
<defs>
<filter id="filter0_f_47_228" x="446.9" y="-142.1" width="537.757" height="459.387" filterUnits="userSpaceOnUse" color-interpolation-filters="sRGB">
<feFlood flood-opacity="0" result="BackgroundImageFix"/>
<feBlend mode="normal" in="SourceGraphic" in2="BackgroundImageFix" result="shape"/>
<feGaussianBlur stdDeviation="71.05" result="effect1_foregroundBlur_47_228"/>
</filter>
<filter id="filter1_f_47_228" x="660.4" y="59.5072" width="626.257" height="496.141" filterUnits="userSpaceOnUse" color-interpolation-filters="sRGB">
<feFlood flood-opacity="0" result="BackgroundImageFix"/>
<feBlend mode="normal" in="SourceGraphic" in2="BackgroundImageFix" result="shape"/>
<feGaussianBlur stdDeviation="71.05" result="effect1_foregroundBlur_47_228"/>
</filter>
<filter id="filter2_f_47_228" x="456.9" y="160.9" width="675.459" height="502.03" filterUnits="userSpaceOnUse" color-interpolation-filters="sRGB">
<feFlood flood-opacity="0" result="BackgroundImageFix"/>
<feBlend mode="normal" in="SourceGraphic" in2="BackgroundImageFix" result="shape"/>
<feGaussianBlur stdDeviation="71.05" result="effect1_foregroundBlur_47_228"/>
</filter>
<filter id="filter3_f_47_228" x="378.9" y="-1.10001" width="687.7" height="460.074" filterUnits="userSpaceOnUse" color-interpolation-filters="sRGB">
<feFlood flood-opacity="0" result="BackgroundImageFix"/>
<feBlend mode="normal" in="SourceGraphic" in2="BackgroundImageFix" result="shape"/>
<feGaussianBlur stdDeviation="71.05" result="effect1_foregroundBlur_47_228"/>
</filter>
<filter id="filter4_f_47_228" x="-271.1" y="-218.1" width="537.757" height="459.387" filterUnits="userSpaceOnUse" color-interpolation-filters="sRGB">
<feFlood flood-opacity="0" result="BackgroundImageFix"/>
<feBlend mode="normal" in="SourceGraphic" in2="BackgroundImageFix" result="shape"/>
<feGaussianBlur stdDeviation="71.05" result="effect1_foregroundBlur_47_228"/>
</filter>
<filter id="filter5_f_47_228" x="-57.6" y="-16.4928" width="626.257" height="496.141" filterUnits="userSpaceOnUse" color-interpolation-filters="sRGB">
<feFlood flood-opacity="0" result="BackgroundImageFix"/>
<feBlend mode="normal" in="SourceGraphic" in2="BackgroundImageFix" result="shape"/>
<feGaussianBlur stdDeviation="71.05" result="effect1_foregroundBlur_47_228"/>
</filter>
<filter id="filter6_f_47_228" x="-261.1" y="84.9" width="675.459" height="502.03" filterUnits="userSpaceOnUse" color-interpolation-filters="sRGB">
<feFlood flood-opacity="0" result="BackgroundImageFix"/>
<feBlend mode="normal" in="SourceGraphic" in2="BackgroundImageFix" result="shape"/>
<feGaussianBlur stdDeviation="71.05" result="effect1_foregroundBlur_47_228"/>
</filter>
<filter id="filter7_f_47_228" x="-339.1" y="-77.1" width="687.7" height="460.074" filterUnits="userSpaceOnUse" color-interpolation-filters="sRGB">
<feFlood flood-opacity="0" result="BackgroundImageFix"/>
<feBlend mode="normal" in="SourceGraphic" in2="BackgroundImageFix" result="shape"/>
<feGaussianBlur stdDeviation="71.05" result="effect1_foregroundBlur_47_228"/>
</filter>
<clipPath id="clip0_47_228">
<rect width="854" height="512" fill="white"/>
</clipPath>
</defs>
</svg>
