<svg width="854" height="512" viewBox="0 0 854 512" fill="none" xmlns="http://www.w3.org/2000/svg">
<g clip-path="url(#clip0_42_191)">
<g opacity="0.1">
<g filter="url(#filter0_f_42_191)">
<path d="M415 88.3128C415 154.311 568.673 194.5 466.5 194.5C364.327 194.5 248 205.498 248 139.5C248 73.502 330.827 20 433 20C535.173 20 415 22.3148 415 88.3128Z" fill="#FFB0CC"/>
</g>
<g filter="url(#filter1_f_42_191)">
<path d="M717 291.626C717 357.624 870.673 397.813 768.5 397.813C509.5 506.313 461.5 339.311 461.5 273.313C461.5 207.315 632.827 223.313 735 223.313C837.173 223.313 717 225.628 717 291.626Z" fill="#FFAAAA"/>
</g>
<g filter="url(#filter2_f_42_191)">
<path d="M580.91 380.595C580.91 446.593 712.583 505.095 610.41 505.095C351.41 613.595 303.41 446.593 303.41 380.595C303.41 314.597 201.237 323.389 303.41 323.389C405.583 323.389 580.91 314.597 580.91 380.595Z" fill="white"/>
</g>
<g filter="url(#filter3_f_42_191)">
<path d="M583.5 216.687C583.5 282.685 500.673 336.187 398.5 336.187C296.327 336.187 180 347.185 180 281.187C180 215.189 262.827 161.687 365 161.687C467.173 161.687 583.5 150.689 583.5 216.687Z" fill="#FFF7B0"/>
</g>
</g>
<path d="M459.521 256.058C459.521 264.704 456.087 272.996 449.975 279.111C443.863 285.226 435.573 288.663 426.927 288.667C418.279 288.667 409.985 285.231 403.87 279.116C397.754 273.001 394.319 264.707 394.319 256.058C394.319 247.413 397.752 239.121 403.864 233.006C409.976 226.891 418.267 223.454 426.913 223.45C435.561 223.45 443.855 226.885 449.97 233.001C456.085 239.116 459.521 247.41 459.521 256.058ZM498.137 100.162C478.508 100.162 452.827 114.162 426.854 138.4C400.896 114.294 375.2 100.454 355.585 100.454C349.606 100.454 344.167 101.81 339.456 104.508C319.404 116.073 314.913 152.108 325.267 197.331C280.875 211.04 252 232.958 252 256.058C252 279.246 281.021 301.223 325.544 314.829C315.277 360.227 319.856 396.321 339.952 407.871C344.619 410.598 350.015 411.881 356.023 411.881C375.637 411.881 401.333 397.881 427.306 373.615C453.265 397.735 478.96 411.575 498.575 411.575C504.554 411.575 509.994 410.262 514.704 407.565C534.742 396.015 539.248 359.979 528.894 314.742C573.125 301.15 602 279.187 602 256.058C602 232.871 572.979 210.894 528.456 197.258C538.723 151.904 534.144 115.781 514.048 104.217C509.189 101.487 503.71 100.088 498.137 100.162ZM498.065 116.058V116.146C501.346 116.146 503.985 116.787 506.202 117.998C515.915 123.569 520.129 144.758 516.848 172.015C516.06 178.723 514.777 185.796 513.202 193.015C498.29 189.407 483.152 186.806 467.892 185.227C458.8 172.688 448.886 160.767 438.215 149.542C461.431 127.958 483.233 116.117 498.079 116.073L498.065 116.058ZM355.585 116.35C370.344 116.35 392.248 128.133 415.523 149.6C405.519 160.1 395.544 172.015 386.065 185.212C370.77 186.784 355.602 189.406 340.667 193.058C339.101 186.219 337.864 179.308 336.963 172.35C333.608 145.108 337.75 123.933 347.375 118.29C350.146 116.977 353.208 116.423 355.585 116.35ZM426.781 160.829C433.431 167.674 440.042 175.276 446.615 183.637C440.198 183.346 433.635 183.142 427 183.142C420.282 183.132 413.671 183.297 407.167 183.637C413.583 175.296 420.219 167.669 426.781 160.829ZM427 199.125C437.792 199.125 448.54 199.621 459.112 200.481C465.043 208.978 470.794 218.02 476.365 227.606C481.78 236.949 486.728 246.409 491.21 255.985C486.719 265.537 481.79 275.09 476.438 284.423C470.896 294.048 465.165 303.206 459.229 311.694C437.824 313.57 416.297 313.594 394.888 311.767C388.77 302.964 383.014 293.914 377.635 284.642C372.22 275.299 367.272 265.839 362.79 256.262C367.293 246.552 372.222 237.044 377.562 227.767C383.104 218.142 388.835 209.012 394.771 200.525C405.488 199.573 416.241 199.096 427 199.096V199.125ZM373.99 202.829C370.49 208.327 366.99 213.956 363.723 219.746C360.456 225.433 357.369 231.14 354.462 236.867C350.598 227.3 347.317 217.762 344.604 208.473C353.937 206.285 363.781 204.331 373.99 202.829ZM479.865 202.829C490.015 204.317 499.766 206.198 509.119 208.473C506.494 217.69 503.213 227.169 499.494 236.662C493.542 225.055 486.995 213.762 479.879 202.829H479.865ZM524.533 212.673C531.601 214.87 538.285 217.291 544.585 219.935C569.844 230.727 586.177 244.844 586.177 256.044C586.104 267.244 569.771 281.419 544.513 292.137C538.388 294.762 531.679 297.125 524.752 299.327C520.37 284.503 515.011 269.985 508.71 255.869C515.273 241.037 520.523 226.556 524.533 212.644V212.673ZM329.19 212.731C333.244 226.731 338.596 241.271 345.231 256.19C338.968 270.218 333.677 284.661 329.394 299.415C322.335 297.227 315.627 294.777 309.415 292.123C284.156 281.375 267.823 267.244 267.823 256.044C267.823 244.844 284.156 230.64 309.415 219.935C315.54 217.31 322.248 214.948 329.19 212.731ZM499.494 275.148C503.358 284.729 506.64 294.281 509.352 303.556C500.019 305.846 490.16 307.785 479.952 309.244C487.056 298.224 493.569 286.844 499.494 275.148ZM354.462 275.44C357.379 281.156 360.442 286.858 363.796 292.575C367.15 298.272 370.577 303.828 374.077 309.244C364.244 307.821 354.482 305.943 344.823 303.615C347.448 294.427 350.744 284.919 354.448 275.425L354.462 275.44ZM513.333 319C514.967 326.19 516.25 333.117 517.037 339.752C520.392 366.994 516.25 388.169 506.625 393.827C504.481 395.14 501.696 395.694 498.415 395.694C483.656 395.694 461.752 383.925 438.477 362.444C448.481 351.944 458.456 340.044 467.935 326.86C484.079 325.14 499.348 322.5 513.333 319ZM340.813 319.146C354.812 322.558 370.067 325.198 386.123 326.904C395.748 340.102 405.738 352.09 415.8 362.575C392.54 384.202 370.708 396.044 355.863 396.044C353.059 396.057 350.293 395.397 347.798 394.119C338.085 388.577 333.871 367.373 337.152 340.117C337.94 333.408 339.238 326.35 340.813 319.146ZM407.312 328.479C413.739 328.79 420.277 328.956 426.927 328.975C433.645 328.985 440.256 328.819 446.76 328.479C440.344 336.821 433.708 344.448 427.146 351.302C420.496 344.438 413.885 336.831 407.312 328.479Z" fill="#FFDEDE"/>
<g opacity="0.1">
<g filter="url(#filter4_f_42_191)">
<path d="M-27 -191.687C-27 -125.689 126.673 -85.5 24.5 -85.5C-77.6727 -85.5 -194 -74.502 -194 -140.5C-194 -206.498 -111.173 -260 -9 -260C93.1727 -260 -27 -257.685 -27 -191.687Z" fill="#FFB0CC"/>
</g>
<g filter="url(#filter5_f_42_191)">
<path d="M275 11.6255C275 77.6236 428.673 117.813 326.5 117.813C67.4999 226.313 19.5 59.3108 19.5 -6.68723C19.5 -72.6853 190.827 -56.6872 293 -56.6872C395.173 -56.6872 275 -54.3725 275 11.6255Z" fill="#B1AAFF"/>
</g>
<g filter="url(#filter6_f_42_191)">
<path d="M138.91 100.595C138.91 166.593 270.583 225.095 168.41 225.095C-90.5901 333.595 -138.59 166.593 -138.59 100.595C-138.59 34.5967 -240.763 43.3892 -138.59 43.3892C-36.4172 43.3892 138.91 34.5967 138.91 100.595Z" fill="white"/>
</g>
<g filter="url(#filter7_f_42_191)">
<path d="M141.5 -63.3128C141.5 2.68526 58.6727 56.1872 -43.5 56.1872C-145.673 56.1872 -262 67.1852 -262 1.18723C-262 -64.8108 -179.173 -118.313 -77 -118.313C25.1727 -118.313 141.5 -129.311 141.5 -63.3128Z" fill="#D3B0FF"/>
</g>
</g>
</g>
<defs>
<filter id="filter0_f_42_191" x="105.9" y="-122.1" width="537.757" height="459.387" filterUnits="userSpaceOnUse" color-interpolation-filters="sRGB">
<feFlood flood-opacity="0" result="BackgroundImageFix"/>
<feBlend mode="normal" in="SourceGraphic" in2="BackgroundImageFix" result="shape"/>
<feGaussianBlur stdDeviation="71.05" result="effect1_foregroundBlur_42_191"/>
</filter>
<filter id="filter1_f_42_191" x="319.4" y="79.5072" width="626.257" height="496.141" filterUnits="userSpaceOnUse" color-interpolation-filters="sRGB">
<feFlood flood-opacity="0" result="BackgroundImageFix"/>
<feBlend mode="normal" in="SourceGraphic" in2="BackgroundImageFix" result="shape"/>
<feGaussianBlur stdDeviation="71.05" result="effect1_foregroundBlur_42_191"/>
</filter>
<filter id="filter2_f_42_191" x="115.9" y="180.9" width="675.459" height="502.03" filterUnits="userSpaceOnUse" color-interpolation-filters="sRGB">
<feFlood flood-opacity="0" result="BackgroundImageFix"/>
<feBlend mode="normal" in="SourceGraphic" in2="BackgroundImageFix" result="shape"/>
<feGaussianBlur stdDeviation="71.05" result="effect1_foregroundBlur_42_191"/>
</filter>
<filter id="filter3_f_42_191" x="37.9" y="18.9" width="687.7" height="460.074" filterUnits="userSpaceOnUse" color-interpolation-filters="sRGB">
<feFlood flood-opacity="0" result="BackgroundImageFix"/>
<feBlend mode="normal" in="SourceGraphic" in2="BackgroundImageFix" result="shape"/>
<feGaussianBlur stdDeviation="71.05" result="effect1_foregroundBlur_42_191"/>
</filter>
<filter id="filter4_f_42_191" x="-336.1" y="-402.1" width="537.757" height="459.387" filterUnits="userSpaceOnUse" color-interpolation-filters="sRGB">
<feFlood flood-opacity="0" result="BackgroundImageFix"/>
<feBlend mode="normal" in="SourceGraphic" in2="BackgroundImageFix" result="shape"/>
<feGaussianBlur stdDeviation="71.05" result="effect1_foregroundBlur_42_191"/>
</filter>
<filter id="filter5_f_42_191" x="-122.6" y="-200.493" width="626.257" height="496.141" filterUnits="userSpaceOnUse" color-interpolation-filters="sRGB">
<feFlood flood-opacity="0" result="BackgroundImageFix"/>
<feBlend mode="normal" in="SourceGraphic" in2="BackgroundImageFix" result="shape"/>
<feGaussianBlur stdDeviation="71.05" result="effect1_foregroundBlur_42_191"/>
</filter>
<filter id="filter6_f_42_191" x="-326.1" y="-99.1" width="675.459" height="502.03" filterUnits="userSpaceOnUse" color-interpolation-filters="sRGB">
<feFlood flood-opacity="0" result="BackgroundImageFix"/>
<feBlend mode="normal" in="SourceGraphic" in2="BackgroundImageFix" result="shape"/>
<feGaussianBlur stdDeviation="71.05" result="effect1_foregroundBlur_42_191"/>
</filter>
<filter id="filter7_f_42_191" x="-404.1" y="-261.1" width="687.7" height="460.074" filterUnits="userSpaceOnUse" color-interpolation-filters="sRGB">
<feFlood flood-opacity="0" result="BackgroundImageFix"/>
<feBlend mode="normal" in="SourceGraphic" in2="BackgroundImageFix" result="shape"/>
<feGaussianBlur stdDeviation="71.05" result="effect1_foregroundBlur_42_191"/>
</filter>
<clipPath id="clip0_42_191">
<rect width="854" height="512" fill="white"/>
</clipPath>
</defs>
</svg>
