<svg width="534" height="792" viewBox="0 0 534 792" fill="none" xmlns="http://www.w3.org/2000/svg">
<g clip-path="url(#clip0_50_487)">
<g opacity="0.05">
<g filter="url(#filter0_f_50_487)">
<path d="M171 651.313C171 717.311 324.673 757.5 222.5 757.5C120.327 757.5 4 768.498 4 702.5C4 636.502 86.8273 583 189 583C291.173 583 171 585.315 171 651.313Z" fill="#FFB0CC"/>
</g>
<g filter="url(#filter1_f_50_487)">
<path d="M473 854.626C473 920.624 626.673 960.813 524.5 960.813C265.5 1069.31 217.5 902.311 217.5 836.313C217.5 770.315 388.827 786.313 491 786.313C593.173 786.313 473 788.628 473 854.626Z" fill="#B6B0FF"/>
</g>
<g filter="url(#filter2_f_50_487)">
<path d="M430.5 657.018C430.5 723.016 562.172 781.518 460 781.518C201 890.018 153 723.016 153 657.018C153 591.02 50.8272 599.813 153 599.813C255.173 599.813 430.5 591.02 430.5 657.018Z" fill="#B0FFC1"/>
</g>
<g filter="url(#filter3_f_50_487)">
<path d="M486 739.813C486 805.811 403.173 859.313 301 859.313C198.827 859.313 82.5 870.311 82.5 804.313C82.5 738.315 165.327 684.813 267.5 684.813C369.673 684.813 486 673.815 486 739.813Z" fill="#B0FFF6"/>
</g>
</g>
<g opacity="0.05">
<g filter="url(#filter4_f_50_487)">
<path d="M486 90.3128C486 156.311 639.673 196.5 537.5 196.5C435.327 196.5 319 207.498 319 141.5C319 75.502 401.827 22 504 22C606.173 22 486 24.3148 486 90.3128Z" fill="#FFB0CC"/>
</g>
<g filter="url(#filter5_f_50_487)">
<path d="M788 293.625C788 359.624 941.673 399.813 839.5 399.813C580.5 508.313 532.5 341.311 532.5 275.313C532.5 209.315 703.827 225.313 806 225.313C908.173 225.313 788 227.627 788 293.625Z" fill="white"/>
</g>
<g filter="url(#filter6_f_50_487)">
<path d="M651.91 382.595C651.91 448.593 783.583 507.095 681.41 507.095C422.41 615.595 374.41 448.593 374.41 382.595C374.41 316.597 272.237 325.389 374.41 325.389C476.583 325.389 651.91 316.597 651.91 382.595Z" fill="white"/>
</g>
<g filter="url(#filter7_f_50_487)">
<path d="M654.5 218.687C654.5 284.685 571.673 338.187 469.5 338.187C367.327 338.187 251 349.185 251 283.187C251 217.189 333.827 163.687 436 163.687C538.173 163.687 654.5 152.689 654.5 218.687Z" fill="#FFF2B0"/>
</g>
</g>
<path opacity="0.2" d="M64.074 186L52.608 142.194L41.142 186H22.424L4.588 115.636H22.718L32.224 157.58L43.396 115.636H62.114L72.894 157.776L82.498 115.636H100.628L82.694 186H64.074ZM126.616 186H108.094V115.636H126.616V141.802H152.586V115.636H171.108V186H152.586V157.874H126.616V186ZM230.712 186L226.4 172.966H201.704L197.294 186H178.576L204.644 115.636H224.93L250.704 186H230.712ZM214.248 136.02L206.702 158.364H221.598L214.248 136.02ZM287.011 186H268.489V132.394H246.929V115.636H308.571V132.394H287.011V186ZM337.061 127.494C337.061 139.548 325.595 147.584 313.737 145.526V137.392C319.911 138.47 324.615 136.706 326.183 132.002C325.399 132.198 324.615 132.296 323.929 132.296C319.029 132.296 315.403 128.572 315.403 123.966C315.403 118.674 319.421 114.95 325.693 114.95C332.357 114.95 337.061 119.458 337.061 127.494ZM401.597 162.97C401.597 177.474 390.033 186.98 371.707 186.98C353.381 186.98 341.621 177.278 340.347 161.696H359.065C359.261 168.36 363.671 172.574 371.315 172.574C377.685 172.574 381.899 170.124 381.899 165.714C381.899 162.676 378.861 160.422 374.745 159.638L361.907 157.188C350.637 155.032 343.189 148.466 343.189 137.098C343.189 123.966 354.753 114.754 370.531 114.754C387.289 114.754 399.343 124.358 400.421 139.548H381.703C381.213 133.178 376.901 129.062 370.727 129.062C365.239 129.062 361.907 132.002 361.907 135.824C361.907 138.96 365.043 140.822 368.767 141.508L382.389 144.154C394.933 146.604 401.597 152.778 401.597 162.97ZM450.093 186H431.571V115.636H450.093V186ZM508.805 186L480.777 142.096V186H463.823V115.636H483.717L509.687 156.306V115.636H526.641V186H508.805ZM29.382 263H10.86V192.636H29.382V218.802H55.352V192.636H73.874V263H55.352V234.874H29.382V263ZM137.398 246.928V263H87.6139V192.636H136.712V208.708H106.136V218.802H133.87V234.874H106.136V246.928H137.398ZM166.525 263H148.003V192.636H176.815C195.827 192.636 206.705 201.162 206.705 216.156C206.705 225.172 201.315 232.62 191.809 236.638L209.057 263H187.007L172.601 239.578H166.525V263ZM166.525 207.924V224.29H176.031C184.263 224.29 188.085 221.742 188.085 216.156C188.085 210.57 184.263 207.924 176.031 207.924H166.525ZM267.171 246.928V263H217.387V192.636H266.485V208.708H235.909V218.802H263.643V234.874H235.909V246.928H267.171ZM288.36 213.706H272.68C273.268 200.574 284.244 191.656 298.846 191.656C313.35 191.656 323.542 199.594 323.542 211.06C323.542 216.156 320.308 221.056 314.722 225.466L307.078 231.444C302.668 234.972 302.178 237.226 303.158 240.068H292.476C289.046 234.286 288.066 229.386 293.848 224.584L301.002 218.606C303.452 216.548 304.824 214.98 304.824 212.334C304.824 208.708 301.884 206.552 296.984 206.552C292.084 206.552 288.948 209.394 288.36 213.706ZM307.764 253.2C307.764 259.178 303.06 263.49 296.69 263.49C290.32 263.49 285.518 259.178 285.518 253.2C285.518 247.222 290.124 242.812 296.69 242.812C303.158 242.812 307.764 247.222 307.764 253.2Z" fill="white"/>
<rect x="70.5" y="360.5" width="1409" height="391" rx="5.5" stroke="white" stroke-opacity="0.2"/>
<path d="M114.077 468V420.32H145.757V428H122.781V440.224H144.477V447.904H122.781V460.32H145.757V468H114.077ZM151.435 468V433.184H159.307V440.032L158.667 438.816C159.478 436.725 160.801 435.147 162.635 434.08C164.513 432.971 166.689 432.416 169.163 432.416C171.723 432.416 173.985 432.971 175.947 434.08C177.953 435.189 179.51 436.747 180.619 438.752C181.729 440.715 182.283 442.997 182.283 445.6V468H173.899V447.584C173.899 446.048 173.601 444.725 173.003 443.616C172.406 442.507 171.574 441.653 170.507 441.056C169.483 440.416 168.267 440.096 166.859 440.096C165.494 440.096 164.278 440.416 163.211 441.056C162.145 441.653 161.313 442.507 160.715 443.616C160.118 444.725 159.819 446.048 159.819 447.584V468H151.435ZM205.565 468.768C202.194 468.768 199.186 467.979 196.541 466.4C193.895 464.779 191.805 462.581 190.269 459.808C188.733 457.035 187.965 453.963 187.965 450.592C187.965 447.179 188.733 444.107 190.269 441.376C191.805 438.645 193.895 436.469 196.541 434.848C199.229 433.227 202.215 432.416 205.501 432.416C208.146 432.416 210.493 432.949 212.541 434.016C214.631 435.04 216.274 436.491 217.469 438.368L216.189 440.096V419.552H224.573V468H216.637V461.28L217.533 462.944C216.338 464.821 214.674 466.272 212.541 467.296C210.407 468.277 208.082 468.768 205.565 468.768ZM206.461 461.088C208.381 461.088 210.066 460.64 211.517 459.744C212.967 458.848 214.098 457.611 214.909 456.032C215.762 454.453 216.189 452.64 216.189 450.592C216.189 448.587 215.762 446.795 214.909 445.216C214.098 443.595 212.967 442.336 211.517 441.44C210.066 440.544 208.381 440.096 206.461 440.096C204.583 440.096 202.898 440.565 201.405 441.504C199.911 442.4 198.738 443.637 197.885 445.216C197.074 446.752 196.669 448.544 196.669 450.592C196.669 452.64 197.074 454.453 197.885 456.032C198.738 457.611 199.911 458.848 201.405 459.744C202.898 460.64 204.583 461.088 206.461 461.088ZM232.373 468V419.552H240.757V468H232.373ZM265.01 468.768C261.426 468.768 258.29 467.957 255.602 466.336C252.914 464.715 250.823 462.517 249.33 459.744C247.836 456.971 247.09 453.899 247.09 450.528C247.09 447.029 247.836 443.936 249.33 441.248C250.866 438.517 252.935 436.363 255.538 434.784C258.183 433.205 261.127 432.416 264.37 432.416C267.1 432.416 269.49 432.864 271.538 433.76C273.628 434.656 275.399 435.893 276.85 437.472C278.3 439.051 279.41 440.864 280.178 442.912C280.946 444.917 281.33 447.093 281.33 449.44C281.33 450.037 281.287 450.656 281.202 451.296C281.159 451.936 281.052 452.491 280.882 452.96H254.002V446.56H276.146L272.178 449.568C272.562 447.605 272.455 445.856 271.858 444.32C271.303 442.784 270.364 441.568 269.042 440.672C267.762 439.776 266.204 439.328 264.37 439.328C262.62 439.328 261.063 439.776 259.698 440.672C258.332 441.525 257.287 442.805 256.562 444.512C255.879 446.176 255.623 448.203 255.794 450.592C255.623 452.725 255.9 454.624 256.626 456.288C257.394 457.909 258.503 459.168 259.954 460.064C261.447 460.96 263.154 461.408 265.074 461.408C266.994 461.408 268.615 461.003 269.938 460.192C271.303 459.381 272.37 458.293 273.138 456.928L279.922 460.256C279.239 461.92 278.172 463.392 276.722 464.672C275.271 465.952 273.543 466.955 271.538 467.68C269.575 468.405 267.399 468.768 265.01 468.768ZM300.933 468.768C297.221 468.768 293.979 467.893 291.205 466.144C288.475 464.352 286.597 461.941 285.573 458.912L291.845 455.904C292.741 457.867 293.979 459.403 295.557 460.512C297.179 461.621 298.971 462.176 300.933 462.176C302.469 462.176 303.685 461.835 304.581 461.152C305.477 460.469 305.925 459.573 305.925 458.464C305.925 457.781 305.733 457.227 305.349 456.8C305.008 456.331 304.517 455.947 303.877 455.648C303.28 455.307 302.619 455.029 301.893 454.816L296.197 453.216C293.253 452.363 291.013 451.061 289.477 449.312C287.984 447.563 287.237 445.493 287.237 443.104C287.237 440.971 287.771 439.115 288.837 437.536C289.947 435.915 291.461 434.656 293.381 433.76C295.344 432.864 297.584 432.416 300.101 432.416C303.387 432.416 306.288 433.205 308.805 434.784C311.323 436.363 313.115 438.581 314.181 441.44L307.781 444.448C307.184 442.869 306.181 441.611 304.773 440.672C303.365 439.733 301.787 439.264 300.037 439.264C298.629 439.264 297.52 439.584 296.709 440.224C295.899 440.864 295.493 441.696 295.493 442.72C295.493 443.36 295.664 443.915 296.005 444.384C296.347 444.853 296.816 445.237 297.413 445.536C298.053 445.835 298.779 446.112 299.589 446.368L305.157 448.032C308.016 448.885 310.213 450.165 311.749 451.872C313.328 453.579 314.117 455.669 314.117 458.144C314.117 460.235 313.563 462.091 312.453 463.712C311.344 465.291 309.808 466.528 307.845 467.424C305.883 468.32 303.579 468.768 300.933 468.768ZM333.808 468.768C330.096 468.768 326.854 467.893 324.08 466.144C321.35 464.352 319.472 461.941 318.448 458.912L324.72 455.904C325.616 457.867 326.854 459.403 328.432 460.512C330.054 461.621 331.846 462.176 333.808 462.176C335.344 462.176 336.56 461.835 337.456 461.152C338.352 460.469 338.8 459.573 338.8 458.464C338.8 457.781 338.608 457.227 338.224 456.8C337.883 456.331 337.392 455.947 336.752 455.648C336.155 455.307 335.494 455.029 334.768 454.816L329.072 453.216C326.128 452.363 323.888 451.061 322.352 449.312C320.859 447.563 320.112 445.493 320.112 443.104C320.112 440.971 320.646 439.115 321.712 437.536C322.822 435.915 324.336 434.656 326.256 433.76C328.219 432.864 330.459 432.416 332.976 432.416C336.262 432.416 339.163 433.205 341.68 434.784C344.198 436.363 345.99 438.581 347.056 441.44L340.656 444.448C340.059 442.869 339.056 441.611 337.648 440.672C336.24 439.733 334.662 439.264 332.912 439.264C331.504 439.264 330.395 439.584 329.584 440.224C328.774 440.864 328.368 441.696 328.368 442.72C328.368 443.36 328.539 443.915 328.88 444.384C329.222 444.853 329.691 445.237 330.288 445.536C330.928 445.835 331.654 446.112 332.464 446.368L338.032 448.032C340.891 448.885 343.088 450.165 344.624 451.872C346.203 453.579 346.992 455.669 346.992 458.144C346.992 460.235 346.438 462.091 345.328 463.712C344.219 465.291 342.683 466.528 340.72 467.424C338.758 468.32 336.454 468.768 333.808 468.768ZM364.81 480.8V433.184H372.682V440.096L371.914 438.368C373.109 436.491 374.73 435.04 376.778 434.016C378.826 432.949 381.194 432.416 383.882 432.416C387.168 432.416 390.133 433.227 392.778 434.848C395.424 436.469 397.514 438.645 399.05 441.376C400.629 444.107 401.418 447.179 401.418 450.592C401.418 453.963 400.65 457.035 399.114 459.808C397.578 462.581 395.488 464.779 392.842 466.4C390.197 467.979 387.189 468.768 383.818 468.768C381.301 468.768 378.976 468.277 376.842 467.296C374.752 466.272 373.088 464.821 371.85 462.944L373.194 461.28V480.8H364.81ZM382.858 461.088C384.778 461.088 386.485 460.64 387.978 459.744C389.472 458.848 390.624 457.611 391.434 456.032C392.288 454.453 392.714 452.64 392.714 450.592C392.714 448.544 392.288 446.752 391.434 445.216C390.624 443.637 389.472 442.4 387.978 441.504C386.485 440.565 384.778 440.096 382.858 440.096C381.024 440.096 379.36 440.544 377.866 441.44C376.416 442.336 375.264 443.595 374.41 445.216C373.6 446.795 373.194 448.587 373.194 450.592C373.194 452.64 373.6 454.453 374.41 456.032C375.264 457.611 376.416 458.848 377.866 459.744C379.36 460.64 381.024 461.088 382.858 461.088ZM424.834 468.768C421.421 468.768 418.306 467.979 415.49 466.4C412.717 464.821 410.498 462.667 408.834 459.936C407.213 457.205 406.402 454.091 406.402 450.592C406.402 447.093 407.213 443.979 408.834 441.248C410.498 438.517 412.717 436.363 415.49 434.784C418.264 433.205 421.378 432.416 424.834 432.416C428.248 432.416 431.341 433.205 434.114 434.784C436.888 436.363 439.085 438.517 440.706 441.248C442.37 443.936 443.202 447.051 443.202 450.592C443.202 454.091 442.37 457.205 440.706 459.936C439.042 462.667 436.824 464.821 434.05 466.4C431.277 467.979 428.205 468.768 424.834 468.768ZM424.834 461.088C426.712 461.088 428.354 460.64 429.762 459.744C431.213 458.848 432.344 457.611 433.154 456.032C434.008 454.411 434.434 452.597 434.434 450.592C434.434 448.544 434.008 446.752 433.154 445.216C432.344 443.637 431.213 442.4 429.762 441.504C428.354 440.565 426.712 440.096 424.834 440.096C422.914 440.096 421.229 440.565 419.778 441.504C418.328 442.4 417.176 443.637 416.322 445.216C415.512 446.752 415.106 448.544 415.106 450.592C415.106 452.597 415.512 454.411 416.322 456.032C417.176 457.611 418.328 458.848 419.778 459.744C421.229 460.64 422.914 461.088 424.834 461.088ZM462.808 468.768C459.096 468.768 455.854 467.893 453.08 466.144C450.35 464.352 448.472 461.941 447.448 458.912L453.72 455.904C454.616 457.867 455.854 459.403 457.432 460.512C459.054 461.621 460.846 462.176 462.808 462.176C464.344 462.176 465.56 461.835 466.456 461.152C467.352 460.469 467.8 459.573 467.8 458.464C467.8 457.781 467.608 457.227 467.224 456.8C466.883 456.331 466.392 455.947 465.752 455.648C465.155 455.307 464.494 455.029 463.768 454.816L458.072 453.216C455.128 452.363 452.888 451.061 451.352 449.312C449.859 447.563 449.112 445.493 449.112 443.104C449.112 440.971 449.646 439.115 450.712 437.536C451.822 435.915 453.336 434.656 455.256 433.76C457.219 432.864 459.459 432.416 461.976 432.416C465.262 432.416 468.163 433.205 470.68 434.784C473.198 436.363 474.99 438.581 476.056 441.44L469.656 444.448C469.059 442.869 468.056 441.611 466.648 440.672C465.24 439.733 463.662 439.264 461.912 439.264C460.504 439.264 459.395 439.584 458.584 440.224C457.774 440.864 457.368 441.696 457.368 442.72C457.368 443.36 457.539 443.915 457.88 444.384C458.222 444.853 458.691 445.237 459.288 445.536C459.928 445.835 460.654 446.112 461.464 446.368L467.032 448.032C469.891 448.885 472.088 450.165 473.624 451.872C475.203 453.579 475.992 455.669 475.992 458.144C475.992 460.235 475.438 462.091 474.328 463.712C473.219 465.291 471.683 466.528 469.72 467.424C467.758 468.32 465.454 468.768 462.808 468.768ZM495.683 468.768C491.971 468.768 488.729 467.893 485.955 466.144C483.225 464.352 481.347 461.941 480.323 458.912L486.595 455.904C487.491 457.867 488.729 459.403 490.307 460.512C491.929 461.621 493.721 462.176 495.683 462.176C497.219 462.176 498.435 461.835 499.331 461.152C500.227 460.469 500.675 459.573 500.675 458.464C500.675 457.781 500.483 457.227 500.099 456.8C499.758 456.331 499.267 455.947 498.627 455.648C498.03 455.307 497.369 455.029 496.643 454.816L490.947 453.216C488.003 452.363 485.763 451.061 484.227 449.312C482.734 447.563 481.987 445.493 481.987 443.104C481.987 440.971 482.521 439.115 483.587 437.536C484.697 435.915 486.211 434.656 488.131 433.76C490.094 432.864 492.334 432.416 494.851 432.416C498.137 432.416 501.038 433.205 503.555 434.784C506.073 436.363 507.865 438.581 508.931 441.44L502.531 444.448C501.934 442.869 500.931 441.611 499.523 440.672C498.115 439.733 496.537 439.264 494.787 439.264C493.379 439.264 492.27 439.584 491.459 440.224C490.649 440.864 490.243 441.696 490.243 442.72C490.243 443.36 490.414 443.915 490.755 444.384C491.097 444.853 491.566 445.237 492.163 445.536C492.803 445.835 493.529 446.112 494.339 446.368L499.907 448.032C502.766 448.885 504.963 450.165 506.499 451.872C508.078 453.579 508.867 455.669 508.867 458.144C508.867 460.235 508.313 462.091 507.203 463.712C506.094 465.291 504.558 466.528 502.595 467.424C500.633 468.32 498.329 468.768 495.683 468.768ZM515.31 468V433.184H523.694V468H515.31ZM515.31 429.28V420.32H523.694V429.28H515.31ZM550.443 468.768C547.926 468.768 545.601 468.277 543.467 467.296C541.377 466.272 539.713 464.821 538.475 462.944L539.307 461.28V468H531.435V419.552H539.819V440.096L538.539 438.368C539.734 436.491 541.355 435.04 543.403 434.016C545.451 432.949 547.819 432.416 550.507 432.416C553.793 432.416 556.758 433.227 559.403 434.848C562.049 436.469 564.139 438.645 565.675 441.376C567.254 444.107 568.043 447.179 568.043 450.592C568.043 453.963 567.275 457.035 565.739 459.808C564.203 462.581 562.113 464.779 559.467 466.4C556.822 467.979 553.814 468.768 550.443 468.768ZM549.483 461.088C551.403 461.088 553.11 460.64 554.603 459.744C556.097 458.848 557.249 457.611 558.059 456.032C558.913 454.453 559.339 452.64 559.339 450.592C559.339 448.544 558.913 446.752 558.059 445.216C557.249 443.637 556.097 442.4 554.603 441.504C553.11 440.565 551.403 440.096 549.483 440.096C547.649 440.096 545.985 440.544 544.491 441.44C543.041 442.336 541.889 443.595 541.035 445.216C540.225 446.795 539.819 448.587 539.819 450.592C539.819 452.64 540.225 454.453 541.035 456.032C541.889 457.611 543.041 458.848 544.491 459.744C545.985 460.64 547.649 461.088 549.483 461.088ZM574.435 468V433.184H582.819V468H574.435ZM574.435 429.28V420.32H582.819V429.28H574.435ZM590.56 468V419.552H598.944V468H590.56ZM606.685 468V433.184H615.069V468H606.685ZM606.685 429.28V420.32H615.069V429.28H606.685ZM638.682 468.384C634.757 468.384 631.706 467.317 629.53 465.184C627.397 463.008 626.33 459.957 626.33 456.032V440.672H620.314V433.184H620.954C622.661 433.184 623.984 432.736 624.922 431.84C625.861 430.944 626.33 429.643 626.33 427.936V425.248H634.714V433.184H642.714V440.672H634.714V455.584C634.714 456.736 634.906 457.717 635.29 458.528C635.717 459.339 636.357 459.957 637.21 460.384C638.106 460.811 639.237 461.024 640.602 461.024C640.901 461.024 641.242 461.003 641.626 460.96C642.053 460.917 642.458 460.875 642.842 460.832V468C642.245 468.085 641.562 468.171 640.794 468.256C640.026 468.341 639.322 468.384 638.682 468.384ZM649.248 468V433.184H657.632V468H649.248ZM649.248 429.28V420.32H657.632V429.28H649.248ZM681.885 468.768C678.301 468.768 675.165 467.957 672.477 466.336C669.789 464.715 667.698 462.517 666.205 459.744C664.711 456.971 663.965 453.899 663.965 450.528C663.965 447.029 664.711 443.936 666.205 441.248C667.741 438.517 669.81 436.363 672.413 434.784C675.058 433.205 678.002 432.416 681.245 432.416C683.975 432.416 686.365 432.864 688.413 433.76C690.503 434.656 692.274 435.893 693.725 437.472C695.175 439.051 696.285 440.864 697.053 442.912C697.821 444.917 698.205 447.093 698.205 449.44C698.205 450.037 698.162 450.656 698.077 451.296C698.034 451.936 697.927 452.491 697.757 452.96H670.877V446.56H693.021L689.053 449.568C689.437 447.605 689.33 445.856 688.733 444.32C688.178 442.784 687.239 441.568 685.917 440.672C684.637 439.776 683.079 439.328 681.245 439.328C679.495 439.328 677.938 439.776 676.573 440.672C675.207 441.525 674.162 442.805 673.437 444.512C672.754 446.176 672.498 448.203 672.669 450.592C672.498 452.725 672.775 454.624 673.501 456.288C674.269 457.909 675.378 459.168 676.829 460.064C678.322 460.96 680.029 461.408 681.949 461.408C683.869 461.408 685.49 461.003 686.813 460.192C688.178 459.381 689.245 458.293 690.013 456.928L696.797 460.256C696.114 461.92 695.047 463.392 693.597 464.672C692.146 465.952 690.418 466.955 688.413 467.68C686.45 468.405 684.274 468.768 681.885 468.768ZM717.808 468.768C714.096 468.768 710.854 467.893 708.08 466.144C705.35 464.352 703.472 461.941 702.448 458.912L708.72 455.904C709.616 457.867 710.854 459.403 712.432 460.512C714.054 461.621 715.846 462.176 717.808 462.176C719.344 462.176 720.56 461.835 721.456 461.152C722.352 460.469 722.8 459.573 722.8 458.464C722.8 457.781 722.608 457.227 722.224 456.8C721.883 456.331 721.392 455.947 720.752 455.648C720.155 455.307 719.494 455.029 718.768 454.816L713.072 453.216C710.128 452.363 707.888 451.061 706.352 449.312C704.859 447.563 704.112 445.493 704.112 443.104C704.112 440.971 704.646 439.115 705.712 437.536C706.822 435.915 708.336 434.656 710.256 433.76C712.219 432.864 714.459 432.416 716.976 432.416C720.262 432.416 723.163 433.205 725.68 434.784C728.198 436.363 729.99 438.581 731.056 441.44L724.656 444.448C724.059 442.869 723.056 441.611 721.648 440.672C720.24 439.733 718.662 439.264 716.912 439.264C715.504 439.264 714.395 439.584 713.584 440.224C712.774 440.864 712.368 441.696 712.368 442.72C712.368 443.36 712.539 443.915 712.88 444.384C713.222 444.853 713.691 445.237 714.288 445.536C714.928 445.835 715.654 446.112 716.464 446.368L722.032 448.032C724.891 448.885 727.088 450.165 728.624 451.872C730.203 453.579 730.992 455.669 730.992 458.144C730.992 460.235 730.438 462.091 729.328 463.712C728.219 465.291 726.683 466.528 724.72 467.424C722.758 468.32 720.454 468.768 717.808 468.768Z" fill="#FFFCB5"/>
<path d="M124.456 532.576C121.928 532.576 119.704 531.984 117.784 530.8C115.864 529.616 114.36 528.016 113.272 526C112.184 523.952 111.64 521.648 111.64 519.088C111.64 516.528 112.184 514.24 113.272 512.224C114.36 510.208 115.864 508.624 117.784 507.472C119.704 506.288 121.928 505.696 124.456 505.696C126.056 505.696 127.56 505.984 128.968 506.56C130.376 507.136 131.624 507.92 132.712 508.912C133.8 509.872 134.616 510.992 135.16 512.272L131.896 513.952C131.256 512.576 130.28 511.456 128.968 510.592C127.656 509.728 126.152 509.296 124.456 509.296C122.76 509.296 121.224 509.728 119.848 510.592C118.504 511.424 117.432 512.592 116.632 514.096C115.864 515.568 115.48 517.248 115.48 519.136C115.48 520.992 115.864 522.672 116.632 524.176C117.432 525.648 118.504 526.816 119.848 527.68C121.224 528.544 122.76 528.976 124.456 528.976C126.152 528.976 127.64 528.544 128.92 527.68C130.232 526.816 131.224 525.664 131.896 524.224L135.16 526C134.616 527.248 133.8 528.368 132.712 529.36C131.624 530.352 130.376 531.136 128.968 531.712C127.56 532.288 126.056 532.576 124.456 532.576ZM141.477 532V495.664H145.077V511.264L144.261 511.072C144.901 509.408 145.941 508.096 147.381 507.136C148.853 506.176 150.549 505.696 152.469 505.696C154.293 505.696 155.925 506.112 157.365 506.944C158.837 507.776 159.989 508.928 160.821 510.4C161.685 511.84 162.117 513.472 162.117 515.296V532H158.517V516.688C158.517 515.12 158.229 513.792 157.653 512.704C157.077 511.616 156.277 510.784 155.253 510.208C154.261 509.6 153.125 509.296 151.845 509.296C150.565 509.296 149.413 509.6 148.389 510.208C147.365 510.784 146.549 511.632 145.941 512.752C145.365 513.84 145.077 515.152 145.077 516.688V532H141.477ZM180.705 532.576C178.305 532.576 176.129 532 174.177 530.848C172.257 529.664 170.737 528.048 169.617 526C168.497 523.952 167.937 521.632 167.937 519.04C167.937 516.448 168.481 514.16 169.569 512.176C170.657 510.16 172.129 508.576 173.985 507.424C175.873 506.272 177.985 505.696 180.321 505.696C182.177 505.696 183.825 506.048 185.265 506.752C186.737 507.424 187.985 508.352 189.009 509.536C190.033 510.688 190.817 512 191.361 513.472C191.905 514.912 192.177 516.4 192.177 517.936C192.177 518.256 192.161 518.624 192.129 519.04C192.097 519.424 192.049 519.824 191.985 520.24H170.241V516.88H189.921L188.193 518.32C188.481 516.56 188.273 514.992 187.569 513.616C186.897 512.208 185.921 511.104 184.641 510.304C183.361 509.472 181.921 509.056 180.321 509.056C178.721 509.056 177.233 509.472 175.857 510.304C174.513 511.136 173.457 512.304 172.689 513.808C171.921 515.28 171.617 517.04 171.777 519.088C171.617 521.136 171.937 522.928 172.737 524.464C173.569 525.968 174.689 527.136 176.097 527.968C177.537 528.8 179.073 529.216 180.705 529.216C182.593 529.216 184.177 528.768 185.457 527.872C186.737 526.976 187.777 525.856 188.577 524.512L191.649 526.144C191.137 527.296 190.353 528.368 189.297 529.36C188.241 530.32 186.977 531.104 185.505 531.712C184.065 532.288 182.465 532.576 180.705 532.576ZM210.284 532.576C207.756 532.576 205.532 531.984 203.612 530.8C201.692 529.616 200.188 528.016 199.1 526C198.012 523.952 197.468 521.648 197.468 519.088C197.468 516.528 198.012 514.24 199.1 512.224C200.188 510.208 201.692 508.624 203.612 507.472C205.532 506.288 207.756 505.696 210.284 505.696C211.884 505.696 213.388 505.984 214.796 506.56C216.204 507.136 217.452 507.92 218.54 508.912C219.628 509.872 220.444 510.992 220.988 512.272L217.724 513.952C217.084 512.576 216.108 511.456 214.796 510.592C213.484 509.728 211.98 509.296 210.284 509.296C208.588 509.296 207.052 509.728 205.676 510.592C204.332 511.424 203.26 512.592 202.46 514.096C201.692 515.568 201.308 517.248 201.308 519.136C201.308 520.992 201.692 522.672 202.46 524.176C203.26 525.648 204.332 526.816 205.676 527.68C207.052 528.544 208.588 528.976 210.284 528.976C211.98 528.976 213.468 528.544 214.748 527.68C216.06 526.816 217.052 525.664 217.724 524.224L220.988 526C220.444 527.248 219.628 528.368 218.54 529.36C217.452 530.352 216.204 531.136 214.796 531.712C213.388 532.288 211.884 532.576 210.284 532.576ZM227.305 532V495.664H230.905V521.104L229.369 520.864L243.817 506.272H248.473L238.393 516.592L249.385 532H245.065L234.745 517.744L237.049 517.936L229.705 525.52L230.905 522.544V532H227.305ZM273.807 532.576C271.375 532.576 269.167 532 267.183 530.848C265.199 529.664 263.615 528.064 262.431 526.048C261.279 524 260.703 521.68 260.703 519.088C260.703 516.528 261.279 514.24 262.431 512.224C263.583 510.208 265.135 508.624 267.087 507.472C269.071 506.288 271.311 505.696 273.807 505.696C276.303 505.696 278.527 506.272 280.479 507.424C282.463 508.576 284.015 510.16 285.135 512.176C286.287 514.192 286.863 516.496 286.863 519.088C286.863 521.712 286.271 524.048 285.087 526.096C283.903 528.112 282.319 529.696 280.335 530.848C278.383 532 276.207 532.576 273.807 532.576ZM273.807 528.976C275.535 528.976 277.087 528.544 278.463 527.68C279.871 526.816 280.975 525.632 281.775 524.128C282.607 522.624 283.023 520.944 283.023 519.088C283.023 517.232 282.607 515.568 281.775 514.096C280.975 512.624 279.871 511.456 278.463 510.592C277.087 509.728 275.535 509.296 273.807 509.296C272.079 509.296 270.511 509.728 269.103 510.592C267.727 511.456 266.623 512.624 265.791 514.096C264.959 515.568 264.543 517.232 264.543 519.088C264.543 520.944 264.959 522.624 265.791 524.128C266.623 525.632 267.727 526.816 269.103 527.68C270.511 528.544 272.079 528.976 273.807 528.976ZM302.332 532.576C300.54 532.576 298.908 532.16 297.436 531.328C295.964 530.464 294.796 529.28 293.932 527.776C293.1 526.24 292.684 524.48 292.684 522.496V506.272H296.284V522.064C296.284 523.44 296.556 524.656 297.1 525.712C297.676 526.736 298.46 527.536 299.452 528.112C300.476 528.688 301.644 528.976 302.956 528.976C304.268 528.976 305.436 528.688 306.46 528.112C307.484 527.504 308.284 526.656 308.86 525.568C309.436 524.448 309.724 523.12 309.724 521.584V506.272H313.324V532H309.724V527.008L310.54 527.2C309.932 528.864 308.892 530.176 307.42 531.136C305.948 532.096 304.252 532.576 302.332 532.576ZM330.567 532.288C328.263 532.288 326.487 531.616 325.239 530.272C323.991 528.928 323.367 527.008 323.367 524.512V509.872H318.615V506.272H319.815C320.903 506.272 321.767 505.92 322.407 505.216C323.047 504.48 323.367 503.568 323.367 502.48V500.32H326.967V506.272H332.631V509.872H326.967V524.512C326.967 525.376 327.095 526.144 327.351 526.816C327.607 527.456 328.039 527.968 328.647 528.352C329.287 528.736 330.135 528.928 331.191 528.928C331.447 528.928 331.751 528.912 332.103 528.88C332.455 528.848 332.759 528.816 333.015 528.784V532C332.631 532.096 332.199 532.16 331.719 532.192C331.239 532.256 330.855 532.288 330.567 532.288ZM353.157 532L344.325 506.272H348.405L355.701 528.784H354.261L361.125 506.272H364.725L371.589 528.784H370.149L377.493 506.272H381.525L372.693 532H369.093L362.421 509.968H363.429L356.757 532H353.157ZM385.743 532V495.664H389.343V511.264L388.527 511.072C389.167 509.408 390.207 508.096 391.647 507.136C393.119 506.176 394.815 505.696 396.735 505.696C398.559 505.696 400.191 506.112 401.631 506.944C403.103 507.776 404.255 508.928 405.087 510.4C405.951 511.84 406.383 513.472 406.383 515.296V532H402.783V516.688C402.783 515.12 402.495 513.792 401.919 512.704C401.343 511.616 400.543 510.784 399.519 510.208C398.527 509.6 397.391 509.296 396.111 509.296C394.831 509.296 393.679 509.6 392.655 510.208C391.631 510.784 390.815 511.632 390.207 512.752C389.631 513.84 389.343 515.152 389.343 516.688V532H385.743ZM420.699 532.576C419.067 532.576 417.611 532.272 416.331 531.664C415.051 531.024 414.043 530.16 413.307 529.072C412.571 527.984 412.203 526.736 412.203 525.328C412.203 523.984 412.491 522.768 413.067 521.68C413.643 520.56 414.539 519.616 415.755 518.848C416.971 518.08 418.523 517.536 420.411 517.216L430.491 515.536V518.8L421.275 520.336C419.419 520.656 418.075 521.248 417.243 522.112C416.443 522.976 416.043 524 416.043 525.184C416.043 526.336 416.491 527.312 417.387 528.112C418.315 528.912 419.499 529.312 420.939 529.312C422.699 529.312 424.235 528.944 425.547 528.208C426.859 527.44 427.883 526.416 428.619 525.136C429.355 523.856 429.723 522.432 429.723 520.864V514.336C429.723 512.8 429.163 511.552 428.043 510.592C426.923 509.632 425.467 509.152 423.674 509.152C422.107 509.152 420.731 509.552 419.547 510.352C418.363 511.12 417.483 512.128 416.907 513.376L413.643 511.6C414.123 510.512 414.875 509.52 415.898 508.624C416.955 507.728 418.155 507.024 419.499 506.512C420.843 505.968 422.235 505.696 423.674 505.696C425.563 505.696 427.227 506.064 428.667 506.8C430.139 507.536 431.275 508.56 432.075 509.872C432.907 511.152 433.323 512.64 433.323 514.336V532H429.723V526.864L430.251 527.392C429.803 528.352 429.099 529.232 428.139 530.032C427.211 530.8 426.107 531.424 424.827 531.904C423.579 532.352 422.203 532.576 420.699 532.576ZM450.099 532.288C447.795 532.288 446.019 531.616 444.771 530.272C443.523 528.928 442.898 527.008 442.898 524.512V509.872H438.146V506.272H439.347C440.435 506.272 441.299 505.92 441.939 505.216C442.579 504.48 442.898 503.568 442.898 502.48V500.32H446.499V506.272H452.163V509.872H446.499V524.512C446.499 525.376 446.627 526.144 446.883 526.816C447.139 527.456 447.571 527.968 448.179 528.352C448.819 528.736 449.667 528.928 450.723 528.928C450.979 528.928 451.283 528.912 451.635 528.88C451.987 528.848 452.291 528.816 452.547 528.784V532C452.163 532.096 451.731 532.16 451.251 532.192C450.771 532.256 450.387 532.288 450.099 532.288ZM467.024 532V495.664H470.624V511.264L469.808 511.072C470.448 509.408 471.488 508.096 472.928 507.136C474.4 506.176 476.096 505.696 478.016 505.696C479.84 505.696 481.472 506.112 482.912 506.944C484.384 507.776 485.536 508.928 486.368 510.4C487.232 511.84 487.664 513.472 487.664 515.296V532H484.064V516.688C484.064 515.12 483.776 513.792 483.2 512.704C482.624 511.616 481.824 510.784 480.8 510.208C479.808 509.6 478.672 509.296 477.392 509.296C476.112 509.296 474.96 509.6 473.936 510.208C472.912 510.784 472.096 511.632 471.488 512.752C470.912 513.84 470.624 515.152 470.624 516.688V532H467.024ZM501.98 532.576C500.348 532.576 498.892 532.272 497.612 531.664C496.332 531.024 495.324 530.16 494.588 529.072C493.852 527.984 493.484 526.736 493.484 525.328C493.484 523.984 493.772 522.768 494.348 521.68C494.924 520.56 495.82 519.616 497.036 518.848C498.252 518.08 499.804 517.536 501.692 517.216L511.772 515.536V518.8L502.556 520.336C500.7 520.656 499.356 521.248 498.524 522.112C497.724 522.976 497.324 524 497.324 525.184C497.324 526.336 497.772 527.312 498.668 528.112C499.596 528.912 500.78 529.312 502.22 529.312C503.98 529.312 505.516 528.944 506.828 528.208C508.14 527.44 509.164 526.416 509.9 525.136C510.636 523.856 511.004 522.432 511.004 520.864V514.336C511.004 512.8 510.444 511.552 509.324 510.592C508.204 509.632 506.748 509.152 504.956 509.152C503.388 509.152 502.012 509.552 500.828 510.352C499.644 511.12 498.764 512.128 498.188 513.376L494.924 511.6C495.404 510.512 496.156 509.52 497.18 508.624C498.236 507.728 499.436 507.024 500.78 506.512C502.124 505.968 503.516 505.696 504.956 505.696C506.844 505.696 508.508 506.064 509.948 506.8C511.42 507.536 512.556 508.56 513.356 509.872C514.188 511.152 514.604 512.64 514.604 514.336V532H511.004V526.864L511.532 527.392C511.084 528.352 510.38 529.232 509.42 530.032C508.492 530.8 507.388 531.424 506.108 531.904C504.86 532.352 503.484 532.576 501.98 532.576ZM528.404 532L518.372 506.272H522.404L530.852 528.832H529.556L538.052 506.272H542.132L532.004 532H528.404ZM557.58 532.576C555.18 532.576 553.004 532 551.052 530.848C549.132 529.664 547.612 528.048 546.492 526C545.372 523.952 544.812 521.632 544.812 519.04C544.812 516.448 545.356 514.16 546.444 512.176C547.532 510.16 549.004 508.576 550.86 507.424C552.748 506.272 554.86 505.696 557.196 505.696C559.052 505.696 560.7 506.048 562.14 506.752C563.612 507.424 564.86 508.352 565.884 509.536C566.908 510.688 567.692 512 568.236 513.472C568.78 514.912 569.052 516.4 569.052 517.936C569.052 518.256 569.036 518.624 569.004 519.04C568.972 519.424 568.924 519.824 568.86 520.24H547.116V516.88H566.796L565.068 518.32C565.356 516.56 565.148 514.992 564.444 513.616C563.772 512.208 562.796 511.104 561.516 510.304C560.236 509.472 558.796 509.056 557.196 509.056C555.596 509.056 554.108 509.472 552.732 510.304C551.388 511.136 550.332 512.304 549.564 513.808C548.796 515.28 548.492 517.04 548.652 519.088C548.492 521.136 548.812 522.928 549.612 524.464C550.444 525.968 551.564 527.136 552.972 527.968C554.412 528.8 555.948 529.216 557.58 529.216C559.468 529.216 561.052 528.768 562.332 527.872C563.612 526.976 564.652 525.856 565.452 524.512L568.524 526.144C568.012 527.296 567.228 528.368 566.172 529.36C565.116 530.32 563.852 531.104 562.38 531.712C560.94 532.288 559.34 532.576 557.58 532.576ZM589.219 532L580.387 506.272H584.467L591.763 528.784H590.323L597.187 506.272H600.787L607.651 528.784H606.211L613.555 506.272H617.587L608.755 532H605.155L598.483 509.968H599.491L592.819 532H589.219ZM633.049 532.576C630.649 532.576 628.473 532 626.521 530.848C624.601 529.664 623.081 528.048 621.961 526C620.841 523.952 620.281 521.632 620.281 519.04C620.281 516.448 620.825 514.16 621.913 512.176C623.001 510.16 624.473 508.576 626.329 507.424C628.217 506.272 630.329 505.696 632.665 505.696C634.521 505.696 636.169 506.048 637.609 506.752C639.081 507.424 640.329 508.352 641.353 509.536C642.377 510.688 643.161 512 643.705 513.472C644.249 514.912 644.521 516.4 644.521 517.936C644.521 518.256 644.505 518.624 644.473 519.04C644.441 519.424 644.393 519.824 644.329 520.24H622.585V516.88H642.265L640.537 518.32C640.825 516.56 640.617 514.992 639.913 513.616C639.241 512.208 638.265 511.104 636.985 510.304C635.705 509.472 634.265 509.056 632.665 509.056C631.065 509.056 629.577 509.472 628.201 510.304C626.857 511.136 625.801 512.304 625.033 513.808C624.265 515.28 623.961 517.04 624.121 519.088C623.961 521.136 624.281 522.928 625.081 524.464C625.913 525.968 627.033 527.136 628.441 527.968C629.881 528.8 631.417 529.216 633.049 529.216C634.937 529.216 636.521 528.768 637.801 527.872C639.081 526.976 640.121 525.856 640.921 524.512L643.993 526.144C643.481 527.296 642.697 528.368 641.641 529.36C640.585 530.32 639.321 531.104 637.849 531.712C636.409 532.288 634.809 532.576 633.049 532.576ZM671.216 542.56C669.456 542.56 667.824 542.288 666.32 541.744C664.848 541.2 663.568 540.448 662.48 539.488C661.424 538.56 660.608 537.472 660.032 536.224L663.344 534.448C663.856 535.664 664.768 536.72 666.08 537.616C667.392 538.512 669.072 538.96 671.12 538.96C672.688 538.96 674.128 538.656 675.44 538.048C676.752 537.44 677.808 536.544 678.608 535.36C679.408 534.176 679.808 532.72 679.808 530.992V525.28L680.384 525.808C679.488 527.664 678.16 529.104 676.4 530.128C674.64 531.12 672.72 531.616 670.64 531.616C668.24 531.616 666.08 531.04 664.16 529.888C662.24 528.736 660.72 527.184 659.6 525.232C658.512 523.248 657.968 521.056 657.968 518.656C657.968 516.224 658.512 514.032 659.6 512.08C660.72 510.128 662.224 508.576 664.112 507.424C666.032 506.272 668.208 505.696 670.64 505.696C672.72 505.696 674.608 506.176 676.304 507.136C678.032 508.096 679.392 509.392 680.384 511.024L679.808 512.032V506.272H683.408V530.992C683.408 533.2 682.88 535.168 681.824 536.896C680.8 538.656 679.36 540.032 677.504 541.024C675.68 542.048 673.584 542.56 671.216 542.56ZM670.832 528.016C672.496 528.016 674 527.6 675.344 526.768C676.688 525.904 677.76 524.768 678.56 523.36C679.392 521.92 679.808 520.352 679.808 518.656C679.808 516.96 679.392 515.408 678.56 514C677.76 512.56 676.688 511.424 675.344 510.592C674 509.728 672.496 509.296 670.832 509.296C669.136 509.296 667.6 509.728 666.224 510.592C664.848 511.424 663.76 512.544 662.96 513.952C662.192 515.36 661.808 516.928 661.808 518.656C661.808 520.352 662.192 521.92 662.96 523.36C663.76 524.768 664.832 525.904 666.176 526.768C667.552 527.6 669.104 528.016 670.832 528.016ZM702.853 532.576C700.421 532.576 698.213 532 696.229 530.848C694.245 529.664 692.661 528.064 691.477 526.048C690.325 524 689.749 521.68 689.749 519.088C689.749 516.528 690.325 514.24 691.477 512.224C692.629 510.208 694.181 508.624 696.133 507.472C698.117 506.288 700.357 505.696 702.853 505.696C705.349 505.696 707.573 506.272 709.525 507.424C711.509 508.576 713.061 510.16 714.181 512.176C715.333 514.192 715.909 516.496 715.909 519.088C715.909 521.712 715.317 524.048 714.133 526.096C712.949 528.112 711.365 529.696 709.381 530.848C707.429 532 705.253 532.576 702.853 532.576ZM702.853 528.976C704.581 528.976 706.133 528.544 707.509 527.68C708.917 526.816 710.021 525.632 710.821 524.128C711.653 522.624 712.069 520.944 712.069 519.088C712.069 517.232 711.653 515.568 710.821 514.096C710.021 512.624 708.917 511.456 707.509 510.592C706.133 509.728 704.581 509.296 702.853 509.296C701.125 509.296 699.557 509.728 698.149 510.592C696.773 511.456 695.669 512.624 694.837 514.096C694.005 515.568 693.589 517.232 693.589 519.088C693.589 520.944 694.005 522.624 694.837 524.128C695.669 525.632 696.773 526.816 698.149 527.68C699.557 528.544 701.125 528.976 702.853 528.976ZM731.63 532.288C729.326 532.288 727.55 531.616 726.302 530.272C725.054 528.928 724.43 527.008 724.43 524.512V509.872H719.678V506.272H720.878C721.966 506.272 722.83 505.92 723.47 505.216C724.11 504.48 724.43 503.568 724.43 502.48V500.32H728.03V506.272H733.694V509.872H728.03V524.512C728.03 525.376 728.158 526.144 728.414 526.816C728.67 527.456 729.102 527.968 729.71 528.352C730.35 528.736 731.198 528.928 732.254 528.928C732.51 528.928 732.814 528.912 733.166 528.88C733.518 528.848 733.822 528.816 734.078 528.784V532C733.694 532.096 733.262 532.16 732.782 532.192C732.302 532.256 731.918 532.288 731.63 532.288ZM748.555 532V495.664H752.155V511.264L751.339 511.072C751.979 509.408 753.019 508.096 754.459 507.136C755.931 506.176 757.627 505.696 759.547 505.696C761.371 505.696 763.003 506.112 764.443 506.944C765.915 507.776 767.067 508.928 767.899 510.4C768.763 511.84 769.195 513.472 769.195 515.296V532H765.595V516.688C765.595 515.12 765.307 513.792 764.731 512.704C764.155 511.616 763.355 510.784 762.331 510.208C761.339 509.6 760.203 509.296 758.923 509.296C757.643 509.296 756.491 509.6 755.467 510.208C754.443 510.784 753.627 511.632 753.019 512.752C752.443 513.84 752.155 515.152 752.155 516.688V532H748.555ZM787.783 532.576C785.383 532.576 783.207 532 781.255 530.848C779.335 529.664 777.815 528.048 776.695 526C775.575 523.952 775.015 521.632 775.015 519.04C775.015 516.448 775.559 514.16 776.647 512.176C777.735 510.16 779.207 508.576 781.063 507.424C782.951 506.272 785.063 505.696 787.399 505.696C789.255 505.696 790.903 506.048 792.343 506.752C793.815 507.424 795.063 508.352 796.087 509.536C797.111 510.688 797.895 512 798.439 513.472C798.983 514.912 799.255 516.4 799.255 517.936C799.255 518.256 799.239 518.624 799.207 519.04C799.175 519.424 799.127 519.824 799.063 520.24H777.319V516.88H796.999L795.271 518.32C795.559 516.56 795.351 514.992 794.647 513.616C793.975 512.208 792.999 511.104 791.719 510.304C790.439 509.472 788.999 509.056 787.399 509.056C785.799 509.056 784.311 509.472 782.935 510.304C781.591 511.136 780.535 512.304 779.767 513.808C778.999 515.28 778.695 517.04 778.855 519.088C778.695 521.136 779.015 522.928 779.815 524.464C780.647 525.968 781.767 527.136 783.175 527.968C784.615 528.8 786.151 529.216 787.783 529.216C789.671 529.216 791.255 528.768 792.535 527.872C793.815 526.976 794.855 525.856 795.655 524.512L798.727 526.144C798.215 527.296 797.431 528.368 796.375 529.36C795.319 530.32 794.055 531.104 792.583 531.712C791.143 532.288 789.543 532.576 787.783 532.576ZM805.602 532V506.272H809.202V510.496L808.722 509.872C809.33 508.656 810.242 507.696 811.458 506.992C812.706 506.288 814.21 505.936 815.97 505.936H817.602V509.536H815.346C813.49 509.536 812.002 510.112 810.882 511.264C809.762 512.416 809.202 514.048 809.202 516.16V532H805.602ZM833.533 532.576C831.133 532.576 828.957 532 827.005 530.848C825.085 529.664 823.565 528.048 822.445 526C821.325 523.952 820.765 521.632 820.765 519.04C820.765 516.448 821.309 514.16 822.397 512.176C823.485 510.16 824.957 508.576 826.813 507.424C828.701 506.272 830.813 505.696 833.149 505.696C835.005 505.696 836.653 506.048 838.093 506.752C839.565 507.424 840.813 508.352 841.837 509.536C842.861 510.688 843.645 512 844.189 513.472C844.733 514.912 845.005 516.4 845.005 517.936C845.005 518.256 844.989 518.624 844.957 519.04C844.925 519.424 844.877 519.824 844.813 520.24H823.069V516.88H842.749L841.021 518.32C841.309 516.56 841.101 514.992 840.397 513.616C839.725 512.208 838.749 511.104 837.469 510.304C836.189 509.472 834.749 509.056 833.149 509.056C831.549 509.056 830.061 509.472 828.685 510.304C827.341 511.136 826.285 512.304 825.517 513.808C824.749 515.28 824.445 517.04 824.605 519.088C824.445 521.136 824.765 522.928 825.565 524.464C826.397 525.968 827.517 527.136 828.925 527.968C830.365 528.8 831.901 529.216 833.533 529.216C835.421 529.216 837.005 528.768 838.285 527.872C839.565 526.976 840.605 525.856 841.405 524.512L844.477 526.144C843.965 527.296 843.181 528.368 842.125 529.36C841.069 530.32 839.805 531.104 838.333 531.712C836.893 532.288 835.293 532.576 833.533 532.576Z" fill="white"/>
<path d="M119.752 606.664L128.872 602.584L119.752 598.504V596.44L130.672 601.312V603.856L119.752 608.728V606.664ZM154.221 610.288C153.149 610.288 152.205 610.104 151.389 609.736C150.589 609.352 149.957 608.84 149.493 608.2C149.029 607.544 148.765 606.808 148.701 605.992L150.813 605.848C150.941 606.648 151.293 607.272 151.869 607.72C152.445 608.152 153.229 608.368 154.221 608.368C155.181 608.368 155.917 608.232 156.429 607.96C156.941 607.672 157.197 607.248 157.197 606.688C157.197 606.304 157.109 606 156.933 605.776C156.757 605.536 156.429 605.336 155.949 605.176C155.485 605 154.781 604.832 153.837 604.672C152.621 604.464 151.661 604.192 150.957 603.856C150.269 603.52 149.773 603.112 149.469 602.632C149.181 602.152 149.037 601.552 149.037 600.832C149.037 599.696 149.461 598.776 150.309 598.072C151.157 597.352 152.341 596.992 153.861 596.992C155.349 596.992 156.525 597.376 157.389 598.144C158.269 598.912 158.813 599.888 159.021 601.072L156.909 601.216C156.765 600.512 156.421 599.952 155.877 599.536C155.349 599.12 154.669 598.912 153.837 598.912C152.941 598.912 152.261 599.088 151.797 599.44C151.333 599.792 151.101 600.256 151.101 600.832C151.101 601.264 151.205 601.608 151.413 601.864C151.621 602.104 151.941 602.304 152.373 602.464C152.821 602.608 153.453 602.752 154.269 602.896C155.581 603.104 156.597 603.368 157.317 603.688C158.037 604.008 158.541 604.408 158.829 604.888C159.117 605.352 159.261 605.952 159.261 606.688C159.261 607.792 158.789 608.672 157.845 609.328C156.901 609.968 155.693 610.288 154.221 610.288ZM162.132 597.28H163.98L164.028 599.152C164.252 598.464 164.58 597.936 165.012 597.568C165.444 597.184 165.956 596.992 166.548 596.992C167.86 596.992 168.66 597.824 168.948 599.488C169.156 598.704 169.5 598.096 169.98 597.664C170.46 597.216 171.028 596.992 171.684 596.992C172.708 596.992 173.452 597.352 173.916 598.072C174.38 598.792 174.612 599.968 174.612 601.6V610H172.596V601.84C172.596 600.736 172.476 599.952 172.236 599.488C171.996 599.008 171.62 598.768 171.108 598.768C170.58 598.768 170.156 599.032 169.836 599.56C169.532 600.072 169.38 600.848 169.38 601.888V610H167.364V601.84C167.364 600.752 167.244 599.968 167.004 599.488C166.78 599.008 166.404 598.768 165.876 598.768C165.348 598.768 164.924 599.032 164.604 599.56C164.3 600.072 164.148 600.848 164.148 601.888V610H162.132V597.28ZM177.483 608.224H182.595V599.056H177.723V597.28H184.611V608.224H189.003V610H177.483V608.224ZM182.403 592.936H184.515V595.288H182.403V592.936ZM196.985 596.368C196.985 595.856 196.841 595.456 196.553 595.168C196.265 594.88 195.865 594.736 195.353 594.736H192.353V592.96H195.449C196.617 592.96 197.497 593.264 198.089 593.872C198.697 594.464 199.001 595.344 199.001 596.512V608.224H203.393V610H191.873V608.224H196.985V596.368ZM211.76 610.288C210.576 610.288 209.544 610.016 208.664 609.472C207.784 608.928 207.104 608.16 206.624 607.168C206.16 606.16 205.928 604.984 205.928 603.64C205.928 602.312 206.16 601.144 206.624 600.136C207.104 599.128 207.776 598.352 208.64 597.808C209.504 597.264 210.512 596.992 211.664 596.992C212.768 596.992 213.744 597.256 214.592 597.784C215.456 598.296 216.12 599.056 216.584 600.064C217.064 601.072 217.304 602.272 217.304 603.664V604.264H208.04C208.104 605.608 208.456 606.632 209.096 607.336C209.752 608.024 210.64 608.368 211.76 608.368C212.576 608.368 213.248 608.184 213.776 607.816C214.32 607.432 214.704 606.904 214.928 606.232L217.088 606.4C216.752 607.568 216.104 608.512 215.144 609.232C214.2 609.936 213.072 610.288 211.76 610.288ZM215.096 602.488C215 601.304 214.648 600.416 214.04 599.824C213.432 599.216 212.64 598.912 211.664 598.912C210.672 598.912 209.856 599.216 209.216 599.824C208.592 600.432 208.2 601.32 208.04 602.488H215.096ZM235.045 597.28H236.917L236.941 599.32C237.325 598.568 237.853 597.992 238.525 597.592C239.213 597.192 239.989 596.992 240.853 596.992C242.069 596.992 243.085 597.296 243.901 597.904C244.717 598.496 245.325 599.296 245.725 600.304C246.125 601.312 246.325 602.424 246.325 603.64C246.325 604.856 246.125 605.968 245.725 606.976C245.325 607.984 244.717 608.792 243.901 609.4C243.085 609.992 242.069 610.288 240.853 610.288C240.021 610.288 239.261 610.112 238.573 609.76C237.901 609.408 237.397 608.928 237.061 608.32V613.6H235.045V597.28ZM240.661 608.368C241.765 608.368 242.629 607.952 243.253 607.12C243.893 606.288 244.213 605.128 244.213 603.64C244.213 602.152 243.893 600.992 243.253 600.16C242.629 599.328 241.765 598.912 240.661 598.912C239.541 598.912 238.661 599.32 238.021 600.136C237.381 600.936 237.061 602.104 237.061 603.64C237.061 605.176 237.373 606.352 237.997 607.168C238.637 607.968 239.525 608.368 240.661 608.368ZM254.548 596.368C254.548 595.856 254.404 595.456 254.116 595.168C253.828 594.88 253.428 594.736 252.916 594.736H249.916V592.96H253.012C254.18 592.96 255.06 593.264 255.652 593.872C256.26 594.464 256.564 595.344 256.564 596.512V608.224H260.956V610H249.436V608.224H254.548V596.368ZM269.322 610.288C268.138 610.288 267.106 610.016 266.226 609.472C265.346 608.928 264.666 608.16 264.186 607.168C263.722 606.16 263.49 604.984 263.49 603.64C263.49 602.312 263.722 601.144 264.186 600.136C264.666 599.128 265.338 598.352 266.202 597.808C267.066 597.264 268.074 596.992 269.226 596.992C270.33 596.992 271.306 597.256 272.154 597.784C273.018 598.296 273.682 599.056 274.146 600.064C274.626 601.072 274.866 602.272 274.866 603.664V604.264H265.602C265.666 605.608 266.018 606.632 266.658 607.336C267.314 608.024 268.202 608.368 269.322 608.368C270.138 608.368 270.81 608.184 271.338 607.816C271.882 607.432 272.266 606.904 272.49 606.232L274.65 606.4C274.314 607.568 273.666 608.512 272.706 609.232C271.762 609.936 270.634 610.288 269.322 610.288ZM272.658 602.488C272.562 601.304 272.21 600.416 271.602 599.824C270.994 599.216 270.202 598.912 269.226 598.912C268.234 598.912 267.418 599.216 266.778 599.824C266.154 600.432 265.762 601.32 265.602 602.488H272.658ZM281.817 610.288C280.601 610.288 279.593 609.968 278.793 609.328C277.993 608.688 277.593 607.856 277.593 606.832C277.593 605.76 277.913 604.92 278.553 604.312C279.193 603.704 280.217 603.264 281.625 602.992L285.897 602.128C285.897 601.056 285.657 600.256 285.177 599.728C284.697 599.184 283.993 598.912 283.065 598.912C282.201 598.912 281.513 599.104 281.001 599.488C280.505 599.872 280.161 600.44 279.969 601.192L277.833 601.024C278.073 599.792 278.649 598.816 279.561 598.096C280.489 597.36 281.657 596.992 283.065 596.992C284.601 596.992 285.793 597.456 286.641 598.384C287.489 599.296 287.913 600.56 287.913 602.176V607.456C287.913 607.744 287.969 607.944 288.081 608.056C288.209 608.168 288.409 608.224 288.681 608.224H289.497V610C289.241 610.032 288.889 610.048 288.441 610.048C287.737 610.048 287.177 609.904 286.761 609.616C286.361 609.312 286.097 608.84 285.969 608.2C285.617 608.824 285.065 609.328 284.313 609.712C283.561 610.096 282.729 610.288 281.817 610.288ZM282.009 608.512C283.273 608.512 284.233 608.192 284.889 607.552C285.561 606.912 285.897 606.048 285.897 604.96V603.856L282.009 604.624C281.161 604.784 280.561 605.024 280.209 605.344C279.873 605.664 279.705 606.096 279.705 606.64C279.705 607.232 279.905 607.696 280.305 608.032C280.721 608.352 281.289 608.512 282.009 608.512ZM298.128 610.288C297.056 610.288 296.112 610.104 295.296 609.736C294.496 609.352 293.864 608.84 293.4 608.2C292.936 607.544 292.672 606.808 292.608 605.992L294.72 605.848C294.848 606.648 295.2 607.272 295.776 607.72C296.352 608.152 297.136 608.368 298.128 608.368C299.088 608.368 299.824 608.232 300.336 607.96C300.848 607.672 301.104 607.248 301.104 606.688C301.104 606.304 301.016 606 300.84 605.776C300.664 605.536 300.336 605.336 299.856 605.176C299.392 605 298.688 604.832 297.743 604.672C296.528 604.464 295.568 604.192 294.864 603.856C294.176 603.52 293.68 603.112 293.376 602.632C293.088 602.152 292.944 601.552 292.944 600.832C292.944 599.696 293.368 598.776 294.215 598.072C295.064 597.352 296.248 596.992 297.768 596.992C299.256 596.992 300.432 597.376 301.296 598.144C302.176 598.912 302.72 599.888 302.928 601.072L300.816 601.216C300.672 600.512 300.328 599.952 299.784 599.536C299.256 599.12 298.576 598.912 297.743 598.912C296.848 598.912 296.168 599.088 295.704 599.44C295.24 599.792 295.008 600.256 295.008 600.832C295.008 601.264 295.112 601.608 295.32 601.864C295.528 602.104 295.848 602.304 296.28 602.464C296.728 602.608 297.36 602.752 298.176 602.896C299.488 603.104 300.504 603.368 301.224 603.688C301.944 604.008 302.448 604.408 302.736 604.888C303.024 605.352 303.168 605.952 303.168 606.688C303.168 607.792 302.696 608.672 301.752 609.328C300.808 609.968 299.6 610.288 298.128 610.288ZM312.494 610.288C311.31 610.288 310.278 610.016 309.398 609.472C308.518 608.928 307.838 608.16 307.358 607.168C306.894 606.16 306.662 604.984 306.662 603.64C306.662 602.312 306.894 601.144 307.358 600.136C307.838 599.128 308.51 598.352 309.374 597.808C310.238 597.264 311.246 596.992 312.398 596.992C313.502 596.992 314.478 597.256 315.326 597.784C316.19 598.296 316.854 599.056 317.318 600.064C317.798 601.072 318.038 602.272 318.038 603.664V604.264H308.774C308.838 605.608 309.19 606.632 309.83 607.336C310.486 608.024 311.374 608.368 312.494 608.368C313.31 608.368 313.982 608.184 314.51 607.816C315.054 607.432 315.438 606.904 315.662 606.232L317.822 606.4C317.486 607.568 316.838 608.512 315.878 609.232C314.934 609.936 313.806 610.288 312.494 610.288ZM315.83 602.488C315.734 601.304 315.382 600.416 314.774 599.824C314.166 599.216 313.374 598.912 312.398 598.912C311.406 598.912 310.59 599.216 309.95 599.824C309.326 600.432 308.934 601.32 308.774 602.488H315.83ZM339.619 607.12H342.499V610H339.619V607.12ZM339.619 597.856H342.499V600.736H339.619V597.856ZM351.874 612.16C353.234 610.592 354.258 608.936 354.946 607.192C355.634 605.432 355.978 603.648 355.978 601.84C355.978 600.032 355.634 598.256 354.946 596.512C354.258 594.752 353.234 593.088 351.874 591.52H353.602C355.09 593.024 356.21 594.656 356.962 596.416C357.73 598.176 358.114 599.984 358.114 601.84C358.114 603.68 357.73 605.488 356.962 607.264C356.21 609.024 355.09 610.656 353.602 612.16H351.874Z" fill="#EFFFAE"/>
</g>
<defs>
<filter id="filter0_f_50_487" x="-138.1" y="440.9" width="537.757" height="459.387" filterUnits="userSpaceOnUse" color-interpolation-filters="sRGB">
<feFlood flood-opacity="0" result="BackgroundImageFix"/>
<feBlend mode="normal" in="SourceGraphic" in2="BackgroundImageFix" result="shape"/>
<feGaussianBlur stdDeviation="71.05" result="effect1_foregroundBlur_50_487"/>
</filter>
<filter id="filter1_f_50_487" x="75.4" y="642.507" width="626.257" height="496.141" filterUnits="userSpaceOnUse" color-interpolation-filters="sRGB">
<feFlood flood-opacity="0" result="BackgroundImageFix"/>
<feBlend mode="normal" in="SourceGraphic" in2="BackgroundImageFix" result="shape"/>
<feGaussianBlur stdDeviation="71.05" result="effect1_foregroundBlur_50_487"/>
</filter>
<filter id="filter2_f_50_487" x="-34.5102" y="457.324" width="675.459" height="502.03" filterUnits="userSpaceOnUse" color-interpolation-filters="sRGB">
<feFlood flood-opacity="0" result="BackgroundImageFix"/>
<feBlend mode="normal" in="SourceGraphic" in2="BackgroundImageFix" result="shape"/>
<feGaussianBlur stdDeviation="71.05" result="effect1_foregroundBlur_50_487"/>
</filter>
<filter id="filter3_f_50_487" x="-59.6" y="542.025" width="687.7" height="460.074" filterUnits="userSpaceOnUse" color-interpolation-filters="sRGB">
<feFlood flood-opacity="0" result="BackgroundImageFix"/>
<feBlend mode="normal" in="SourceGraphic" in2="BackgroundImageFix" result="shape"/>
<feGaussianBlur stdDeviation="71.05" result="effect1_foregroundBlur_50_487"/>
</filter>
<filter id="filter4_f_50_487" x="176.9" y="-120.1" width="537.757" height="459.387" filterUnits="userSpaceOnUse" color-interpolation-filters="sRGB">
<feFlood flood-opacity="0" result="BackgroundImageFix"/>
<feBlend mode="normal" in="SourceGraphic" in2="BackgroundImageFix" result="shape"/>
<feGaussianBlur stdDeviation="71.05" result="effect1_foregroundBlur_50_487"/>
</filter>
<filter id="filter5_f_50_487" x="390.4" y="81.5072" width="626.257" height="496.141" filterUnits="userSpaceOnUse" color-interpolation-filters="sRGB">
<feFlood flood-opacity="0" result="BackgroundImageFix"/>
<feBlend mode="normal" in="SourceGraphic" in2="BackgroundImageFix" result="shape"/>
<feGaussianBlur stdDeviation="71.05" result="effect1_foregroundBlur_50_487"/>
</filter>
<filter id="filter6_f_50_487" x="186.9" y="182.9" width="675.459" height="502.03" filterUnits="userSpaceOnUse" color-interpolation-filters="sRGB">
<feFlood flood-opacity="0" result="BackgroundImageFix"/>
<feBlend mode="normal" in="SourceGraphic" in2="BackgroundImageFix" result="shape"/>
<feGaussianBlur stdDeviation="71.05" result="effect1_foregroundBlur_50_487"/>
</filter>
<filter id="filter7_f_50_487" x="108.9" y="20.9" width="687.7" height="460.074" filterUnits="userSpaceOnUse" color-interpolation-filters="sRGB">
<feFlood flood-opacity="0" result="BackgroundImageFix"/>
<feBlend mode="normal" in="SourceGraphic" in2="BackgroundImageFix" result="shape"/>
<feGaussianBlur stdDeviation="71.05" result="effect1_foregroundBlur_50_487"/>
</filter>
<clipPath id="clip0_50_487">
<rect width="534" height="792" fill="white"/>
</clipPath>
</defs>
</svg>
