<svg width="154" height="154" viewBox="0 0 154 154" fill="none" xmlns="http://www.w3.org/2000/svg">
<path d="M85.4528 58.2562C85.3854 58.3137 85.3214 58.3751 85.2612 58.4401C85.0082 58.6471 84.6326 58.8157 84.4947 58.6778C84.4271 58.5654 84.3755 58.4441 84.3413 58.3175C84.1614 57.7397 83.9516 57.1717 83.7128 56.6158C83.6986 56.5944 83.6764 56.5796 83.6513 56.5746C83.6261 56.5696 83.6 56.5747 83.5787 56.589C83.5573 56.6032 83.5425 56.6253 83.5375 56.6505C83.5324 56.6756 83.5376 56.7018 83.5518 56.7231C83.6915 57.4991 83.95 58.2489 84.3184 58.946C84.4389 59.0158 84.5744 59.0557 84.7136 59.0624C84.8527 59.0692 84.9914 59.0426 85.1182 58.9848C85.245 58.9271 85.3561 58.8398 85.4423 58.7304C85.5285 58.621 85.5873 58.4926 85.6138 58.3558C85.6138 58.2562 85.5525 58.2025 85.4528 58.2562ZM87.7601 58.8157C87.8061 60.3488 86.9935 61.0003 85.6061 60.8317C85.5831 60.8317 85.5608 60.8397 85.5429 60.8543C85.5251 60.8689 85.5129 60.8892 85.5084 60.9118C85.5039 60.9344 85.5073 60.9579 85.5182 60.9782C85.529 60.9985 85.5465 61.0145 85.5678 61.0233C85.8855 61.1384 86.2288 61.1633 86.5598 61.0954C86.8908 61.0275 87.1965 60.8694 87.4433 60.6385C87.69 60.4077 87.868 60.1131 87.9578 59.7873C88.0475 59.4616 88.0454 59.1174 87.9517 58.7927C87.9437 58.7721 87.929 58.7548 87.9101 58.7434C87.8911 58.7321 87.8689 58.7273 87.847 58.7299C87.825 58.7326 87.8046 58.7424 87.7889 58.758C87.7731 58.7735 87.763 58.7938 87.7601 58.8157ZM86.3113 53.7643C86.1427 53.8103 86.089 54.1246 86.204 54.4695C86.319 54.8144 86.5336 55.0521 86.7099 55.0061C86.8862 54.9601 86.9246 54.6458 86.8172 54.3009C86.7099 53.9559 86.48 53.7183 86.3113 53.7643ZM87.1009 52.4919C87.1545 52.5378 87.2388 52.4918 87.1928 52.4152C86.4263 51.3804 85.2305 51.7177 85.1462 52.7371C85.1462 52.7985 85.2382 52.8215 85.2612 52.7371C85.5755 51.8786 86.3497 51.756 87.1009 52.4919ZM80.961 55.7879C80.7923 55.8569 80.7846 56.1789 80.961 56.5008C81.1373 56.8227 81.3672 57.0374 81.5358 56.9684C81.7045 56.8994 81.7045 56.5851 81.5358 56.2632C81.3672 55.9412 81.1219 55.7266 80.961 55.7879ZM79.7652 55.19C79.7652 55.19 79.8112 55.19 79.8342 55.144C79.8486 55.0067 79.8915 54.8739 79.96 54.754C80.0286 54.6341 80.1213 54.5298 80.2323 54.4476C80.3433 54.3654 80.4701 54.3072 80.6048 54.2767C80.7395 54.2462 80.879 54.2439 81.0146 54.2702C81.4285 54.1936 80.1944 53.703 79.7958 54.6535C79.7192 54.7301 79.6502 55.1211 79.7652 55.19Z" fill="#FDFFA1"/>
<path d="M66.9412 87.8749C66.9412 88.4624 67.1729 89.0259 67.5855 89.4413C67.9981 89.8568 68.5576 90.0902 69.1411 90.0902C69.7246 90.0902 70.2841 89.8568 70.6967 89.4413C71.1093 89.0259 71.341 88.4624 71.341 87.8749C71.341 87.2874 71.1093 86.7239 70.6967 86.3085C70.2841 85.893 69.7246 85.6596 69.1411 85.6596C68.5576 85.6596 67.9981 85.893 67.5855 86.3085C67.1729 86.7239 66.9412 87.2874 66.9412 87.8749Z" fill="#FDFFA1"/>
<path d="M115.041 96.2684C117.072 95.5019 128.072 94.5284 139.953 95.6399C139.97 95.6345 139.985 95.6238 139.996 95.6094C140.007 95.5949 140.012 95.5774 140.012 95.5594C140.012 95.5414 140.007 95.5239 139.996 95.5095C139.985 95.495 139.97 95.4843 139.953 95.4789C128.455 94.2295 117.356 95.1263 114.964 96.1228C114.955 96.1278 114.946 96.1347 114.939 96.143C114.932 96.1513 114.927 96.1609 114.924 96.1712C114.921 96.1816 114.92 96.1924 114.921 96.2032C114.922 96.2139 114.925 96.2244 114.93 96.234C114.935 96.2435 114.942 96.252 114.95 96.2589C114.958 96.2658 114.968 96.271 114.978 96.2742C114.989 96.2774 114.999 96.2786 115.01 96.2776C115.021 96.2766 115.031 96.2735 115.041 96.2684ZM139.026 98.8823C139.043 98.877 139.058 98.8663 139.068 98.8518C139.079 98.8373 139.085 98.8198 139.085 98.8018C139.085 98.7839 139.079 98.7664 139.068 98.7519C139.058 98.7374 139.043 98.7267 139.026 98.7213C128.041 97.4719 118.582 97.9548 114.872 98.7213C114.852 98.7213 114.832 98.7294 114.818 98.7438C114.804 98.7582 114.796 98.7777 114.796 98.798C114.796 98.8183 114.804 98.8378 114.818 98.8522C114.832 98.8666 114.852 98.8747 114.872 98.8747C118.391 98.2614 128.087 97.8092 139.026 98.8823ZM138.742 102.025C131.728 101.205 122.553 100.691 115.578 101.259C115.56 101.264 115.545 101.275 115.535 101.289C115.524 101.304 115.518 101.321 115.518 101.339C115.518 101.357 115.524 101.375 115.535 101.389C115.545 101.403 115.56 101.414 115.578 101.42C123.3 101.133 131.033 101.389 138.719 102.186C138.737 102.184 138.754 102.175 138.768 102.163C138.781 102.15 138.789 102.133 138.792 102.114C138.795 102.096 138.791 102.077 138.782 102.061C138.773 102.045 138.759 102.032 138.742 102.025ZM145.641 99.4572C145.641 99.3499 145.503 99.3269 145.48 99.4572C144.752 103.098 142.337 106.003 141.548 102.884C141.401 102.026 141.401 101.15 141.548 100.293C142.314 95.4253 146.147 94.2141 144.453 99.7562C143.502 102.991 142.046 102.738 143.058 99.0586C143.502 97.5256 143.901 97.4719 143.732 97.3569C143.726 97.3489 143.718 97.3425 143.708 97.338C143.699 97.3336 143.689 97.3313 143.679 97.3313C143.668 97.3313 143.658 97.3336 143.649 97.338C143.64 97.3425 143.631 97.3489 143.625 97.3569C143.282 97.8556 143.023 98.4071 142.858 98.9896C142.598 99.9018 142.161 102.309 143.058 102.24C144.2 102.178 145.633 97.7708 144.805 96.2301C143.977 94.6894 141.785 96.6977 141.241 100.231C140.344 106.065 144.568 105.781 145.641 99.4572ZM135.093 127.896C135.093 129.107 136.067 130.072 137.738 130.195C141.333 130.44 141.279 128.317 141.502 124.622C141.555 123.726 141.609 122.606 141.617 121.71C139.646 121.284 137.644 121.028 135.63 120.943C135.615 121.112 134.909 126.201 135.093 127.896Z" fill="#FDFFA1"/>
<path d="M144.108 111.791C144.062 109.782 144.031 107.743 142.674 106.264C143.658 105.907 144.477 105.2 144.974 104.279C145.638 103.185 146.108 101.984 146.361 100.73C146.875 98.3228 146.768 94.3599 144.545 93.8309C143.87 93.693 142.329 93.5167 140.674 93.3634V10.3864L140.428 9.95717H5.76428V106.18H20.2824V107.713C16.2351 108.142 6.31618 110.051 4.07025 113.416C3.87428 113.749 3.79094 114.136 3.83262 114.52C3.80434 115.094 3.94562 115.665 4.23889 116.16C4.58382 116.536 5.00542 116.497 5.46533 116.513C5.57265 117.072 5.85626 118.414 6.05556 119.011C6.09403 119.243 6.21416 119.453 6.39416 119.603C6.57417 119.754 6.80213 119.835 7.03672 119.832L10.1028 119.962C10.2715 122.967 10.5321 125.956 10.8694 128.938C11.2809 132.19 11.872 135.417 12.6401 138.604C12.7041 138.811 12.8278 138.993 12.9955 139.13C13.1633 139.266 13.3677 139.35 13.5829 139.371C18.527 139.731 18.5577 139.731 19.1019 139.371C19.3625 139.217 25.5101 131.966 25.6404 131.437C25.7094 131.169 26.2383 121.472 26.2996 120.598V120.552L81.5588 122.668C81.8192 128.881 82.635 135.058 83.9964 141.126C84.0384 141.418 84.1759 141.687 84.3873 141.892C84.6162 142.087 84.9072 142.193 85.2075 142.191L89.7454 142.345C90.0505 142.403 90.3656 142.379 90.6589 142.277C90.9522 142.175 91.2135 141.997 91.4164 141.762C96.7821 134.633 97.1041 134.434 97.1961 134.235C97.357 133.874 98.0929 123.411 98.1006 123.243C98.2845 123.243 100.607 123.342 100.791 123.289C100.911 123.265 101.022 123.211 101.114 123.132C101.207 123.052 101.278 122.951 101.32 122.836C102.285 121.909 103.149 120.881 103.896 119.77C104.47 117.126 104.455 117.271 104.386 117.034C104.354 116.925 104.298 116.824 104.223 116.739C104.147 116.655 104.054 116.588 103.949 116.543C103.641 116.451 103.32 116.412 102.999 116.428C105.835 113.362 106.877 110.986 107.222 106.831H113.447C111.998 109.775 110.38 113.991 111.216 116.681C111.576 116.75 116.497 117.823 120.56 118.26L120.729 116.681C120.744 116.544 120.813 116.419 120.921 116.332C121.029 116.246 121.166 116.206 121.303 116.221L124.37 116.566C124.505 116.582 124.629 116.65 124.715 116.756C124.801 116.862 124.842 116.998 124.829 117.133L124.699 118.628C127.486 118.81 130.282 118.81 133.07 118.628C133.583 115.225 134.787 107.468 137.217 104.946C137.286 104.869 137.554 105.022 137.454 105.168C137.201 105.521 135.063 106.885 133.292 123.71C132.748 128.846 131.759 138.512 135.86 141.501C136.289 141.816 136.036 142.069 135.599 141.785C131.169 138.918 131.92 128.861 132.456 123.557C132.602 122.062 132.748 120.813 132.962 119.318C130.199 119.517 127.424 119.517 124.661 119.318L124.5 120.943C124.493 121.014 124.472 121.083 124.438 121.146C124.404 121.209 124.358 121.264 124.302 121.308C124.246 121.353 124.182 121.385 124.113 121.404C124.045 121.423 123.973 121.428 123.902 121.418L120.752 120.958C120.618 120.938 120.498 120.866 120.415 120.759C120.332 120.653 120.294 120.518 120.307 120.384L120.445 118.919C117.322 118.604 114.227 118.056 111.185 117.279C110.902 118.429 107.675 131.782 110.227 138.136C112.189 143.012 128.225 143.717 135.063 143.264C136.32 143.175 137.533 142.762 138.585 142.067C139.636 141.371 140.49 140.416 141.065 139.294C143.993 143.717 146.047 141.662 147.864 139.83C148.286 139.018 148.595 138.151 148.784 137.255C150.478 129.59 149.159 118.046 144.108 111.791ZM123.013 124.477C122.354 125.496 120.161 124.477 120.161 124.477C121.227 124.339 121.027 121.786 121.027 121.786L123.542 122.185C123.59 122.988 123.395 123.787 122.982 124.477H123.013ZM146.147 100.714C145.89 101.937 145.426 103.106 144.775 104.171C144.23 104.999 143.441 105.934 142.475 106.08C141.967 105.615 141.37 105.257 140.72 105.03C139.662 103.144 139.777 98.9744 141.655 95.9542C144.353 91.585 147.358 95.0497 146.116 100.684L146.147 100.714ZM102.454 66.6114H123.641C130.318 68.8497 136.879 70.5361 140.114 71.3639V76.3464H112.58C110.296 69.6469 105.268 67.5313 102.416 66.5808L102.454 66.6114ZM51.4495 116.72L49.4719 117.678C49.5332 117.471 49.4719 117.463 49.2496 115.378C50.5771 114.064 52.0719 112.93 53.6954 112.005C52.6376 113.025 51.5722 114.458 51.4648 115.539C51.4232 115.931 51.418 116.326 51.4495 116.72ZM54.9372 111.354C56.4692 111.96 58.0519 112.43 59.6667 112.757C66.2359 114.083 81.7198 113.722 81.7198 113.239V113.056C84.6479 113.132 88.381 115.593 90.8185 115.593C92.5509 115.593 92.6659 114.144 92.0603 112.527C94.5095 111.955 96.855 111.006 99.0127 109.713C100.842 109.649 102.674 109.72 104.493 109.928C104.493 110.051 104.409 110.181 104.363 110.304C103.451 112.772 99.9096 116.873 97.6176 117.034C97.403 117.034 51.8404 115.347 51.8174 115.347C52.1241 114.029 53.7798 112.136 54.9372 111.361V111.354ZM26.9589 75.2886C28.9902 72.1995 35.2604 72.0538 40.2275 72.0538C46.5937 72.0544 52.9552 72.4024 59.2834 73.0963C63.8366 73.7478 64.1203 73.8628 65.1627 78.7533L56.432 78.9449C56.146 78.9518 55.8655 79.024 55.6116 79.1558C55.3578 79.2877 55.1375 79.4757 54.9674 79.7057C54.7973 79.9357 54.6821 80.2014 54.6303 80.4827C54.5786 80.764 54.5918 81.0534 54.6689 81.3288L55.3741 83.9197C50.7545 83.2706 46.102 82.8816 41.4386 82.7546C37.238 82.5859 31.2821 82.4786 27.1658 83.3601C27.1394 83.3652 27.1161 83.3806 27.101 83.4029C27.0859 83.4252 27.0802 83.4525 27.0853 83.4789C27.0904 83.5054 27.1058 83.5287 27.1281 83.5438C27.1503 83.5589 27.1777 83.5645 27.2041 83.5594C31.1518 82.7929 37.4143 82.9692 41.4233 83.1532C44.9263 83.3065 51.9324 83.7051 55.4585 84.2187L57.4361 91.4164C52.561 90.6498 47.6015 92.8881 46.1298 97.5486C41.8372 97.2497 31.1211 95.9389 24.4216 97.2573C24.4125 97.2591 24.4038 97.2628 24.396 97.2681C24.3883 97.2733 24.3817 97.2801 24.3767 97.288C24.3717 97.2959 24.3683 97.3047 24.3668 97.3139C24.3653 97.3232 24.3657 97.3326 24.368 97.3417C24.368 97.518 24.5826 97.2727 27.1505 97.1194C32.5775 96.7821 40.948 97.518 46.0301 97.8859C44.8267 102.355 46.72 106.241 50.6293 109.031C40.6632 108.074 30.6543 107.632 20.6426 107.705C20.5555 101.358 21.118 95.0194 22.3213 88.7872C23.6551 82.2563 26.062 76.653 26.9589 75.2886ZM51.6181 32.7615C63.3614 29.841 78.968 27.549 97.7326 25.3644C97.7326 40.9557 97.6713 51.6948 97.7326 62.3419C93.3327 53.7721 95.1341 41.8755 85.5295 42.4121C84.3676 42.4696 83.2295 42.7629 82.1845 43.2741C81.1396 43.7853 80.2095 44.5037 79.4509 45.3856C78.6923 46.2675 78.121 47.2946 77.7718 48.4042C77.4226 49.5139 77.3027 50.683 77.4196 51.8404C77.4656 52.4076 77.5115 52.9365 77.5805 53.4348C76.63 54.7992 77.021 57.1601 78.5387 58.6549C79.0404 60.8119 79.0796 63.0507 78.6537 65.224C77.8871 65.4923 77.2356 65.7836 76.5687 66.0979C68.0219 66.0979 61.0541 66.0979 51.6258 65.5536C51.6411 56.2786 51.6411 43.6079 51.6181 32.7615ZM51.1199 65.523C42.6881 64.9941 21.3325 63.3384 15.2079 57.3977C14.422 56.7164 13.8097 55.8577 13.4217 54.8926C13.0338 53.9274 12.8815 52.8838 12.9773 51.8481C13.3146 49.2035 15.7138 47.0879 17.9215 45.5778C21.2175 45.5778 34.4402 45.5778 37.7669 45.5242C49.8705 45.2252 46.7047 41.8985 49.8858 33.1984L51.1046 32.8841C51.0892 43.7535 51.0816 56.1253 51.1199 65.523ZM104.087 54.0787C103.972 51.4648 107.92 49.9394 110.465 49.2649C119.31 46.9193 131.077 46.0608 140.114 46.1221V65.9752C132.698 64.2736 125.479 61.8048 118.575 58.6089C116.217 57.5933 113.939 56.4018 111.76 55.0445C111.734 55.0317 111.704 55.0288 111.675 55.0362C111.647 55.0436 111.622 55.061 111.606 55.085C111.589 55.1091 111.582 55.1383 111.585 55.1674C111.588 55.1966 111.601 55.2236 111.622 55.2438C113.758 56.7017 116.024 57.9591 118.391 58.9998C125.33 62.2698 132.618 64.7436 140.114 66.3738V70.973C133.545 69.1947 104.432 61.6443 104.087 54.0787ZM140.114 45.7158C131.023 45.6545 119.234 46.4823 110.357 48.8739C107.575 49.6405 103.589 51.2195 103.673 54.0863C103.804 58.6242 113.086 62.9398 122.507 66.1899H101.182C99.9709 65.7913 98.8824 64.3655 98.2079 63.2694C98.2462 54.8912 98.2462 50.9512 98.2079 25.3261C123.68 23.3025 136.381 23.8697 140.114 23.793V45.7158ZM101.228 87.1085C94.0609 86.4876 90.2896 88.7948 84.3643 89.5844L85.6368 95.0804C84.1957 95.9159 82.6933 96.8511 81.2599 97.7556L61.5141 98.3611C61.0292 98.3727 60.5531 98.2306 60.1539 97.9552C59.7546 97.6799 59.4526 97.2854 59.2911 96.8281C67.47 96.6058 79.2822 96.1535 80.4627 96.1075C80.4871 96.1075 80.5105 96.0979 80.5277 96.0806C80.545 96.0634 80.5547 96.04 80.5547 96.0156C80.5547 95.9912 80.545 95.9678 80.5277 95.9505C80.5105 95.9333 80.4871 95.9236 80.4627 95.9236C75.8635 96.0462 67.194 96.2608 59.2145 96.5521C55.6348 83.5211 55.8034 84.1803 55.8264 84.1037C55.8282 84.0774 55.8236 84.0511 55.8129 84.0271C55.8022 84.003 55.7858 83.9819 55.7651 83.9657L54.9985 81.2138C54.9292 80.985 54.9143 80.7432 54.9552 80.5076C54.996 80.272 55.0913 80.0492 55.2336 79.8571C55.3758 79.6649 55.5611 79.5087 55.7745 79.4009C55.9879 79.2931 56.2235 79.2367 56.4626 79.2362L76.3924 78.8069C76.0949 77.397 75.6424 76.0242 75.0433 74.7137C74.7367 73.9471 75.3423 74.0315 75.5646 74.4914C76.2964 75.8497 76.8552 77.2944 77.2279 78.7916L80.1561 78.7226C80.6239 78.7198 81.0789 78.8749 81.4476 79.1628C81.8163 79.4508 82.0769 79.8548 82.1874 80.3093L84.1344 88.7029C88.6646 88.0666 92.5662 86.4952 97.2574 86.2653C98.6908 80.616 99.9862 74.614 104.493 70.9347C104.984 70.5437 105.314 70.9807 104.808 71.3639C102.401 73.2113 101.335 75.6718 100.415 78.2627C99.3883 81.1449 98.8824 83.935 98.2615 86.1503C99.2868 86.1175 100.313 86.1765 101.328 86.3266C102.462 86.5259 101.834 87.1391 101.228 87.0931V87.1085ZM80.6926 98.1159C77.7875 99.9555 74.9053 101.818 71.9235 103.482C69.8462 102.033 68.0909 100.53 65.5843 98.5681L80.6926 98.1159ZM65.4923 78.7073C65.3237 77.8794 65.1627 77.1742 65.0018 76.5917H67.3014C67.0791 77.2586 66.8798 77.9561 66.7111 78.6843L65.4923 78.7073ZM81.8808 44.9263C81.6791 46.1867 81.7523 47.4758 82.0954 48.7053C82.1567 48.9199 82.448 48.5597 83.7741 48.4293C85.3777 48.3048 86.9725 48.7614 88.2673 49.7156C89.562 50.6697 90.4703 52.0579 90.8262 53.6264L90.0137 53.7107C89.6764 51.1275 87.6298 49.4948 85.8514 49.9241C84.0731 50.3533 82.9386 52.6146 83.8508 55.2055C83.5394 55.2224 83.2414 55.3378 82.9999 55.5351C82.3714 53.6571 80.4857 52.124 78.7917 52.5609V51.5798C79.3732 50.63 80.1819 49.8397 81.1449 49.2802C81.1616 49.2721 81.1752 49.2587 81.1835 49.242C81.1919 49.2254 81.1944 49.2065 81.1909 49.1882C81.0753 47.7328 81.3119 46.2709 81.8808 44.9263ZM85.3378 66.3892C85.1882 65.6158 84.9649 64.8586 84.6709 64.1279C87.4381 64.7871 89.9907 62.7865 91.1635 60.1113C91.4624 61.1614 92.4819 63.9899 94.9425 65.0017C94.5285 66.0289 92.3592 73.6559 89.0862 74.2001C86.2193 74.6907 83.4675 69.7772 83.3525 64.3808L84.188 63.9822H84.2723C84.6469 64.7563 84.9373 65.5684 85.1385 66.4045C85.1416 66.4309 85.155 66.455 85.1758 66.4716C85.1967 66.4881 85.2232 66.4957 85.2497 66.4926C85.2761 66.4896 85.3002 66.4762 85.3168 66.4553C85.3333 66.4345 85.3409 66.4079 85.3378 66.3815V66.3892ZM91.7767 57.1218C91.4164 56.9455 91.8763 58.2409 90.6805 60.4945C88.5649 64.5188 83.5288 65.8602 80.4934 59.728C82.5247 60.0346 83.6898 58.1106 83.1072 55.8953C83.2199 55.78 83.3547 55.6886 83.5035 55.6267C83.6524 55.5648 83.8122 55.5336 83.9734 55.5351C84.2538 56.2117 84.696 56.8092 85.2612 57.2751C87.5148 59.0994 90.2513 57.2751 90.0443 54.0557L90.8952 53.9637C90.9258 54.1272 90.9488 54.2882 90.9642 54.4466C90.9642 54.5539 91.1481 54.5616 91.1941 54.4466C91.654 53.4041 92.6045 53.2585 93.1411 54.025C94.1069 55.3818 93.0261 57.7274 91.7767 57.1141V57.1218ZM85.9204 50.223C89.6074 49.3338 91.3704 56.6849 87.6757 57.574C87.286 57.6552 86.8828 57.6441 86.4981 57.5416C86.1135 57.4391 85.7581 57.2481 85.4605 56.9838C83.1302 55.1211 83.4522 50.8362 85.9204 50.2384V50.223ZM81.8501 59.1761C81.3789 59.4252 80.8297 59.4828 80.317 59.3371C79.4314 57.2923 78.9125 55.1075 78.784 52.8829C81.7811 51.963 84.5713 57.6584 81.8501 59.1914V59.1761ZM78.4007 58.011C77.9189 57.464 77.5935 56.7974 77.4586 56.0811C77.3237 55.3648 77.3844 54.6254 77.6342 53.9407C77.8488 55.5197 78.1401 56.8152 78.4007 58.0263V58.011ZM75.8252 66.4428C71.8243 68.4841 68.7932 72.0249 67.3933 76.2927H64.9251C64.0819 73.4182 63.0471 73.2266 59.3294 72.69C57.3288 72.3988 54.5156 72.1611 51.5722 71.9772V65.8986C59.2375 66.3662 65.3774 66.4198 75.8252 66.4658V66.4428ZM57.5588 91.8456L58.9002 96.7361C59.0489 97.291 59.3767 97.7812 59.8328 98.1306C60.2889 98.4799 60.8476 98.6687 61.4221 98.6678L64.9558 98.5604C70.9807 103.252 73.4873 105.735 81.3595 108.617V113.04C75.5416 113.316 65.4923 113.431 59.7357 112.274C39.2617 107.927 44.7807 89.684 57.5588 91.8456ZM81.7198 112.734V109.338L83.6821 109.246C84.142 110.917 84.1267 112.159 83.6821 113.04C83.0425 112.861 82.3837 112.758 81.7198 112.734ZM85.7518 112.657C85.9556 112.082 86.092 111.485 86.158 110.879C86.158 110.787 86.411 110.825 86.411 110.932C86.4471 111.573 86.3009 112.211 85.9894 112.772C85.9357 112.856 85.7211 112.741 85.7518 112.68V112.657ZM87.2005 113.132C87.3921 112.519 87.4611 111.913 87.6068 111.354C87.6068 111.262 87.829 111.315 87.8367 111.407C87.9066 112.051 87.7581 112.699 87.4151 113.247C87.3845 113.316 87.1698 113.224 87.2005 113.132ZM88.6492 113.607C88.855 113.033 88.9889 112.436 89.0478 111.829C89.0478 111.729 89.2778 111.76 89.2701 111.829C89.2969 112.471 89.1514 113.109 88.8485 113.676C88.7949 113.784 88.6032 113.692 88.6492 113.607ZM99.58 109.369C101.88 107.92 104.064 105.95 105.114 103.382L105.283 103.282C105.305 105.413 105.071 107.539 104.585 109.614C102.925 109.415 101.252 109.333 99.58 109.369ZM91.9147 112.151C91.6816 111.647 91.3625 111.188 90.9718 110.794C94.9655 108.84 99.4497 105.482 102.079 101.926C102.091 101.9 102.095 101.871 102.088 101.843C102.082 101.816 102.066 101.791 102.043 101.774C102.02 101.757 101.992 101.748 101.964 101.749C101.936 101.75 101.908 101.761 101.887 101.78C98.7879 105.44 94.9405 108.393 90.6039 110.442C89.4096 109.504 87.9574 108.953 86.4416 108.863C84.8686 108.822 83.2945 108.873 81.7275 109.016V108.541C81.7249 108.508 81.7136 108.476 81.6948 108.449C81.6759 108.422 81.6501 108.401 81.6202 108.387C78.3042 107.232 75.1528 105.65 72.2455 103.681C80.823 98.8594 89.8297 91.8916 95.6247 91.4164C101.596 91.0714 105.49 95.249 105.383 100.377C105.183 108.978 92.0373 112.028 91.907 112.151H91.9147ZM140.114 10.5781V23.0572C128.616 23.2028 118.03 23.0572 98.2079 24.8662C98.2079 20.5966 98.2079 15.9744 98.1696 10.5781H140.114ZM97.7633 10.5167V24.9352C81.3212 26.4299 62.5489 29.6493 51.6488 32.3322C51.6488 20.6426 51.6028 11.1683 51.5951 10.5167H97.7633ZM6.25486 10.4248H51.1582C51.1582 14.426 51.1582 22.8579 51.1046 32.4625C47.7778 33.2904 44.2824 34.2562 40.5418 35.4136C38.7711 42.3124 38.9551 42.8873 37.8819 44.3207C49.1116 43.9375 45.7848 38.7097 48.3221 33.5893L49.5638 33.2674C46.3291 41.9828 49.4872 44.8266 37.7593 45.1639C34.4402 45.2482 21.4782 45.2942 18.3277 45.2866C18.803 44.9723 19.2935 44.6733 19.7918 44.3821C26.2 44.4357 28.8598 44.3821 28.8905 44.3821C29.7414 42.918 29.6954 41.5536 30.4619 38.8784C24.7206 41.3926 13.3683 45.6928 12.5941 51.7944C12.4909 52.8906 12.649 53.9956 13.0554 55.0189C13.4618 56.0422 14.1049 56.9546 14.932 57.6814C21.1869 63.7216 42.4811 65.3467 51.1199 65.8909V71.9772C47.1263 71.7395 42.9257 71.6092 40.1892 71.6092C35.5363 71.6092 28.7832 71.6705 26.5449 75.0356C26.287 75.4467 26.0566 75.8743 25.855 76.3157H6.25486V10.4248ZM6.25486 105.835V76.5917H25.7554C21.3478 86.0047 20.3897 95.3947 20.2824 105.835H6.25486ZM20.4893 108.019C30.7397 107.939 40.9871 108.399 51.1889 109.399C52.2129 110.077 53.2955 110.662 54.4236 111.147C52.3197 112.025 50.4734 113.423 49.0579 115.209L4.38453 113.538C6.17054 111.3 13.5906 108.801 20.4587 108.019H20.4893ZM7.07505 119.517C6.74544 119.517 6.54614 119.41 6.38517 118.919C6.2242 118.429 5.93292 117.11 5.8256 116.536L9.96487 116.689C9.96487 117.678 10.0339 118.659 10.0875 119.648L7.07505 119.517ZM9.58927 116.359C4.64515 116.168 4.77546 116.252 4.49951 115.945C4.17019 115.272 4.0914 114.503 4.27721 113.776L49.0579 115.401C49.1422 116.099 49.2036 116.796 49.2726 117.486C49.2796 117.534 49.2758 117.583 49.2613 117.629C49.2469 117.676 49.2221 117.718 49.1889 117.753C49.1558 117.789 49.1151 117.816 49.0698 117.834C49.0246 117.851 48.9759 117.858 48.9276 117.854L9.58927 116.359ZM18.9716 139.141C18.5883 139.378 18.6113 139.325 15.2003 139.233C13.9738 139.233 13.1076 139.332 12.9007 138.55C12.207 135.386 11.6952 132.184 11.3676 128.961C10.8791 124.886 10.5288 120.795 10.3175 116.697L17.0553 116.95C17.0553 120.606 17.3696 126.37 17.4155 126.914C17.6634 130.367 18.0958 133.803 18.711 137.209C18.7119 137.224 18.7163 137.239 18.7236 137.253C18.731 137.267 18.7412 137.279 18.7536 137.288C18.766 137.297 18.7802 137.304 18.7954 137.307C18.8105 137.31 18.8262 137.31 18.8414 137.307C18.8565 137.304 18.8707 137.297 18.8831 137.288C18.8954 137.278 18.9056 137.266 18.9128 137.253C18.9201 137.239 18.9244 137.224 18.9252 137.208C18.9261 137.193 18.9236 137.177 18.9179 137.163C18.7144 136.013 18.5406 134.857 18.3967 133.698C18.872 133.1 20.3284 131.399 20.3897 131.299L25.2342 131.636C25.1498 131.767 19.2169 138.964 18.9409 139.133L18.9716 139.141ZM17.4385 120.253L20.7653 120.384C20.2517 132.725 20.4433 127.022 20.313 130.854C20.313 131.169 20.313 131.207 18.3507 133.277C17.9521 130.364 17.5459 125.458 17.4232 120.246L17.4385 120.253ZM25.3338 131.307L20.4587 131.077C20.5277 130.862 20.4587 131.314 21.0719 120.345L25.9854 120.537C25.9854 120.537 25.3568 131.115 25.3338 131.307ZM17.4232 119.916C17.4232 119.732 17.3772 117.762 17.3696 116.965L48.9046 118.161C49.795 117.862 50.6591 117.491 51.4878 117.049C51.6028 117.731 51.9018 118.283 52.5686 118.306L81.4132 119.41C81.4541 120.396 81.5001 121.385 81.5512 122.377L17.4232 119.916ZM91.2171 141.67C90.8262 142.191 90.3969 142.176 89.7377 142.145L85.2152 141.931C84.9969 141.926 84.7885 141.838 84.6326 141.685C84.4688 141.52 84.3661 141.304 84.3413 141.072C82.8083 134.587 82.0417 126.133 81.7581 119.418L88.4269 119.678C88.4269 125.887 88.9022 134.097 90.167 139.991C90.1626 140.007 90.162 140.024 90.1651 140.04C90.1682 140.056 90.1751 140.072 90.1851 140.085C90.1951 140.098 90.208 140.109 90.2228 140.116C90.2376 140.123 90.2539 140.127 90.2704 140.127C90.287 140.127 90.3033 140.123 90.3181 140.116C90.3329 140.109 90.3458 140.098 90.3558 140.085C90.3658 140.072 90.3727 140.056 90.3758 140.04C90.3789 140.024 90.3783 140.007 90.3739 139.991C90.213 138.949 90.0597 137.906 89.9217 136.864C90.7787 135.979 91.5897 135.05 92.3516 134.081L96.8281 134.311C96.7898 134.373 97.242 133.614 91.2171 141.67ZM88.9175 122.982L92.6965 123.112L92.1906 133.583C92.1832 133.734 92.1236 133.878 92.022 133.989L89.8987 136.396C89.3409 131.945 89.0134 127.467 88.9175 122.982ZM96.9891 133.951L92.4666 133.844C92.5279 133.66 92.4666 134.38 93.0338 123.112L97.8016 123.273C97.8016 123.273 97.0044 133.844 96.9814 133.951H96.9891ZM101.075 122.806C101.04 122.872 100.992 122.931 100.934 122.978C100.876 123.026 100.809 123.061 100.737 123.082C100.615 123.12 88.9252 122.66 88.9099 122.66C88.9099 121.671 88.8639 120.683 88.8562 119.694L97.6636 120.023C98.3059 120.049 98.9435 119.903 99.511 119.602C99.6796 119.602 98.8901 119.533 101.182 119.686C101.296 119.697 101.402 119.746 101.484 119.826C101.566 119.905 101.619 120.01 101.634 120.123C101.494 121.027 101.304 121.922 101.067 122.806H101.075ZM103.842 116.881C103.904 116.909 103.959 116.95 104.004 117.002C104.049 117.054 104.083 117.114 104.102 117.179C104.148 117.333 103.704 119.395 103.627 119.755C102.978 120.7 102.253 121.589 101.458 122.415C101.65 121.659 101.791 120.89 101.88 120.115C101.854 119.949 101.773 119.795 101.651 119.679C101.53 119.563 101.373 119.49 101.205 119.471L99.8559 119.418C100.871 118.611 101.831 117.737 102.73 116.804C103.781 116.85 103.727 116.835 103.834 116.881H103.842ZM99.9172 118.935C99.2901 119.461 98.4893 119.734 97.6713 119.701L52.584 117.984C51.7025 117.984 51.7101 116.451 51.8174 115.585L97.1501 117.348C100.04 117.478 103.773 112.895 104.693 110.449C105.459 108.257 105.59 105.444 105.643 103.106C106.147 102.786 106.631 102.435 107.092 102.056C107.069 110.38 106.394 113.554 99.9096 118.935H99.9172ZM107.276 106.479C107.368 105.114 107.399 103.574 107.391 101.757C112.481 97.38 113.784 90.4276 113.784 84.326C113.828 81.7057 113.456 79.0949 112.68 76.5917H140.191V93.3174C138.205 93.1257 136.166 92.9648 135.346 92.9034C135.346 92.9034 121.472 92.2672 116.183 93.67C111.691 94.8581 111.676 101.565 115.271 103.796C114.651 104.63 114.119 105.527 113.684 106.471L107.276 106.479ZM115.424 103.643C112.013 101.481 112.036 95.0881 116.237 93.9843C120.069 92.9801 130.034 92.9264 134.059 93.1027L143.51 93.9076C140.666 94.9271 138.696 101.573 140.298 104.877C139.603 104.677 138.893 104.534 138.175 104.447C136.366 104.202 116.927 102.485 115.416 103.643H115.424ZM137.692 130.908C135.707 130.778 134.518 129.452 134.465 127.988C134.273 125.956 135.055 120.399 135.132 120.276C135.425 120.259 135.72 120.259 136.013 120.276L136.58 112.826C137.723 112.78 138.949 113.469 140.244 113.492L139.677 120.69L140.444 120.82L140.812 115.455C141.126 115.455 141.617 115.577 141.731 115.869L141.371 120.905C142.421 121.127 142.291 120.637 142.138 124.278C141.9 128.44 141.9 131.184 137.684 130.908H137.692ZM147.174 129.712C147.218 132.062 147.015 134.411 146.568 136.718C145.664 140.666 144.146 140.505 142.084 137.04C142.814 134.869 143.258 132.612 143.403 130.325C143.54 128.792 144.008 121.204 144.077 115.163C146.407 119.671 147.212 124.653 147.174 129.712Z" fill="#FDFFA1"/>
<path d="M121.472 117.041L121.089 120.146C121.084 120.199 121.1 120.253 121.132 120.295C121.165 120.338 121.212 120.366 121.265 120.376L123.779 120.713C123.798 120.716 123.816 120.716 123.834 120.711C123.852 120.707 123.869 120.7 123.884 120.689C123.899 120.678 123.911 120.665 123.921 120.649C123.931 120.634 123.937 120.616 123.94 120.598C123.943 120.58 123.943 120.561 123.939 120.544C123.935 120.526 123.927 120.509 123.916 120.494C123.906 120.479 123.892 120.466 123.876 120.456C123.861 120.447 123.844 120.44 123.825 120.437L121.526 119.993L121.656 117.057C121.658 117.032 121.65 117.008 121.635 116.989C121.619 116.971 121.596 116.959 121.572 116.957C121.547 116.955 121.523 116.963 121.505 116.979C121.486 116.994 121.474 117.017 121.472 117.041ZM73.0197 40.626C73.4523 40.194 73.7714 39.6618 73.9487 39.0767C74.126 38.4916 74.1559 37.8718 74.0359 37.2724C73.9159 36.6729 73.6495 36.1124 73.2606 35.6408C72.8717 35.1691 72.3723 34.8008 71.8067 34.5687C71.2412 34.3366 70.627 34.2478 70.0189 34.3103C69.4107 34.3728 68.8275 34.5846 68.3209 34.9269C67.8144 35.2692 67.4003 35.7313 67.1154 36.2722C66.8306 36.8132 66.6838 37.4161 66.6882 38.0274C66.697 38.7571 66.9203 39.468 67.3304 40.0716C67.7404 40.6753 68.319 41.1448 68.9941 41.4219C69.6692 41.699 70.4108 41.7712 71.1267 41.6297C71.8425 41.4882 72.5009 41.1391 73.0197 40.626ZM72.8818 35.5056C73.2871 35.9131 73.586 36.4141 73.752 36.9644C73.918 37.5147 73.946 38.0974 73.8335 38.6611C73.7211 39.2248 73.4717 39.7522 73.1073 40.1968C72.7429 40.6413 72.2747 40.9893 71.744 41.2102C71.2133 41.431 70.6364 41.5179 70.0643 41.4631C69.4921 41.4083 68.9422 41.2135 68.463 40.896C67.9839 40.5785 67.5902 40.1479 67.3168 39.6423C67.0434 39.1367 66.8986 38.5716 66.8952 37.9968C66.9043 37.3072 67.1158 36.6356 67.5035 36.0653C67.8912 35.495 68.4379 35.0512 69.0757 34.789C69.7135 34.5269 70.4143 34.4579 71.091 34.5908C71.7677 34.7236 72.3904 35.0524 72.8818 35.5362V35.5056Z" fill="#FDFFA1"/>
<path d="M70.3905 40.626C70.8184 40.6245 71.2394 40.5176 71.6163 40.3149C71.9931 40.1121 72.3143 39.8197 72.5513 39.4634C72.7884 39.1071 72.9341 38.6979 72.9755 38.272C73.0169 37.8461 72.9528 37.4165 72.7888 37.0212C72.6249 36.6259 72.3661 36.2771 72.0353 36.0055C71.7046 35.734 71.3121 35.548 70.8924 35.4641C70.4728 35.3802 70.0389 35.401 69.6292 35.5245C69.2195 35.648 68.8465 35.8705 68.5431 36.1724C68.173 36.5354 67.9199 37.0009 67.8164 37.5089C67.713 38.0169 67.7638 38.5443 67.9625 39.0232C68.1611 39.5021 68.4985 39.9106 68.9311 40.1962C69.3638 40.4818 69.8721 40.6315 70.3905 40.626ZM72.6364 37.1306L70.3905 40.4113C70.0123 40.4034 69.6406 40.3118 69.302 40.143L71.9925 36.2107C72.2809 36.4616 72.5022 36.7804 72.6364 37.1382V37.1306ZM70.1069 35.5975C70.5038 35.5472 70.9071 35.5973 71.2796 35.7432L68.6351 39.5758C68.3643 39.2836 68.1718 38.9276 68.0755 38.541L70.1069 35.5975ZM93.7543 40.626C94.1778 40.1905 94.4878 39.6577 94.6572 39.0744C94.8266 38.4911 94.8502 37.8751 94.726 37.2806C94.6017 36.686 94.3334 36.1311 93.9445 35.6645C93.5557 35.1979 93.0582 34.8339 92.4958 34.6044C91.9334 34.375 91.3233 34.2872 90.719 34.3486C90.1147 34.4101 89.5348 34.619 89.0301 34.957C88.5254 35.295 88.1114 35.7517 87.8245 36.287C87.5376 36.8224 87.3865 37.42 87.3845 38.0274C87.3894 38.7633 87.6123 39.4812 88.0248 40.0906C88.4374 40.7 89.0212 41.1736 89.7026 41.4515C90.384 41.7295 91.1324 41.7994 91.8535 41.6525C92.5746 41.5056 93.236 41.1484 93.7543 40.626ZM91.1251 34.4937C91.8176 34.4922 92.495 34.696 93.0718 35.0793C93.6485 35.4626 94.0987 36.0083 94.3655 36.6474C94.6322 37.2864 94.7036 37.9902 94.5705 38.6698C94.4375 39.3494 94.106 39.9744 93.6179 40.4656C93.1298 40.9569 92.5071 41.2925 91.8284 41.43C91.1497 41.5675 90.4454 41.5008 89.8046 41.2382C89.1638 40.9757 88.6152 40.5291 88.2281 39.9549C87.841 39.3806 87.6328 38.7046 87.6297 38.0121C87.6277 37.5514 87.7166 37.0949 87.8913 36.6686C88.0659 36.2423 88.3229 35.8547 88.6476 35.5279C88.9723 35.201 89.3582 34.9415 89.7834 34.764C90.2085 34.5866 90.6645 34.4947 91.1251 34.4937Z" fill="#FDFFA1"/>
<path d="M92.9648 39.8594C93.4242 39.3656 93.6742 38.713 93.6624 38.0386C93.6505 37.3643 93.3778 36.7208 92.9014 36.2434C92.425 35.766 91.782 35.4919 91.1077 35.4787C90.4334 35.4654 89.7803 35.7141 89.2855 36.1724C86.8096 38.61 90.5349 42.3277 92.9648 39.8594ZM93.3711 37.1306L91.1251 40.4113C90.7471 40.4027 90.3755 40.3111 90.0367 40.1431L92.7502 36.2184C93.0313 36.4678 93.2449 36.7842 93.3711 37.1383V37.1306ZM90.8492 35.5975C91.2461 35.5431 91.6504 35.5933 92.022 35.7432L89.3698 39.5758C89.1016 39.2817 88.9095 38.9265 88.8102 38.541L90.8492 35.5975ZM109.238 35.3982C108.801 35.8284 108.476 36.3603 108.294 36.9463C108.112 37.5323 108.078 38.1542 108.195 38.7567C108.312 39.3591 108.576 39.9233 108.963 40.3988C109.351 40.8744 109.851 41.2466 110.417 41.4822C110.984 41.7177 111.6 41.8094 112.211 41.7489C112.821 41.6885 113.408 41.4778 113.917 41.1357C114.426 40.7937 114.843 40.3308 115.13 39.7884C115.417 39.2461 115.566 38.6411 115.562 38.0274C115.541 37.3045 115.311 36.6031 114.901 36.0074C114.491 35.4118 113.918 34.9472 113.25 34.6696C112.582 34.392 111.848 34.313 111.137 34.4423C110.425 34.5715 109.766 34.9035 109.238 35.3982ZM108.372 38.0274C108.35 37.5541 108.424 37.0813 108.59 36.6374C108.756 36.1936 109.01 35.788 109.337 35.4452C109.664 35.1024 110.057 34.8295 110.493 34.6431C110.929 34.4567 111.397 34.3606 111.871 34.3606C112.345 34.3606 112.814 34.4567 113.25 34.6431C113.685 34.8295 114.078 35.1024 114.406 35.4452C114.733 35.788 114.987 36.1936 115.153 36.6374C115.319 37.0813 115.393 37.5541 115.371 38.0274C115.355 42.6419 108.387 42.5576 108.372 38.0274Z" fill="#FDFFA1"/>
<path d="M110.02 36.18C109.533 36.6717 109.257 37.335 109.254 38.0274C109.254 38.6301 109.463 39.2141 109.846 39.6799C110.228 40.1457 110.76 40.4646 111.351 40.5822C111.942 40.6998 112.556 40.6089 113.088 40.325C113.619 40.041 114.036 39.5816 114.267 39.0249C114.498 38.4682 114.529 37.8487 114.355 37.2718C114.18 36.6949 113.811 36.1963 113.31 35.8608C112.81 35.5254 112.208 35.3739 111.608 35.4321C111.008 35.4903 110.447 35.7546 110.02 36.18ZM109.545 38.6023L111.584 35.6358C111.981 35.5858 112.384 35.6359 112.757 35.7814L110.105 39.6141C109.84 39.3266 109.648 38.9796 109.545 38.6023ZM111.845 40.419C111.467 40.4098 111.095 40.3182 110.756 40.1507L113.447 36.2184C113.734 36.4671 113.955 36.7831 114.09 37.1382L111.845 40.419ZM135.231 40.6259C135.746 40.1056 136.096 39.4444 136.236 38.7258C136.376 38.0072 136.3 37.2632 136.018 36.5875C135.737 35.9118 135.261 35.3347 134.652 34.9287C134.042 34.5227 133.327 34.3061 132.595 34.3061C131.862 34.3061 131.147 34.5227 130.537 34.9287C129.928 35.3347 129.453 35.9118 129.171 36.5875C128.889 37.2632 128.813 38.0072 128.953 38.7258C129.093 39.4444 129.443 40.1056 129.958 40.6259C130.304 40.9726 130.715 41.2477 131.167 41.4354C131.62 41.6231 132.105 41.7197 132.595 41.7197C133.084 41.7197 133.569 41.6231 134.022 41.4354C134.474 41.2477 134.885 40.9726 135.231 40.6259ZM132.61 34.4937C133.184 34.4926 133.75 34.633 134.257 34.9027C134.764 35.1723 135.197 35.5627 135.518 36.0394C135.838 36.5162 136.036 37.0645 136.094 37.636C136.152 38.2074 136.068 38.7843 135.85 39.3157C135.632 39.8471 135.287 40.3166 134.844 40.6827C134.401 41.0487 133.875 41.3001 133.313 41.4144C132.75 41.5288 132.167 41.5027 131.617 41.3384C131.066 41.1742 130.565 40.8768 130.157 40.4726C129.665 39.9855 129.329 39.3634 129.191 38.6851C129.053 38.0067 129.12 37.3028 129.383 36.6624C129.645 36.022 130.092 35.474 130.667 35.0879C131.241 34.7018 131.918 34.495 132.61 34.4937Z" fill="#FDFFA1"/>
<path d="M134.442 39.8594C134.742 39.5552 134.963 39.1817 135.085 38.772C135.207 38.3622 135.226 37.9288 135.141 37.5099C135.056 37.091 134.869 36.6994 134.597 36.3697C134.325 36.0401 133.976 35.7824 133.58 35.6194C133.185 35.4564 132.756 35.3932 132.331 35.4352C131.905 35.4773 131.497 35.6233 131.141 35.8604C130.785 36.0976 130.493 36.4186 130.291 36.7952C130.089 37.1717 129.982 37.5923 129.981 38.0198C129.983 38.5358 130.137 39.0397 130.425 39.4681C130.713 39.8964 131.121 40.23 131.598 40.4267C132.075 40.6234 132.6 40.6745 133.106 40.5736C133.612 40.4726 134.077 40.2241 134.442 39.8594ZM134.848 37.1306L132.61 40.419C132.231 40.4148 131.859 40.323 131.521 40.1507L134.22 36.2184C134.499 36.4707 134.715 36.786 134.848 37.1382V37.1306ZM132.319 35.5975C132.716 35.5482 133.119 35.5982 133.491 35.7432L130.847 39.5758C130.573 39.2843 130.378 38.9283 130.28 38.541L132.319 35.5975ZM54.5234 57.298C54.5823 57.8649 54.746 58.416 55.0063 58.923C56.7387 62.3264 61.9051 62.0505 63.8827 60.2721C65.8604 58.4938 65.4158 56.3782 65.4158 55.673V45.7081C65.3598 45.143 65.1958 44.5939 64.9329 44.0907C63.3998 41.0246 60.3337 41.5535 59.1686 41.5305C58.0189 41.5128 56.9044 41.9264 56.0446 42.6898C55.1848 43.4531 54.6421 44.5108 54.5234 45.6544C54.4851 46.2293 54.4851 56.8841 54.5234 57.298ZM54.7917 45.7157C54.9076 44.6344 55.4213 43.6347 56.233 42.9109C57.0447 42.187 58.0964 41.7906 59.1839 41.7987C60.625 41.7987 63.3308 41.4538 64.7489 44.221C64.9722 44.7021 65.0947 45.2238 65.1092 45.754C65.1705 46.4133 65.1628 53.7566 65.1092 55.6653C65.1092 56.9377 65.3851 58.7314 63.7141 60.1495C61.5448 62.0888 55.1903 61.9048 54.7993 57.2673C54.761 56.8764 54.738 46.2523 54.7917 45.7157ZM36.8549 44.3513C38.4569 42.4196 38.0123 39.8901 39.5914 35.7125C36.2263 36.755 33.4591 37.7515 31.3052 38.6023C30.7916 40.9019 30.255 43.3778 29.6648 44.3896C32.2327 44.382 34.2793 44.4586 36.8549 44.3513Z" fill="#FDFFA1"/>
</svg>
