<svg width="534" height="792" viewBox="0 0 534 792" fill="none" xmlns="http://www.w3.org/2000/svg">
<g clip-path="url(#clip0_15_296)">
<g opacity="0.05">
<g filter="url(#filter0_f_15_296)">
<path d="M-91 340.313C-91 406.311 62.6727 446.5 -39.5 446.5C-141.673 446.5 -258 457.498 -258 391.5C-258 325.502 -175.173 272 -73 272C29.1727 272 -91 274.315 -91 340.313Z" fill="#FFB0CC"/>
</g>
<g filter="url(#filter1_f_15_296)">
<path d="M211 543.626C211 609.624 364.673 649.813 262.5 649.813C3.49994 758.313 -44.5 591.311 -44.5 525.313C-44.5 459.315 126.827 475.313 229 475.313C331.173 475.313 211 477.628 211 543.626Z" fill="#B6B0FF"/>
</g>
<g filter="url(#filter2_f_15_296)">
<path d="M168.5 346.018C168.5 412.016 300.173 470.518 198 470.518C-61.0001 579.018 -109 412.016 -109 346.018C-109 280.02 -211.173 288.813 -109 288.813C-6.82728 288.813 168.5 280.02 168.5 346.018Z" fill="#B0FFC1"/>
</g>
<g filter="url(#filter3_f_15_296)">
<path d="M224 428.813C224 494.811 141.173 548.313 39 548.313C-63.1727 548.313 -179.5 559.311 -179.5 493.313C-179.5 427.315 -96.6727 373.813 5.50002 373.813C107.673 373.813 224 362.815 224 428.813Z" fill="#B0FFF6"/>
</g>
</g>
<rect x="119.5" y="290.5" width="1079" height="439" rx="7.5" stroke="white" stroke-opacity="0.34"/>
<line x1="121" y1="330.5" x2="1199.03" y2="330.5" stroke="white" stroke-opacity="0.2"/>
<circle cx="147" cy="311.5" r="6" fill="#FF6D6D"/>
<circle cx="162" cy="311.5" r="6" fill="#FFF06D"/>
<circle cx="177" cy="311.5" r="6" fill="#81FF6D"/>
<path d="M215.24 309.64H216.344L217.148 314.944L218.06 310.528H219.14L220.052 314.944L220.856 309.64H221.96L220.712 316H219.44L218.6 312.04L217.76 316H216.5L215.24 309.64ZM223.155 315.112H225.711V310.528H223.275V309.64H226.719V315.112H228.915V316H223.155V315.112ZM225.615 307.468H226.671V308.644H225.615V307.468ZM230.543 309.64H231.467L231.491 310.78C231.651 310.356 231.903 310.036 232.247 309.82C232.591 309.604 232.991 309.496 233.447 309.496C234.143 309.496 234.671 309.72 235.031 310.168C235.399 310.616 235.583 311.196 235.583 311.908V316H234.575V312.196C234.575 311.596 234.467 311.144 234.251 310.84C234.043 310.536 233.703 310.384 233.231 310.384C232.727 310.384 232.319 310.544 232.007 310.864C231.703 311.176 231.551 311.62 231.551 312.196V316H230.543V309.64ZM239.91 316.144C239.358 316.144 238.874 316.008 238.458 315.736C238.05 315.464 237.734 315.08 237.51 314.584C237.294 314.08 237.186 313.492 237.186 312.82C237.186 312.148 237.294 311.564 237.51 311.068C237.734 310.564 238.05 310.176 238.458 309.904C238.874 309.632 239.358 309.496 239.91 309.496C240.326 309.496 240.706 309.596 241.05 309.796C241.394 309.996 241.65 310.24 241.818 310.528V307.48H242.826V316H241.914L241.878 315.04C241.694 315.392 241.43 315.664 241.086 315.856C240.742 316.048 240.35 316.144 239.91 316.144ZM239.97 315.184C240.546 315.184 240.998 314.972 241.326 314.548C241.654 314.124 241.818 313.548 241.818 312.82C241.818 312.084 241.65 311.508 241.314 311.092C240.986 310.668 240.53 310.456 239.946 310.456C239.418 310.456 239.002 310.668 238.698 311.092C238.394 311.508 238.242 312.084 238.242 312.82C238.242 313.548 238.394 314.124 238.698 314.548C239.01 314.972 239.434 315.184 239.97 315.184ZM247.381 316.144C246.797 316.144 246.285 316.008 245.845 315.736C245.413 315.464 245.077 315.08 244.837 314.584C244.597 314.08 244.477 313.492 244.477 312.82C244.477 312.148 244.597 311.564 244.837 311.068C245.077 310.564 245.413 310.176 245.845 309.904C246.285 309.632 246.797 309.496 247.381 309.496C247.957 309.496 248.465 309.632 248.905 309.904C249.345 310.176 249.685 310.564 249.925 311.068C250.165 311.564 250.285 312.148 250.285 312.82C250.285 313.492 250.165 314.08 249.925 314.584C249.685 315.08 249.345 315.464 248.905 315.736C248.465 316.008 247.957 316.144 247.381 316.144ZM247.381 315.184C247.965 315.184 248.417 314.976 248.737 314.56C249.065 314.136 249.229 313.556 249.229 312.82C249.229 312.084 249.065 311.508 248.737 311.092C248.417 310.668 247.965 310.456 247.381 310.456C246.797 310.456 246.341 310.664 246.013 311.08C245.693 311.496 245.533 312.076 245.533 312.82C245.533 313.564 245.693 314.144 246.013 314.56C246.341 314.976 246.797 315.184 247.381 315.184ZM251.217 309.64H252.321L253.125 314.944L254.037 310.528H255.117L256.029 314.944L256.833 309.64H257.937L256.689 316H255.417L254.577 312.04L253.737 316H252.477L251.217 309.64ZM261.892 316.144C261.356 316.144 260.884 316.052 260.476 315.868C260.076 315.676 259.76 315.42 259.528 315.1C259.296 314.772 259.164 314.404 259.132 313.996L260.188 313.924C260.252 314.324 260.428 314.636 260.716 314.86C261.004 315.076 261.396 315.184 261.892 315.184C262.372 315.184 262.74 315.116 262.996 314.98C263.252 314.836 263.38 314.624 263.38 314.344C263.38 314.152 263.336 314 263.248 313.888C263.16 313.768 262.996 313.668 262.756 313.588C262.524 313.5 262.172 313.416 261.7 313.336C261.092 313.232 260.612 313.096 260.26 312.928C259.916 312.76 259.668 312.556 259.516 312.316C259.372 312.076 259.3 311.776 259.3 311.416C259.3 310.848 259.512 310.388 259.936 310.036C260.36 309.676 260.952 309.496 261.712 309.496C262.456 309.496 263.044 309.688 263.476 310.072C263.916 310.456 264.188 310.944 264.292 311.536L263.236 311.608C263.164 311.256 262.992 310.976 262.72 310.768C262.456 310.56 262.116 310.456 261.7 310.456C261.252 310.456 260.912 310.544 260.68 310.72C260.448 310.896 260.332 311.128 260.332 311.416C260.332 311.632 260.384 311.804 260.488 311.932C260.592 312.052 260.752 312.152 260.968 312.232C261.192 312.304 261.508 312.376 261.916 312.448C262.572 312.552 263.08 312.684 263.44 312.844C263.8 313.004 264.052 313.204 264.196 313.444C264.34 313.676 264.412 313.976 264.412 314.344C264.412 314.896 264.176 315.336 263.704 315.664C263.232 315.984 262.628 316.144 261.892 316.144ZM266.327 316H271.607V316.936H266.327V316ZM275.719 316.144C275.087 316.144 274.583 315.932 274.207 315.508C273.831 315.076 273.643 314.484 273.643 313.732V309.64H274.651V313.456C274.651 314.072 274.759 314.528 274.975 314.824C275.199 315.112 275.539 315.256 275.995 315.256C276.491 315.256 276.883 315.096 277.171 314.776C277.459 314.448 277.603 314 277.603 313.432V309.64H278.611V316H277.651V314.968C277.475 315.344 277.223 315.636 276.895 315.844C276.567 316.044 276.175 316.144 275.719 316.144ZM284.294 316C283.678 316 283.218 315.856 282.914 315.568C282.61 315.28 282.458 314.84 282.458 314.248V310.528H280.358V309.64H282.458V307.96H283.466V309.64H285.998V310.528H283.466V314.248C283.466 314.544 283.534 314.764 283.67 314.908C283.806 315.044 284.014 315.112 284.294 315.112H285.998V316H284.294ZM287.913 315.112H290.469V310.528H288.033V309.64H291.477V315.112H293.673V316H287.913V315.112ZM290.373 307.468H291.429V308.644H290.373V307.468ZM297.664 309.184C297.664 308.928 297.592 308.728 297.448 308.584C297.304 308.44 297.104 308.368 296.848 308.368H295.348V307.48H296.896C297.48 307.48 297.92 307.632 298.216 307.936C298.52 308.232 298.672 308.672 298.672 309.256V315.112H300.868V316H295.108V315.112H297.664V309.184ZM302.304 315.112H304.86V310.528H302.424V309.64H305.868V315.112H308.064V316H302.304V315.112ZM304.764 307.468H305.82V308.644H304.764V307.468ZM313.075 316C312.459 316 311.999 315.856 311.695 315.568C311.391 315.28 311.239 314.84 311.239 314.248V310.528H309.139V309.64H311.239V307.96H312.247V309.64H314.779V310.528H312.247V314.248C312.247 314.544 312.315 314.764 312.451 314.908C312.587 315.044 312.795 315.112 313.075 315.112H314.779V316H313.075ZM316.694 315.112H319.25V310.528H316.814V309.64H320.258V315.112H322.454V316H316.694V315.112ZM319.154 307.468H320.21V308.644H319.154V307.468ZM326.638 316.144C326.046 316.144 325.53 316.008 325.09 315.736C324.65 315.464 324.31 315.08 324.07 314.584C323.838 314.08 323.722 313.492 323.722 312.82C323.722 312.156 323.838 311.572 324.07 311.068C324.31 310.564 324.646 310.176 325.078 309.904C325.51 309.632 326.014 309.496 326.59 309.496C327.142 309.496 327.63 309.628 328.054 309.892C328.486 310.148 328.818 310.528 329.05 311.032C329.29 311.536 329.41 312.136 329.41 312.832V313.132H324.778C324.81 313.804 324.986 314.316 325.306 314.668C325.634 315.012 326.078 315.184 326.638 315.184C327.046 315.184 327.382 315.092 327.646 314.908C327.918 314.716 328.11 314.452 328.222 314.116L329.302 314.2C329.134 314.784 328.81 315.256 328.33 315.616C327.858 315.968 327.294 316.144 326.638 316.144ZM328.306 312.244C328.258 311.652 328.082 311.208 327.778 310.912C327.474 310.608 327.078 310.456 326.59 310.456C326.094 310.456 325.686 310.608 325.366 310.912C325.054 311.216 324.858 311.66 324.778 312.244H328.306ZM333.845 316.144C333.309 316.144 332.837 316.052 332.429 315.868C332.029 315.676 331.713 315.42 331.481 315.1C331.249 314.772 331.117 314.404 331.085 313.996L332.141 313.924C332.205 314.324 332.381 314.636 332.669 314.86C332.957 315.076 333.349 315.184 333.845 315.184C334.325 315.184 334.693 315.116 334.949 314.98C335.205 314.836 335.333 314.624 335.333 314.344C335.333 314.152 335.289 314 335.201 313.888C335.113 313.768 334.949 313.668 334.709 313.588C334.477 313.5 334.125 313.416 333.653 313.336C333.045 313.232 332.565 313.096 332.213 312.928C331.869 312.76 331.621 312.556 331.469 312.316C331.325 312.076 331.253 311.776 331.253 311.416C331.253 310.848 331.465 310.388 331.889 310.036C332.313 309.676 332.905 309.496 333.665 309.496C334.409 309.496 334.997 309.688 335.429 310.072C335.869 310.456 336.141 310.944 336.245 311.536L335.189 311.608C335.117 311.256 334.945 310.976 334.673 310.768C334.409 310.56 334.069 310.456 333.653 310.456C333.205 310.456 332.865 310.544 332.633 310.72C332.401 310.896 332.285 311.128 332.285 311.416C332.285 311.632 332.337 311.804 332.441 311.932C332.545 312.052 332.705 312.152 332.921 312.232C333.145 312.304 333.461 312.376 333.869 312.448C334.525 312.552 335.033 312.684 335.393 312.844C335.753 313.004 336.005 313.204 336.149 313.444C336.293 313.676 336.365 313.976 336.365 314.344C336.365 314.896 336.129 315.336 335.657 315.664C335.185 315.984 334.581 316.144 333.845 316.144ZM340.2 314.56H341.64V316H340.2V314.56ZM348.224 316.144C347.632 316.144 347.116 316.008 346.676 315.736C346.236 315.464 345.896 315.08 345.656 314.584C345.424 314.08 345.308 313.492 345.308 312.82C345.308 312.156 345.424 311.572 345.656 311.068C345.896 310.564 346.232 310.176 346.664 309.904C347.096 309.632 347.6 309.496 348.176 309.496C348.728 309.496 349.216 309.628 349.64 309.892C350.072 310.148 350.404 310.528 350.636 311.032C350.876 311.536 350.996 312.136 350.996 312.832V313.132H346.364C346.396 313.804 346.572 314.316 346.892 314.668C347.22 315.012 347.664 315.184 348.224 315.184C348.632 315.184 348.968 315.092 349.232 314.908C349.504 314.716 349.696 314.452 349.808 314.116L350.888 314.2C350.72 314.784 350.396 315.256 349.916 315.616C349.444 315.968 348.88 316.144 348.224 316.144ZM349.892 312.244C349.844 311.652 349.668 311.208 349.364 310.912C349.06 310.608 348.664 310.456 348.176 310.456C347.68 310.456 347.272 310.608 346.952 310.912C346.64 311.216 346.444 311.66 346.364 312.244H349.892ZM354.699 312.736L352.479 309.64H353.655L355.323 312.04L356.955 309.64H358.155L355.947 312.76L358.263 316H357.087L355.323 313.432L353.559 316H352.359L354.699 312.736ZM362.614 316.144C362.022 316.144 361.506 316.008 361.066 315.736C360.626 315.464 360.286 315.08 360.046 314.584C359.814 314.08 359.698 313.492 359.698 312.82C359.698 312.156 359.814 311.572 360.046 311.068C360.286 310.564 360.622 310.176 361.054 309.904C361.486 309.632 361.99 309.496 362.566 309.496C363.118 309.496 363.606 309.628 364.03 309.892C364.462 310.148 364.794 310.528 365.026 311.032C365.266 311.536 365.386 312.136 365.386 312.832V313.132H360.754C360.786 313.804 360.962 314.316 361.282 314.668C361.61 315.012 362.054 315.184 362.614 315.184C363.022 315.184 363.358 315.092 363.622 314.908C363.894 314.716 364.086 314.452 364.198 314.116L365.278 314.2C365.11 314.784 364.786 315.256 364.306 315.616C363.834 315.968 363.27 316.144 362.614 316.144ZM364.282 312.244C364.234 311.652 364.058 311.208 363.754 310.912C363.45 310.608 363.054 310.456 362.566 310.456C362.07 310.456 361.662 310.608 361.342 310.912C361.03 311.216 360.834 311.66 360.754 312.244H364.282Z" fill="white"/>
<path d="M142.32 352.52H143.792L144.864 359.592L146.08 353.704H147.52L148.736 359.592L149.808 352.52H151.28L149.616 361H147.92L146.8 355.72L145.68 361H144L142.32 352.52ZM156.538 361.192C155.748 361.192 155.06 361.011 154.474 360.648C153.887 360.285 153.434 359.773 153.114 359.112C152.804 358.44 152.65 357.656 152.65 356.76C152.65 355.875 152.804 355.096 153.114 354.424C153.434 353.752 153.882 353.235 154.458 352.872C155.034 352.509 155.706 352.328 156.474 352.328C157.21 352.328 157.86 352.504 158.426 352.856C159.002 353.197 159.444 353.704 159.754 354.376C160.074 355.048 160.234 355.848 160.234 356.776V357.176H154.058C154.1 358.072 154.335 358.755 154.762 359.224C155.199 359.683 155.791 359.912 156.538 359.912C157.082 359.912 157.53 359.789 157.882 359.544C158.244 359.288 158.5 358.936 158.65 358.488L160.09 358.6C159.866 359.379 159.434 360.008 158.794 360.488C158.164 360.957 157.412 361.192 156.538 361.192ZM158.762 355.992C158.698 355.203 158.463 354.611 158.058 354.216C157.652 353.811 157.124 353.608 156.474 353.608C155.812 353.608 155.268 353.811 154.842 354.216C154.426 354.621 154.164 355.213 154.058 355.992H158.762ZM165.876 351.912C165.876 351.571 165.78 351.304 165.588 351.112C165.396 350.92 165.129 350.824 164.788 350.824H162.788V349.64H164.852C165.63 349.64 166.217 349.843 166.612 350.248C167.017 350.643 167.22 351.229 167.22 352.008V359.816H170.148V361H162.468V359.816H165.876V351.912ZM175.805 361.192C175.027 361.192 174.339 361.011 173.741 360.648C173.155 360.285 172.701 359.768 172.381 359.096C172.061 358.424 171.901 357.645 171.901 356.76C171.901 355.875 172.061 355.096 172.381 354.424C172.701 353.752 173.155 353.235 173.741 352.872C174.339 352.509 175.027 352.328 175.805 352.328C176.755 352.328 177.539 352.584 178.157 353.096C178.787 353.608 179.187 354.333 179.357 355.272L177.949 355.368C177.821 354.813 177.565 354.381 177.181 354.072C176.808 353.763 176.349 353.608 175.805 353.608C175.027 353.608 174.413 353.891 173.965 354.456C173.528 355.011 173.309 355.779 173.309 356.76C173.309 357.741 173.528 358.515 173.965 359.08C174.413 359.635 175.027 359.912 175.805 359.912C176.371 359.912 176.845 359.747 177.229 359.416C177.624 359.085 177.885 358.611 178.013 357.992L179.421 358.088C179.24 359.037 178.824 359.795 178.173 360.36C177.533 360.915 176.744 361.192 175.805 361.192ZM185.175 361.192C184.396 361.192 183.714 361.011 183.127 360.648C182.551 360.285 182.103 359.773 181.783 359.112C181.463 358.44 181.303 357.656 181.303 356.76C181.303 355.864 181.463 355.085 181.783 354.424C182.103 353.752 182.551 353.235 183.127 352.872C183.714 352.509 184.396 352.328 185.175 352.328C185.943 352.328 186.62 352.509 187.207 352.872C187.794 353.235 188.247 353.752 188.567 354.424C188.887 355.085 189.047 355.864 189.047 356.76C189.047 357.656 188.887 358.44 188.567 359.112C188.247 359.773 187.794 360.285 187.207 360.648C186.62 361.011 185.943 361.192 185.175 361.192ZM185.175 359.912C185.954 359.912 186.556 359.635 186.983 359.08C187.42 358.515 187.639 357.741 187.639 356.76C187.639 355.779 187.42 355.011 186.983 354.456C186.556 353.891 185.954 353.608 185.175 353.608C184.396 353.608 183.788 353.885 183.351 354.44C182.924 354.995 182.711 355.768 182.711 356.76C182.711 357.752 182.924 358.525 183.351 359.08C183.788 359.635 184.396 359.912 185.175 359.912ZM190.609 352.52H191.841L191.873 353.768C192.022 353.309 192.241 352.957 192.529 352.712C192.817 352.456 193.158 352.328 193.553 352.328C194.427 352.328 194.961 352.883 195.153 353.992C195.291 353.469 195.521 353.064 195.841 352.776C196.161 352.477 196.539 352.328 196.977 352.328C197.659 352.328 198.155 352.568 198.465 353.048C198.774 353.528 198.929 354.312 198.929 355.4V361H197.585V355.56C197.585 354.824 197.505 354.301 197.345 353.992C197.185 353.672 196.934 353.512 196.593 353.512C196.241 353.512 195.958 353.688 195.745 354.04C195.542 354.381 195.441 354.899 195.441 355.592V361H194.097V355.56C194.097 354.835 194.017 354.312 193.857 353.992C193.707 353.672 193.457 353.512 193.105 353.512C192.753 353.512 192.47 353.688 192.257 354.04C192.054 354.381 191.953 354.899 191.953 355.592V361H190.609V352.52ZM204.507 361.192C203.717 361.192 203.029 361.011 202.443 360.648C201.856 360.285 201.403 359.773 201.083 359.112C200.773 358.44 200.618 357.656 200.618 356.76C200.618 355.875 200.773 355.096 201.083 354.424C201.403 353.752 201.851 353.235 202.427 352.872C203.003 352.509 203.675 352.328 204.443 352.328C205.179 352.328 205.829 352.504 206.395 352.856C206.971 353.197 207.413 353.704 207.723 354.376C208.043 355.048 208.203 355.848 208.203 356.776V357.176H202.027C202.069 358.072 202.304 358.755 202.731 359.224C203.168 359.683 203.76 359.912 204.507 359.912C205.051 359.912 205.499 359.789 205.851 359.544C206.213 359.288 206.469 358.936 206.619 358.488L208.059 358.6C207.835 359.379 207.403 360.008 206.763 360.488C206.133 360.957 205.381 361.192 204.507 361.192ZM206.731 355.992C206.667 355.203 206.432 354.611 206.027 354.216C205.621 353.811 205.093 353.608 204.443 353.608C203.781 353.608 203.237 353.811 202.811 354.216C202.395 354.621 202.133 355.213 202.027 355.992H206.731ZM224.798 361C223.977 361 223.363 360.808 222.958 360.424C222.553 360.04 222.35 359.453 222.35 358.664V353.704H219.55V352.52H222.35V350.28H223.694V352.52H227.07V353.704H223.694V358.664C223.694 359.059 223.785 359.352 223.966 359.544C224.147 359.725 224.425 359.816 224.798 359.816H227.07V361H224.798ZM233.144 361.192C232.365 361.192 231.682 361.011 231.096 360.648C230.52 360.285 230.072 359.773 229.752 359.112C229.432 358.44 229.272 357.656 229.272 356.76C229.272 355.864 229.432 355.085 229.752 354.424C230.072 353.752 230.52 353.235 231.096 352.872C231.682 352.509 232.365 352.328 233.144 352.328C233.912 352.328 234.589 352.509 235.176 352.872C235.762 353.235 236.216 353.752 236.536 354.424C236.856 355.085 237.016 355.864 237.016 356.76C237.016 357.656 236.856 358.44 236.536 359.112C236.216 359.773 235.762 360.285 235.176 360.648C234.589 361.011 233.912 361.192 233.144 361.192ZM233.144 359.912C233.922 359.912 234.525 359.635 234.952 359.08C235.389 358.515 235.608 357.741 235.608 356.76C235.608 355.779 235.389 355.011 234.952 354.456C234.525 353.891 233.922 353.608 233.144 353.608C232.365 353.608 231.757 353.885 231.32 354.44C230.893 354.995 230.68 355.768 230.68 356.76C230.68 357.752 230.893 358.525 231.32 359.08C231.757 359.635 232.365 359.912 233.144 359.912ZM251.963 361.192C251.227 361.192 250.582 361.011 250.027 360.648C249.483 360.285 249.062 359.773 248.763 359.112C248.475 358.44 248.331 357.656 248.331 356.76C248.331 355.864 248.475 355.085 248.763 354.424C249.062 353.752 249.483 353.235 250.027 352.872C250.582 352.509 251.227 352.328 251.963 352.328C252.518 352.328 253.025 352.461 253.483 352.728C253.942 352.995 254.283 353.32 254.507 353.704V349.64H255.851V361H254.635L254.587 359.72C254.342 360.189 253.99 360.552 253.531 360.808C253.073 361.064 252.55 361.192 251.963 361.192ZM252.043 359.912C252.811 359.912 253.414 359.629 253.851 359.064C254.289 358.499 254.507 357.731 254.507 356.76C254.507 355.779 254.283 355.011 253.835 354.456C253.398 353.891 252.79 353.608 252.011 353.608C251.307 353.608 250.753 353.891 250.347 354.456C249.942 355.011 249.739 355.779 249.739 356.76C249.739 357.731 249.942 358.499 250.347 359.064C250.763 359.629 251.329 359.912 252.043 359.912ZM261.925 361.192C261.146 361.192 260.464 361.011 259.877 360.648C259.301 360.285 258.853 359.773 258.533 359.112C258.213 358.44 258.053 357.656 258.053 356.76C258.053 355.864 258.213 355.085 258.533 354.424C258.853 353.752 259.301 353.235 259.877 352.872C260.464 352.509 261.146 352.328 261.925 352.328C262.693 352.328 263.37 352.509 263.957 352.872C264.544 353.235 264.997 353.752 265.317 354.424C265.637 355.085 265.797 355.864 265.797 356.76C265.797 357.656 265.637 358.44 265.317 359.112C264.997 359.773 264.544 360.285 263.957 360.648C263.37 361.011 262.693 361.192 261.925 361.192ZM261.925 359.912C262.704 359.912 263.306 359.635 263.733 359.08C264.17 358.515 264.389 357.741 264.389 356.76C264.389 355.779 264.17 355.011 263.733 354.456C263.306 353.891 262.704 353.608 261.925 353.608C261.146 353.608 260.538 353.885 260.101 354.44C259.674 354.995 259.461 355.768 259.461 356.76C259.461 357.752 259.674 358.525 260.101 359.08C260.538 359.635 261.146 359.912 261.925 359.912ZM271.743 361.192C270.964 361.192 270.276 361.011 269.679 360.648C269.092 360.285 268.639 359.768 268.319 359.096C267.999 358.424 267.839 357.645 267.839 356.76C267.839 355.875 267.999 355.096 268.319 354.424C268.639 353.752 269.092 353.235 269.679 352.872C270.276 352.509 270.964 352.328 271.743 352.328C272.692 352.328 273.476 352.584 274.095 353.096C274.724 353.608 275.124 354.333 275.295 355.272L273.887 355.368C273.759 354.813 273.503 354.381 273.119 354.072C272.745 353.763 272.287 353.608 271.743 353.608C270.964 353.608 270.351 353.891 269.903 354.456C269.465 355.011 269.247 355.779 269.247 356.76C269.247 357.741 269.465 358.515 269.903 359.08C270.351 359.635 270.964 359.912 271.743 359.912C272.308 359.912 272.783 359.747 273.167 359.416C273.561 359.085 273.823 358.611 273.951 357.992L275.359 358.088C275.177 359.037 274.761 359.795 274.111 360.36C273.471 360.915 272.681 361.192 271.743 361.192ZM281.273 361.192C280.558 361.192 279.929 361.069 279.385 360.824C278.851 360.568 278.43 360.227 278.121 359.8C277.811 359.363 277.635 358.872 277.593 358.328L279.001 358.232C279.086 358.765 279.321 359.181 279.705 359.48C280.089 359.768 280.611 359.912 281.273 359.912C281.913 359.912 282.403 359.821 282.745 359.64C283.086 359.448 283.257 359.165 283.257 358.792C283.257 358.536 283.198 358.333 283.081 358.184C282.963 358.024 282.745 357.891 282.425 357.784C282.115 357.667 281.646 357.555 281.016 357.448C280.206 357.309 279.566 357.128 279.097 356.904C278.638 356.68 278.307 356.408 278.105 356.088C277.913 355.768 277.817 355.368 277.817 354.888C277.817 354.131 278.099 353.517 278.664 353.048C279.23 352.568 280.019 352.328 281.033 352.328C282.025 352.328 282.809 352.584 283.385 353.096C283.971 353.608 284.334 354.259 284.473 355.048L283.065 355.144C282.969 354.675 282.739 354.301 282.377 354.024C282.025 353.747 281.571 353.608 281.016 353.608C280.419 353.608 279.966 353.725 279.657 353.96C279.347 354.195 279.193 354.504 279.193 354.888C279.193 355.176 279.262 355.405 279.401 355.576C279.539 355.736 279.753 355.869 280.041 355.976C280.339 356.072 280.761 356.168 281.305 356.264C282.179 356.403 282.857 356.579 283.337 356.792C283.817 357.005 284.153 357.272 284.345 357.592C284.537 357.901 284.633 358.301 284.633 358.792C284.633 359.528 284.318 360.115 283.689 360.552C283.059 360.979 282.254 361.192 281.273 361.192ZM296.364 352.52H297.836L300.3 359.624L302.764 352.52H304.236L301.148 361H299.452L296.364 352.52ZM305.894 361C305.894 360.168 306.022 359.432 306.278 358.792C306.534 358.152 306.976 357.544 307.606 356.968C308.246 356.392 309.126 355.805 310.246 355.208C310.811 354.909 311.243 354.648 311.542 354.424C311.851 354.189 312.075 353.944 312.214 353.688C312.363 353.421 312.438 353.096 312.438 352.712C312.438 352.115 312.24 351.635 311.846 351.272C311.462 350.909 310.902 350.728 310.166 350.728C309.376 350.728 308.747 350.936 308.278 351.352C307.808 351.757 307.515 352.349 307.398 353.128L305.958 353.032C306.086 351.901 306.512 351.011 307.238 350.36C307.974 349.709 308.95 349.384 310.166 349.384C310.934 349.384 311.595 349.523 312.15 349.8C312.715 350.077 313.142 350.467 313.43 350.968C313.728 351.459 313.878 352.029 313.878 352.68C313.878 353.267 313.782 353.768 313.59 354.184C313.398 354.589 313.078 354.973 312.63 355.336C312.192 355.699 311.568 356.093 310.758 356.52C309.766 357.043 308.998 357.587 308.454 358.152C307.91 358.707 307.622 359.208 307.59 359.656H313.894V361H305.894ZM318.528 359.08H320.448V361H318.528V359.08ZM329.081 361.256C328.26 361.256 327.551 361.021 326.953 360.552C326.356 360.072 325.892 359.389 325.561 358.504C325.241 357.608 325.081 356.552 325.081 355.336C325.081 354.12 325.241 353.064 325.561 352.168C325.892 351.272 326.356 350.584 326.953 350.104C327.561 349.624 328.271 349.384 329.081 349.384C329.892 349.384 330.596 349.624 331.193 350.104C331.801 350.584 332.265 351.272 332.585 352.168C332.916 353.064 333.081 354.12 333.081 355.336C333.081 356.552 332.916 357.608 332.585 358.504C332.265 359.389 331.807 360.072 331.209 360.552C330.612 361.021 329.903 361.256 329.081 361.256ZM329.081 359.912C329.881 359.912 330.505 359.501 330.953 358.68C331.412 357.859 331.641 356.744 331.641 355.336C331.641 354.259 331.508 353.347 331.241 352.6L327.593 359.24C328.009 359.688 328.505 359.912 329.081 359.912ZM326.521 355.336C326.521 356.403 326.655 357.309 326.921 358.056L330.569 351.416C330.164 350.957 329.668 350.728 329.081 350.728C328.281 350.728 327.652 351.144 327.193 351.976C326.745 352.797 326.521 353.917 326.521 355.336ZM337.715 359.08H339.635V361H337.715V359.08ZM338.243 357.656C338.072 355.661 337.987 354.216 337.987 353.32V349.64H339.363V353.32C339.363 354.344 339.283 355.789 339.123 357.656H338.243Z" fill="#FFFCB7"/>
<path d="M146.292 390C145.573 390 145.037 389.832 144.682 389.496C144.327 389.16 144.15 388.647 144.15 387.956V383.616H141.7V382.58H144.15V380.62H145.326V382.58H148.28V383.616H145.326V387.956C145.326 388.301 145.405 388.558 145.564 388.726C145.723 388.885 145.965 388.964 146.292 388.964H148.28V390H146.292ZM153.721 390.168C153.03 390.168 152.428 390.009 151.915 389.692C151.401 389.375 151.005 388.927 150.725 388.348C150.454 387.76 150.319 387.074 150.319 386.29C150.319 385.515 150.454 384.834 150.725 384.246C151.005 383.658 151.397 383.205 151.901 382.888C152.405 382.571 152.993 382.412 153.665 382.412C154.309 382.412 154.878 382.566 155.373 382.874C155.877 383.173 156.264 383.616 156.535 384.204C156.815 384.792 156.955 385.492 156.955 386.304V386.654H151.551C151.588 387.438 151.793 388.035 152.167 388.446C152.549 388.847 153.067 389.048 153.721 389.048C154.197 389.048 154.589 388.941 154.897 388.726C155.214 388.502 155.438 388.194 155.569 387.802L156.829 387.9C156.633 388.581 156.255 389.132 155.695 389.552C155.144 389.963 154.486 390.168 153.721 390.168ZM155.667 385.618C155.611 384.927 155.405 384.409 155.051 384.064C154.696 383.709 154.234 383.532 153.665 383.532C153.086 383.532 152.61 383.709 152.237 384.064C151.873 384.419 151.644 384.937 151.551 385.618H155.667ZM159.049 388.964H160.981V383.616H159.049V382.58H161.961L162.045 384.008C162.297 383.056 162.89 382.58 163.823 382.58H165.349V383.644H163.837C163.296 383.644 162.88 383.807 162.591 384.134C162.302 384.451 162.157 384.913 162.157 385.52V388.964H164.509V390H159.049V388.964ZM166.744 382.58H167.822L167.85 383.672C167.98 383.271 168.172 382.963 168.424 382.748C168.676 382.524 168.974 382.412 169.32 382.412C170.085 382.412 170.552 382.897 170.72 383.868C170.841 383.411 171.042 383.056 171.322 382.804C171.602 382.543 171.933 382.412 172.316 382.412C172.913 382.412 173.347 382.622 173.618 383.042C173.888 383.462 174.024 384.148 174.024 385.1V390H172.848V385.24C172.848 384.596 172.778 384.139 172.638 383.868C172.498 383.588 172.278 383.448 171.98 383.448C171.672 383.448 171.424 383.602 171.238 383.91C171.06 384.209 170.972 384.661 170.972 385.268V390H169.796V385.24C169.796 384.605 169.726 384.148 169.586 383.868C169.455 383.588 169.236 383.448 168.928 383.448C168.62 383.448 168.372 383.602 168.186 383.91C168.008 384.209 167.92 384.661 167.92 385.268V390H166.744V382.58ZM175.698 388.964H178.68V383.616H175.838V382.58H179.856V388.964H182.418V390H175.698V388.964ZM178.568 380.046H179.8V381.418H178.568V380.046ZM184.317 382.58H185.395L185.423 383.91C185.609 383.415 185.903 383.042 186.305 382.79C186.706 382.538 187.173 382.412 187.705 382.412C188.517 382.412 189.133 382.673 189.553 383.196C189.982 383.719 190.197 384.395 190.197 385.226V390H189.021V385.562C189.021 384.862 188.895 384.335 188.643 383.98C188.4 383.625 188.003 383.448 187.453 383.448C186.865 383.448 186.389 383.635 186.025 384.008C185.67 384.372 185.493 384.89 185.493 385.562V390H184.317V382.58ZM194.587 390.168C193.878 390.168 193.29 389.981 192.823 389.608C192.357 389.235 192.123 388.749 192.123 388.152C192.123 387.527 192.31 387.037 192.683 386.682C193.057 386.327 193.654 386.071 194.475 385.912L196.967 385.408C196.967 384.783 196.827 384.316 196.547 384.008C196.267 383.691 195.857 383.532 195.315 383.532C194.811 383.532 194.41 383.644 194.111 383.868C193.822 384.092 193.621 384.423 193.509 384.862L192.263 384.764C192.403 384.045 192.739 383.476 193.271 383.056C193.813 382.627 194.494 382.412 195.315 382.412C196.211 382.412 196.907 382.683 197.401 383.224C197.896 383.756 198.143 384.493 198.143 385.436V388.516C198.143 388.684 198.176 388.801 198.241 388.866C198.316 388.931 198.433 388.964 198.591 388.964H199.067V390C198.918 390.019 198.713 390.028 198.451 390.028C198.041 390.028 197.714 389.944 197.471 389.776C197.238 389.599 197.084 389.323 197.009 388.95C196.804 389.314 196.482 389.608 196.043 389.832C195.605 390.056 195.119 390.168 194.587 390.168ZM194.699 389.132C195.437 389.132 195.997 388.945 196.379 388.572C196.771 388.199 196.967 387.695 196.967 387.06V386.416L194.699 386.864C194.205 386.957 193.855 387.097 193.649 387.284C193.453 387.471 193.355 387.723 193.355 388.04C193.355 388.385 193.472 388.656 193.705 388.852C193.948 389.039 194.279 389.132 194.699 389.132ZM203.864 382.048C203.864 381.749 203.78 381.516 203.612 381.348C203.444 381.18 203.21 381.096 202.912 381.096H201.162V380.06H202.968C203.649 380.06 204.162 380.237 204.508 380.592C204.862 380.937 205.04 381.451 205.04 382.132V388.964H207.602V390H200.882V388.964H203.864V382.048ZM217.573 388.054L222.893 385.674L217.573 383.294V382.09L223.943 384.932V386.416L217.573 389.258V388.054Z" fill="#9C7D7D"/>
<path d="M238.248 382.104C238.248 381.441 238.421 380.937 238.766 380.592C239.111 380.237 239.629 380.06 240.32 380.06H242.42V381.096H240.32C240.031 381.096 239.807 381.185 239.648 381.362C239.499 381.539 239.424 381.787 239.424 382.104V382.58H242.28V383.616H239.424V390H238.248V383.616H235.98V382.58H238.248V382.104ZM244.515 388.964H247.497V383.616H244.655V382.58H248.673V388.964H251.235V390H244.515V388.964ZM247.385 380.046H248.617V381.418H247.385V380.046ZM255.275 386.192L252.685 382.58H254.057L256.003 385.38L257.907 382.58H259.307L256.731 386.22L259.433 390H258.061L256.003 387.004L253.945 390H252.545L255.275 386.192ZM269.138 382.58H270.216L270.244 383.672C270.375 383.271 270.566 382.963 270.818 382.748C271.07 382.524 271.369 382.412 271.714 382.412C272.479 382.412 272.946 382.897 273.114 383.868C273.235 383.411 273.436 383.056 273.716 382.804C273.996 382.543 274.327 382.412 274.71 382.412C275.307 382.412 275.741 382.622 276.012 383.042C276.283 383.462 276.418 384.148 276.418 385.1V390H275.242V385.24C275.242 384.596 275.172 384.139 275.032 383.868C274.892 383.588 274.673 383.448 274.374 383.448C274.066 383.448 273.819 383.602 273.632 383.91C273.455 384.209 273.366 384.661 273.366 385.268V390H272.19V385.24C272.19 384.605 272.12 384.148 271.98 383.868C271.849 383.588 271.63 383.448 271.322 383.448C271.014 383.448 270.767 383.602 270.58 383.91C270.403 384.209 270.314 384.661 270.314 385.268V390H269.138V382.58ZM278.905 391.064H279.759C280.011 391.064 280.197 391.022 280.319 390.938C280.449 390.863 280.552 390.737 280.627 390.56L280.893 389.86H280.487L277.729 382.58H279.017L281.271 388.768L283.385 382.58H284.673L281.663 390.938C281.523 391.339 281.313 391.633 281.033 391.82C280.753 392.007 280.365 392.1 279.871 392.1H278.905V391.064ZM297.864 382.048C297.864 381.749 297.78 381.516 297.612 381.348C297.444 381.18 297.21 381.096 296.912 381.096H295.162V380.06H296.968C297.649 380.06 298.162 380.237 298.508 380.592C298.862 380.937 299.04 381.451 299.04 382.132V388.964H301.602V390H294.882V388.964H297.864V382.048ZM303.276 388.964H306.258V383.616H303.416V382.58H307.434V388.964H309.996V390H303.276V388.964ZM306.146 380.046H307.378V381.418H306.146V380.046ZM313.799 382.104C313.799 381.441 313.971 380.937 314.317 380.592C314.662 380.237 315.18 380.06 315.871 380.06H317.971V381.096H315.871C315.581 381.096 315.357 381.185 315.199 381.362C315.049 381.539 314.975 381.787 314.975 382.104V382.58H317.831V383.616H314.975V390H313.799V383.616H311.531V382.58H313.799V382.104ZM323.271 390.168C322.581 390.168 321.979 390.009 321.465 389.692C320.952 389.375 320.555 388.927 320.275 388.348C320.005 387.76 319.869 387.074 319.869 386.29C319.869 385.515 320.005 384.834 320.275 384.246C320.555 383.658 320.947 383.205 321.451 382.888C321.955 382.571 322.543 382.412 323.215 382.412C323.859 382.412 324.429 382.566 324.923 382.874C325.427 383.173 325.815 383.616 326.085 384.204C326.365 384.792 326.505 385.492 326.505 386.304V386.654H321.101C321.139 387.438 321.344 388.035 321.717 388.446C322.1 388.847 322.618 389.048 323.271 389.048C323.747 389.048 324.139 388.941 324.447 388.726C324.765 388.502 324.989 388.194 325.119 387.802L326.379 387.9C326.183 388.581 325.805 389.132 325.245 389.552C324.695 389.963 324.037 390.168 323.271 390.168ZM325.217 385.618C325.161 384.927 324.956 384.409 324.601 384.064C324.247 383.709 323.785 383.532 323.215 383.532C322.637 383.532 322.161 383.709 321.787 384.064C321.423 384.419 321.195 384.937 321.101 385.618H325.217Z" fill="white"/>
<path d="M146.292 411C145.573 411 145.037 410.832 144.682 410.496C144.327 410.16 144.15 409.647 144.15 408.956V404.616H141.7V403.58H144.15V401.62H145.326V403.58H148.28V404.616H145.326V408.956C145.326 409.301 145.405 409.558 145.564 409.726C145.723 409.885 145.965 409.964 146.292 409.964H148.28V411H146.292ZM153.721 411.168C153.03 411.168 152.428 411.009 151.915 410.692C151.401 410.375 151.005 409.927 150.725 409.348C150.454 408.76 150.319 408.074 150.319 407.29C150.319 406.515 150.454 405.834 150.725 405.246C151.005 404.658 151.397 404.205 151.901 403.888C152.405 403.571 152.993 403.412 153.665 403.412C154.309 403.412 154.878 403.566 155.373 403.874C155.877 404.173 156.264 404.616 156.535 405.204C156.815 405.792 156.955 406.492 156.955 407.304V407.654H151.551C151.588 408.438 151.793 409.035 152.167 409.446C152.549 409.847 153.067 410.048 153.721 410.048C154.197 410.048 154.589 409.941 154.897 409.726C155.214 409.502 155.438 409.194 155.569 408.802L156.829 408.9C156.633 409.581 156.255 410.132 155.695 410.552C155.144 410.963 154.486 411.168 153.721 411.168ZM155.667 406.618C155.611 405.927 155.405 405.409 155.051 405.064C154.696 404.709 154.234 404.532 153.665 404.532C153.086 404.532 152.61 404.709 152.237 405.064C151.873 405.419 151.644 405.937 151.551 406.618H155.667ZM159.049 409.964H160.981V404.616H159.049V403.58H161.961L162.045 405.008C162.297 404.056 162.89 403.58 163.823 403.58H165.349V404.644H163.837C163.296 404.644 162.88 404.807 162.591 405.134C162.302 405.451 162.157 405.913 162.157 406.52V409.964H164.509V411H159.049V409.964ZM166.744 403.58H167.822L167.85 404.672C167.98 404.271 168.172 403.963 168.424 403.748C168.676 403.524 168.974 403.412 169.32 403.412C170.085 403.412 170.552 403.897 170.72 404.868C170.841 404.411 171.042 404.056 171.322 403.804C171.602 403.543 171.933 403.412 172.316 403.412C172.913 403.412 173.347 403.622 173.618 404.042C173.888 404.462 174.024 405.148 174.024 406.1V411H172.848V406.24C172.848 405.596 172.778 405.139 172.638 404.868C172.498 404.588 172.278 404.448 171.98 404.448C171.672 404.448 171.424 404.602 171.238 404.91C171.06 405.209 170.972 405.661 170.972 406.268V411H169.796V406.24C169.796 405.605 169.726 405.148 169.586 404.868C169.455 404.588 169.236 404.448 168.928 404.448C168.62 404.448 168.372 404.602 168.186 404.91C168.008 405.209 167.92 405.661 167.92 406.268V411H166.744V403.58ZM175.698 409.964H178.68V404.616H175.838V403.58H179.856V409.964H182.418V411H175.698V409.964ZM178.568 401.046H179.8V402.418H178.568V401.046ZM184.317 403.58H185.395L185.423 404.91C185.609 404.415 185.903 404.042 186.305 403.79C186.706 403.538 187.173 403.412 187.705 403.412C188.517 403.412 189.133 403.673 189.553 404.196C189.982 404.719 190.197 405.395 190.197 406.226V411H189.021V406.562C189.021 405.862 188.895 405.335 188.643 404.98C188.4 404.625 188.003 404.448 187.453 404.448C186.865 404.448 186.389 404.635 186.025 405.008C185.67 405.372 185.493 405.89 185.493 406.562V411H184.317V403.58ZM194.587 411.168C193.878 411.168 193.29 410.981 192.823 410.608C192.357 410.235 192.123 409.749 192.123 409.152C192.123 408.527 192.31 408.037 192.683 407.682C193.057 407.327 193.654 407.071 194.475 406.912L196.967 406.408C196.967 405.783 196.827 405.316 196.547 405.008C196.267 404.691 195.857 404.532 195.315 404.532C194.811 404.532 194.41 404.644 194.111 404.868C193.822 405.092 193.621 405.423 193.509 405.862L192.263 405.764C192.403 405.045 192.739 404.476 193.271 404.056C193.813 403.627 194.494 403.412 195.315 403.412C196.211 403.412 196.907 403.683 197.401 404.224C197.896 404.756 198.143 405.493 198.143 406.436V409.516C198.143 409.684 198.176 409.801 198.241 409.866C198.316 409.931 198.433 409.964 198.591 409.964H199.067V411C198.918 411.019 198.713 411.028 198.451 411.028C198.041 411.028 197.714 410.944 197.471 410.776C197.238 410.599 197.084 410.323 197.009 409.95C196.804 410.314 196.482 410.608 196.043 410.832C195.605 411.056 195.119 411.168 194.587 411.168ZM194.699 410.132C195.437 410.132 195.997 409.945 196.379 409.572C196.771 409.199 196.967 408.695 196.967 408.06V407.416L194.699 407.864C194.205 407.957 193.855 408.097 193.649 408.284C193.453 408.471 193.355 408.723 193.355 409.04C193.355 409.385 193.472 409.656 193.705 409.852C193.948 410.039 194.279 410.132 194.699 410.132ZM203.864 403.048C203.864 402.749 203.78 402.516 203.612 402.348C203.444 402.18 203.21 402.096 202.912 402.096H201.162V401.06H202.968C203.649 401.06 204.162 401.237 204.508 401.592C204.862 401.937 205.04 402.451 205.04 403.132V409.964H207.602V411H200.882V409.964H203.864V403.048ZM217.573 409.054L222.893 406.674L217.573 404.294V403.09L223.943 405.932V407.416L217.573 410.258V409.054Z" fill="#9C7D7D"/>
<path d="M239.34 411.168C238.715 411.168 238.164 411.061 237.688 410.846C237.221 410.622 236.853 410.323 236.582 409.95C236.311 409.567 236.157 409.138 236.12 408.662L237.352 408.578C237.427 409.045 237.632 409.409 237.968 409.67C238.304 409.922 238.761 410.048 239.34 410.048C239.9 410.048 240.329 409.969 240.628 409.81C240.927 409.642 241.076 409.395 241.076 409.068C241.076 408.844 241.025 408.667 240.922 408.536C240.819 408.396 240.628 408.279 240.348 408.186C240.077 408.083 239.667 407.985 239.116 407.892C238.407 407.771 237.847 407.612 237.436 407.416C237.035 407.22 236.745 406.982 236.568 406.702C236.4 406.422 236.316 406.072 236.316 405.652C236.316 404.989 236.563 404.453 237.058 404.042C237.553 403.622 238.243 403.412 239.13 403.412C239.998 403.412 240.684 403.636 241.188 404.084C241.701 404.532 242.019 405.101 242.14 405.792L240.908 405.876C240.824 405.465 240.623 405.139 240.306 404.896C239.998 404.653 239.601 404.532 239.116 404.532C238.593 404.532 238.197 404.635 237.926 404.84C237.655 405.045 237.52 405.316 237.52 405.652C237.52 405.904 237.581 406.105 237.702 406.254C237.823 406.394 238.01 406.511 238.262 406.604C238.523 406.688 238.892 406.772 239.368 406.856C240.133 406.977 240.726 407.131 241.146 407.318C241.566 407.505 241.86 407.738 242.028 408.018C242.196 408.289 242.28 408.639 242.28 409.068C242.28 409.712 242.005 410.225 241.454 410.608C240.903 410.981 240.199 411.168 239.34 411.168ZM247.077 411.168C246.339 411.168 245.751 410.921 245.313 410.426C244.874 409.922 244.655 409.231 244.655 408.354V403.58H245.831V408.032C245.831 408.751 245.957 409.283 246.209 409.628C246.47 409.964 246.867 410.132 247.399 410.132C247.977 410.132 248.435 409.945 248.771 409.572C249.107 409.189 249.275 408.667 249.275 408.004V403.58H250.451V411H249.331V409.796C249.125 410.235 248.831 410.575 248.449 410.818C248.066 411.051 247.609 411.168 247.077 411.168ZM253.049 409.964H254.981V404.616H253.049V403.58H255.961L256.045 405.008C256.297 404.056 256.89 403.58 257.823 403.58H259.349V404.644H257.837C257.296 404.644 256.88 404.807 256.591 405.134C256.302 405.451 256.157 405.913 256.157 406.52V409.964H258.509V411H253.049V409.964ZM264.51 411.168C263.819 411.168 263.217 411.009 262.704 410.692C262.19 410.375 261.794 409.927 261.514 409.348C261.243 408.76 261.108 408.074 261.108 407.29C261.108 406.515 261.243 405.834 261.514 405.246C261.794 404.658 262.186 404.205 262.69 403.888C263.194 403.571 263.782 403.412 264.454 403.412C265.098 403.412 265.667 403.566 266.162 403.874C266.666 404.173 267.053 404.616 267.324 405.204C267.604 405.792 267.744 406.492 267.744 407.304V407.654H262.34C262.377 408.438 262.582 409.035 262.956 409.446C263.338 409.847 263.856 410.048 264.51 410.048C264.986 410.048 265.378 409.941 265.686 409.726C266.003 409.502 266.227 409.194 266.358 408.802L267.618 408.9C267.422 409.581 267.044 410.132 266.484 410.552C265.933 410.963 265.275 411.168 264.51 411.168ZM266.456 406.618C266.4 405.927 266.194 405.409 265.84 405.064C265.485 404.709 265.023 404.532 264.454 404.532C263.875 404.532 263.399 404.709 263.026 405.064C262.662 405.419 262.433 405.937 262.34 406.618H266.456ZM272.694 411H271.938V409.32H273.618V410.804L272.736 413.184H272.036L272.694 411ZM288.615 403.104C288.615 402.441 288.788 401.937 289.133 401.592C289.479 401.237 289.997 401.06 290.687 401.06H292.787V402.096H290.687C290.398 402.096 290.174 402.185 290.015 402.362C289.866 402.539 289.791 402.787 289.791 403.104V403.58H292.647V404.616H289.791V411H288.615V404.616H286.347V403.58H288.615V403.104ZM294.882 409.964H297.864V404.616H295.022V403.58H299.04V409.964H301.602V411H294.882V409.964ZM297.752 401.046H298.984V402.418H297.752V401.046ZM305.642 407.192L303.052 403.58H304.424L306.37 406.38L308.274 403.58H309.674L307.098 407.22L309.8 411H308.428L306.37 408.004L304.312 411H302.912L305.642 407.192ZM311.671 409.964H314.653V404.616H311.811V403.58H315.829V409.964H318.391V411H311.671V409.964ZM314.541 401.046H315.773V402.418H314.541V401.046ZM320.289 403.58H321.367L321.395 404.91C321.582 404.415 321.876 404.042 322.277 403.79C322.679 403.538 323.145 403.412 323.677 403.412C324.489 403.412 325.105 403.673 325.525 404.196C325.955 404.719 326.169 405.395 326.169 406.226V411H324.993V406.562C324.993 405.862 324.867 405.335 324.615 404.98C324.373 404.625 323.976 404.448 323.425 404.448C322.837 404.448 322.361 404.635 321.997 405.008C321.643 405.372 321.465 405.89 321.465 406.562V411H320.289V403.58ZM331.498 413.268C330.705 413.268 330.028 413.072 329.468 412.68C328.908 412.288 328.549 411.765 328.39 411.112L329.622 411.028C329.743 411.401 329.949 411.681 330.238 411.868C330.527 412.055 330.947 412.148 331.498 412.148C332.179 412.148 332.697 412.013 333.052 411.742C333.407 411.471 333.584 411.065 333.584 410.524V409.32C333.397 409.712 333.108 410.025 332.716 410.258C332.333 410.491 331.899 410.608 331.414 410.608C330.789 410.608 330.229 410.459 329.734 410.16C329.249 409.852 328.866 409.427 328.586 408.886C328.315 408.335 328.18 407.71 328.18 407.01C328.18 406.31 328.315 405.689 328.586 405.148C328.857 404.597 329.23 404.173 329.706 403.874C330.191 403.566 330.742 403.412 331.358 403.412C331.881 403.412 332.347 403.533 332.758 403.776C333.178 404.019 333.472 404.345 333.64 404.756V403.58H334.76V410.496C334.76 411.364 334.471 412.041 333.892 412.526C333.313 413.021 332.515 413.268 331.498 413.268ZM331.47 409.488C332.123 409.488 332.637 409.259 333.01 408.802C333.393 408.345 333.584 407.724 333.584 406.94C333.584 406.203 333.393 405.619 333.01 405.19C332.627 404.751 332.114 404.532 331.47 404.532C330.826 404.532 330.322 404.756 329.958 405.204C329.594 405.643 329.412 406.245 329.412 407.01C329.412 407.775 329.594 408.382 329.958 408.83C330.331 409.269 330.835 409.488 331.47 409.488ZM345.249 409.964H348.231V404.616H345.389V403.58H349.407V409.964H351.969V411H345.249V409.964ZM348.119 401.046H349.351V402.418H348.119V401.046ZM357.815 411C357.097 411 356.56 410.832 356.205 410.496C355.851 410.16 355.673 409.647 355.673 408.956V404.616H353.223V403.58H355.673V401.62H356.849V403.58H359.803V404.616H356.849V408.956C356.849 409.301 356.929 409.558 357.087 409.726C357.246 409.885 357.489 409.964 357.815 409.964H359.803V411H357.815Z" fill="#FCFF7C"/>
<path d="M146.292 432C145.573 432 145.037 431.832 144.682 431.496C144.327 431.16 144.15 430.647 144.15 429.956V425.616H141.7V424.58H144.15V422.62H145.326V424.58H148.28V425.616H145.326V429.956C145.326 430.301 145.405 430.558 145.564 430.726C145.723 430.885 145.965 430.964 146.292 430.964H148.28V432H146.292ZM153.721 432.168C153.03 432.168 152.428 432.009 151.915 431.692C151.401 431.375 151.005 430.927 150.725 430.348C150.454 429.76 150.319 429.074 150.319 428.29C150.319 427.515 150.454 426.834 150.725 426.246C151.005 425.658 151.397 425.205 151.901 424.888C152.405 424.571 152.993 424.412 153.665 424.412C154.309 424.412 154.878 424.566 155.373 424.874C155.877 425.173 156.264 425.616 156.535 426.204C156.815 426.792 156.955 427.492 156.955 428.304V428.654H151.551C151.588 429.438 151.793 430.035 152.167 430.446C152.549 430.847 153.067 431.048 153.721 431.048C154.197 431.048 154.589 430.941 154.897 430.726C155.214 430.502 155.438 430.194 155.569 429.802L156.829 429.9C156.633 430.581 156.255 431.132 155.695 431.552C155.144 431.963 154.486 432.168 153.721 432.168ZM155.667 427.618C155.611 426.927 155.405 426.409 155.051 426.064C154.696 425.709 154.234 425.532 153.665 425.532C153.086 425.532 152.61 425.709 152.237 426.064C151.873 426.419 151.644 426.937 151.551 427.618H155.667ZM159.049 430.964H160.981V425.616H159.049V424.58H161.961L162.045 426.008C162.297 425.056 162.89 424.58 163.823 424.58H165.349V425.644H163.837C163.296 425.644 162.88 425.807 162.591 426.134C162.302 426.451 162.157 426.913 162.157 427.52V430.964H164.509V432H159.049V430.964ZM166.744 424.58H167.822L167.85 425.672C167.98 425.271 168.172 424.963 168.424 424.748C168.676 424.524 168.974 424.412 169.32 424.412C170.085 424.412 170.552 424.897 170.72 425.868C170.841 425.411 171.042 425.056 171.322 424.804C171.602 424.543 171.933 424.412 172.316 424.412C172.913 424.412 173.347 424.622 173.618 425.042C173.888 425.462 174.024 426.148 174.024 427.1V432H172.848V427.24C172.848 426.596 172.778 426.139 172.638 425.868C172.498 425.588 172.278 425.448 171.98 425.448C171.672 425.448 171.424 425.602 171.238 425.91C171.06 426.209 170.972 426.661 170.972 427.268V432H169.796V427.24C169.796 426.605 169.726 426.148 169.586 425.868C169.455 425.588 169.236 425.448 168.928 425.448C168.62 425.448 168.372 425.602 168.186 425.91C168.008 426.209 167.92 426.661 167.92 427.268V432H166.744V424.58ZM175.698 430.964H178.68V425.616H175.838V424.58H179.856V430.964H182.418V432H175.698V430.964ZM178.568 422.046H179.8V423.418H178.568V422.046ZM184.317 424.58H185.395L185.423 425.91C185.609 425.415 185.903 425.042 186.305 424.79C186.706 424.538 187.173 424.412 187.705 424.412C188.517 424.412 189.133 424.673 189.553 425.196C189.982 425.719 190.197 426.395 190.197 427.226V432H189.021V427.562C189.021 426.862 188.895 426.335 188.643 425.98C188.4 425.625 188.003 425.448 187.453 425.448C186.865 425.448 186.389 425.635 186.025 426.008C185.67 426.372 185.493 426.89 185.493 427.562V432H184.317V424.58ZM194.587 432.168C193.878 432.168 193.29 431.981 192.823 431.608C192.357 431.235 192.123 430.749 192.123 430.152C192.123 429.527 192.31 429.037 192.683 428.682C193.057 428.327 193.654 428.071 194.475 427.912L196.967 427.408C196.967 426.783 196.827 426.316 196.547 426.008C196.267 425.691 195.857 425.532 195.315 425.532C194.811 425.532 194.41 425.644 194.111 425.868C193.822 426.092 193.621 426.423 193.509 426.862L192.263 426.764C192.403 426.045 192.739 425.476 193.271 425.056C193.813 424.627 194.494 424.412 195.315 424.412C196.211 424.412 196.907 424.683 197.401 425.224C197.896 425.756 198.143 426.493 198.143 427.436V430.516C198.143 430.684 198.176 430.801 198.241 430.866C198.316 430.931 198.433 430.964 198.591 430.964H199.067V432C198.918 432.019 198.713 432.028 198.451 432.028C198.041 432.028 197.714 431.944 197.471 431.776C197.238 431.599 197.084 431.323 197.009 430.95C196.804 431.314 196.482 431.608 196.043 431.832C195.605 432.056 195.119 432.168 194.587 432.168ZM194.699 431.132C195.437 431.132 195.997 430.945 196.379 430.572C196.771 430.199 196.967 429.695 196.967 429.06V428.416L194.699 428.864C194.205 428.957 193.855 429.097 193.649 429.284C193.453 429.471 193.355 429.723 193.355 430.04C193.355 430.385 193.472 430.656 193.705 430.852C193.948 431.039 194.279 431.132 194.699 431.132ZM203.864 424.048C203.864 423.749 203.78 423.516 203.612 423.348C203.444 423.18 203.21 423.096 202.912 423.096H201.162V422.06H202.968C203.649 422.06 204.162 422.237 204.508 422.592C204.862 422.937 205.04 423.451 205.04 424.132V430.964H207.602V432H200.882V430.964H203.864V424.048ZM217.573 430.054L222.893 427.674L217.573 425.294V424.09L223.943 426.932V428.416L217.573 431.258V430.054Z" fill="#9C7D7D"/>
<path d="M238.878 432.168C238.234 432.168 237.669 432.009 237.184 431.692C236.708 431.375 236.339 430.927 236.078 430.348C235.826 429.76 235.7 429.074 235.7 428.29C235.7 427.506 235.826 426.825 236.078 426.246C236.339 425.658 236.708 425.205 237.184 424.888C237.669 424.571 238.234 424.412 238.878 424.412C239.363 424.412 239.807 424.529 240.208 424.762C240.609 424.995 240.908 425.28 241.104 425.616V422.06H242.28V432H241.216L241.174 430.88C240.959 431.291 240.651 431.608 240.25 431.832C239.849 432.056 239.391 432.168 238.878 432.168ZM238.948 431.048C239.62 431.048 240.147 430.801 240.53 430.306C240.913 429.811 241.104 429.139 241.104 428.29C241.104 427.431 240.908 426.759 240.516 426.274C240.133 425.779 239.601 425.532 238.92 425.532C238.304 425.532 237.819 425.779 237.464 426.274C237.109 426.759 236.932 427.431 236.932 428.29C236.932 429.139 237.109 429.811 237.464 430.306C237.828 430.801 238.323 431.048 238.948 431.048ZM247.595 432.168C246.913 432.168 246.316 432.009 245.803 431.692C245.299 431.375 244.907 430.927 244.627 430.348C244.347 429.76 244.207 429.074 244.207 428.29C244.207 427.506 244.347 426.825 244.627 426.246C244.907 425.658 245.299 425.205 245.803 424.888C246.316 424.571 246.913 424.412 247.595 424.412C248.267 424.412 248.859 424.571 249.373 424.888C249.886 425.205 250.283 425.658 250.563 426.246C250.843 426.825 250.983 427.506 250.983 428.29C250.983 429.074 250.843 429.76 250.563 430.348C250.283 430.927 249.886 431.375 249.373 431.692C248.859 432.009 248.267 432.168 247.595 432.168ZM247.595 431.048C248.276 431.048 248.803 430.805 249.177 430.32C249.559 429.825 249.751 429.149 249.751 428.29C249.751 427.431 249.559 426.759 249.177 426.274C248.803 425.779 248.276 425.532 247.595 425.532C246.913 425.532 246.381 425.775 245.999 426.26C245.625 426.745 245.439 427.422 245.439 428.29C245.439 429.158 245.625 429.835 245.999 430.32C246.381 430.805 246.913 431.048 247.595 431.048ZM253.133 424.58H254.211L254.239 425.91C254.426 425.415 254.72 425.042 255.121 424.79C255.522 424.538 255.989 424.412 256.521 424.412C257.333 424.412 257.949 424.673 258.369 425.196C258.798 425.719 259.013 426.395 259.013 427.226V432H257.837V427.562C257.837 426.862 257.711 426.335 257.459 425.98C257.216 425.625 256.82 425.448 256.269 425.448C255.681 425.448 255.205 425.635 254.841 426.008C254.486 426.372 254.309 426.89 254.309 427.562V432H253.133V424.58ZM264.51 432.168C263.819 432.168 263.217 432.009 262.704 431.692C262.19 431.375 261.794 430.927 261.514 430.348C261.243 429.76 261.108 429.074 261.108 428.29C261.108 427.515 261.243 426.834 261.514 426.246C261.794 425.658 262.186 425.205 262.69 424.888C263.194 424.571 263.782 424.412 264.454 424.412C265.098 424.412 265.667 424.566 266.162 424.874C266.666 425.173 267.053 425.616 267.324 426.204C267.604 426.792 267.744 427.492 267.744 428.304V428.654H262.34C262.377 429.438 262.582 430.035 262.956 430.446C263.338 430.847 263.856 431.048 264.51 431.048C264.986 431.048 265.378 430.941 265.686 430.726C266.003 430.502 266.227 430.194 266.358 429.802L267.618 429.9C267.422 430.581 267.044 431.132 266.484 431.552C265.933 431.963 265.275 432.168 264.51 432.168ZM266.456 427.618C266.4 426.927 266.194 426.409 265.84 426.064C265.485 425.709 265.023 425.532 264.454 425.532C263.875 425.532 263.399 425.709 263.026 426.064C262.662 426.419 262.433 426.937 262.34 427.618H266.456ZM272.694 432H271.938V430.32H273.618V431.804L272.736 434.184H272.036L272.694 432ZM285.647 424.58H286.935L287.873 430.768L288.937 425.616H290.197L291.261 430.768L292.199 424.58H293.487L292.031 432H290.547L289.567 427.38L288.587 432H287.117L285.647 424.58ZM298.088 432.168C297.397 432.168 296.795 432.009 296.282 431.692C295.768 431.375 295.372 430.927 295.092 430.348C294.821 429.76 294.686 429.074 294.686 428.29C294.686 427.515 294.821 426.834 295.092 426.246C295.372 425.658 295.764 425.205 296.268 424.888C296.772 424.571 297.36 424.412 298.032 424.412C298.676 424.412 299.245 424.566 299.74 424.874C300.244 425.173 300.631 425.616 300.902 426.204C301.182 426.792 301.322 427.492 301.322 428.304V428.654H295.918C295.955 429.438 296.16 430.035 296.534 430.446C296.916 430.847 297.434 431.048 298.088 431.048C298.564 431.048 298.956 430.941 299.264 430.726C299.581 430.502 299.805 430.194 299.936 429.802L301.196 429.9C301 430.581 300.622 431.132 300.062 431.552C299.511 431.963 298.853 432.168 298.088 432.168ZM300.034 427.618C299.978 426.927 299.772 426.409 299.418 426.064C299.063 425.709 298.601 425.532 298.032 425.532C297.453 425.532 296.977 425.709 296.604 426.064C296.24 426.419 296.011 426.937 295.918 427.618H300.034ZM314.709 434.268C313.915 434.268 313.239 434.072 312.679 433.68C312.119 433.288 311.759 432.765 311.601 432.112L312.833 432.028C312.954 432.401 313.159 432.681 313.449 432.868C313.738 433.055 314.158 433.148 314.709 433.148C315.39 433.148 315.908 433.013 316.263 432.742C316.617 432.471 316.795 432.065 316.795 431.524V430.32C316.608 430.712 316.319 431.025 315.927 431.258C315.544 431.491 315.11 431.608 314.625 431.608C313.999 431.608 313.439 431.459 312.945 431.16C312.459 430.852 312.077 430.427 311.797 429.886C311.526 429.335 311.391 428.71 311.391 428.01C311.391 427.31 311.526 426.689 311.797 426.148C312.067 425.597 312.441 425.173 312.917 424.874C313.402 424.566 313.953 424.412 314.569 424.412C315.091 424.412 315.558 424.533 315.969 424.776C316.389 425.019 316.683 425.345 316.851 425.756V424.58H317.971V431.496C317.971 432.364 317.681 433.041 317.103 433.526C316.524 434.021 315.726 434.268 314.709 434.268ZM314.681 430.488C315.334 430.488 315.847 430.259 316.221 429.802C316.603 429.345 316.795 428.724 316.795 427.94C316.795 427.203 316.603 426.619 316.221 426.19C315.838 425.751 315.325 425.532 314.681 425.532C314.037 425.532 313.533 425.756 313.169 426.204C312.805 426.643 312.623 427.245 312.623 428.01C312.623 428.775 312.805 429.382 313.169 429.83C313.542 430.269 314.046 430.488 314.681 430.488ZM323.145 432.168C322.464 432.168 321.867 432.009 321.353 431.692C320.849 431.375 320.457 430.927 320.177 430.348C319.897 429.76 319.757 429.074 319.757 428.29C319.757 427.506 319.897 426.825 320.177 426.246C320.457 425.658 320.849 425.205 321.353 424.888C321.867 424.571 322.464 424.412 323.145 424.412C323.817 424.412 324.41 424.571 324.923 424.888C325.437 425.205 325.833 425.658 326.113 426.246C326.393 426.825 326.533 427.506 326.533 428.29C326.533 429.074 326.393 429.76 326.113 430.348C325.833 430.927 325.437 431.375 324.923 431.692C324.41 432.009 323.817 432.168 323.145 432.168ZM323.145 431.048C323.827 431.048 324.354 430.805 324.727 430.32C325.11 429.825 325.301 429.149 325.301 428.29C325.301 427.431 325.11 426.759 324.727 426.274C324.354 425.779 323.827 425.532 323.145 425.532C322.464 425.532 321.932 425.775 321.549 426.26C321.176 426.745 320.989 427.422 320.989 428.29C320.989 429.158 321.176 429.835 321.549 430.32C321.932 430.805 322.464 431.048 323.145 431.048ZM332.632 432C331.913 432 331.377 431.832 331.022 431.496C330.667 431.16 330.49 430.647 330.49 429.956V425.616H328.04V424.58H330.49V422.62H331.666V424.58H334.62V425.616H331.666V429.956C331.666 430.301 331.745 430.558 331.904 430.726C332.063 430.885 332.305 430.964 332.632 430.964H334.62V432H332.632ZM345.249 430.964H348.231V425.616H345.389V424.58H349.407V430.964H351.969V432H345.249V430.964ZM348.119 422.046H349.351V423.418H348.119V422.046ZM357.815 432C357.097 432 356.56 431.832 356.205 431.496C355.851 431.16 355.673 430.647 355.673 429.956V425.616H353.223V424.58H355.673V422.62H356.849V424.58H359.803V425.616H356.849V429.956C356.849 430.301 356.929 430.558 357.087 430.726C357.246 430.885 357.489 430.964 357.815 430.964H359.803V432H357.815ZM372.561 424.104C372.561 423.441 372.733 422.937 373.079 422.592C373.424 422.237 373.942 422.06 374.633 422.06H376.733V423.096H374.633C374.343 423.096 374.119 423.185 373.961 423.362C373.811 423.539 373.737 423.787 373.737 424.104V424.58H376.593V425.616H373.737V432H372.561V425.616H370.293V424.58H372.561V424.104ZM378.827 430.964H381.809V425.616H378.967V424.58H382.985V430.964H385.547V432H378.827V430.964ZM381.697 422.046H382.929V423.418H381.697V422.046ZM389.588 428.192L386.998 424.58H388.37L390.316 427.38L392.22 424.58H393.62L391.044 428.22L393.746 432H392.374L390.316 429.004L388.258 432H386.858L389.588 428.192ZM398.822 432.168C398.131 432.168 397.529 432.009 397.016 431.692C396.503 431.375 396.106 430.927 395.826 430.348C395.555 429.76 395.42 429.074 395.42 428.29C395.42 427.515 395.555 426.834 395.826 426.246C396.106 425.658 396.498 425.205 397.002 424.888C397.506 424.571 398.094 424.412 398.766 424.412C399.41 424.412 399.979 424.566 400.474 424.874C400.978 425.173 401.365 425.616 401.636 426.204C401.916 426.792 402.056 427.492 402.056 428.304V428.654H396.652C396.689 429.438 396.895 430.035 397.268 430.446C397.651 430.847 398.169 431.048 398.822 431.048C399.298 431.048 399.69 430.941 399.998 430.726C400.315 430.502 400.539 430.194 400.67 429.802L401.93 429.9C401.734 430.581 401.356 431.132 400.796 431.552C400.245 431.963 399.587 432.168 398.822 432.168ZM400.768 427.618C400.712 426.927 400.507 426.409 400.152 426.064C399.797 425.709 399.335 425.532 398.766 425.532C398.187 425.532 397.711 425.709 397.338 426.064C396.974 426.419 396.745 426.937 396.652 427.618H400.768ZM406.769 432.168C406.125 432.168 405.56 432.009 405.075 431.692C404.599 431.375 404.23 430.927 403.969 430.348C403.717 429.76 403.591 429.074 403.591 428.29C403.591 427.506 403.717 426.825 403.969 426.246C404.23 425.658 404.599 425.205 405.075 424.888C405.56 424.571 406.125 424.412 406.769 424.412C407.254 424.412 407.697 424.529 408.099 424.762C408.5 424.995 408.799 425.28 408.995 425.616V422.06H410.171V432H409.107L409.065 430.88C408.85 431.291 408.542 431.608 408.141 431.832C407.739 432.056 407.282 432.168 406.769 432.168ZM406.839 431.048C407.511 431.048 408.038 430.801 408.421 430.306C408.803 429.811 408.995 429.139 408.995 428.29C408.995 427.431 408.799 426.759 408.407 426.274C408.024 425.779 407.492 425.532 406.811 425.532C406.195 425.532 405.709 425.779 405.355 426.274C405 426.759 404.823 427.431 404.823 428.29C404.823 429.139 405 429.811 405.355 430.306C405.719 430.801 406.213 431.048 406.839 431.048Z" fill="#7CFF91"/>
<g opacity="0.05">
<g filter="url(#filter4_f_15_296)">
<path d="M486 90.3128C486 156.311 639.673 196.5 537.5 196.5C435.327 196.5 319 207.498 319 141.5C319 75.502 401.827 22 504 22C606.173 22 486 24.3148 486 90.3128Z" fill="#FFB0CC"/>
</g>
<g filter="url(#filter5_f_15_296)">
<path d="M788 293.626C788 359.624 941.673 399.813 839.5 399.813C580.5 508.313 532.5 341.311 532.5 275.313C532.5 209.315 703.827 225.313 806 225.313C908.173 225.313 788 227.628 788 293.626Z" fill="#B1AAFF"/>
</g>
<g filter="url(#filter6_f_15_296)">
<path d="M651.91 382.595C651.91 448.593 783.583 507.095 681.41 507.095C422.41 615.595 374.41 448.593 374.41 382.595C374.41 316.597 272.237 325.389 374.41 325.389C476.583 325.389 651.91 316.597 651.91 382.595Z" fill="white"/>
</g>
<g filter="url(#filter7_f_15_296)">
<path d="M654.5 218.687C654.5 284.685 571.673 338.187 469.5 338.187C367.327 338.187 251 349.185 251 283.187C251 217.189 333.827 163.687 436 163.687C538.173 163.687 654.5 152.689 654.5 218.687Z" fill="#D3B0FF"/>
</g>
</g>
<path d="M142.267 690.22H143.779V694.954C144.019 694.39 144.385 693.964 144.877 693.676C145.381 693.388 145.969 693.244 146.641 693.244C147.649 693.244 148.429 693.574 148.981 694.234C149.545 694.894 149.827 695.77 149.827 696.862V703H148.315V697.294C148.315 695.482 147.649 694.576 146.317 694.576C145.537 694.576 144.919 694.816 144.463 695.296C144.007 695.776 143.779 696.448 143.779 697.312V703H142.267V690.22ZM155.4 703.216C154.488 703.216 153.732 702.976 153.132 702.496C152.532 702.016 152.232 701.392 152.232 700.624C152.232 699.82 152.472 699.19 152.952 698.734C153.432 698.278 154.2 697.948 155.256 697.744L158.46 697.096C158.46 696.292 158.28 695.692 157.92 695.296C157.56 694.888 157.032 694.684 156.336 694.684C155.688 694.684 155.172 694.828 154.788 695.116C154.416 695.404 154.158 695.83 154.014 696.394L152.412 696.268C152.592 695.344 153.024 694.612 153.708 694.072C154.404 693.52 155.28 693.244 156.336 693.244C157.488 693.244 158.382 693.592 159.018 694.288C159.654 694.972 159.972 695.92 159.972 697.132V701.092C159.972 701.308 160.014 701.458 160.098 701.542C160.194 701.626 160.344 701.668 160.548 701.668H161.16V703C160.968 703.024 160.704 703.036 160.368 703.036C159.84 703.036 159.42 702.928 159.108 702.712C158.808 702.484 158.61 702.13 158.514 701.65C158.25 702.118 157.836 702.496 157.272 702.784C156.708 703.072 156.084 703.216 155.4 703.216ZM155.544 701.884C156.492 701.884 157.212 701.644 157.704 701.164C158.208 700.684 158.46 700.036 158.46 699.22V698.392L155.544 698.968C154.908 699.088 154.458 699.268 154.194 699.508C153.942 699.748 153.816 700.072 153.816 700.48C153.816 700.924 153.966 701.272 154.266 701.524C154.578 701.764 155.004 701.884 155.544 701.884ZM163.493 693.46H164.897L164.915 694.99C165.203 694.426 165.599 693.994 166.103 693.694C166.619 693.394 167.201 693.244 167.849 693.244C168.761 693.244 169.523 693.472 170.135 693.928C170.747 694.372 171.203 694.972 171.503 695.728C171.803 696.484 171.953 697.318 171.953 698.23C171.953 699.142 171.803 699.976 171.503 700.732C171.203 701.488 170.747 702.094 170.135 702.55C169.523 702.994 168.761 703.216 167.849 703.216C167.225 703.216 166.655 703.084 166.139 702.82C165.635 702.556 165.257 702.196 165.005 701.74V705.7H163.493V693.46ZM167.705 701.776C168.533 701.776 169.181 701.464 169.649 700.84C170.129 700.216 170.369 699.346 170.369 698.23C170.369 697.114 170.129 696.244 169.649 695.62C169.181 694.996 168.533 694.684 167.705 694.684C166.865 694.684 166.205 694.99 165.725 695.602C165.245 696.202 165.005 697.078 165.005 698.23C165.005 699.382 165.239 700.264 165.707 700.876C166.187 701.476 166.853 701.776 167.705 701.776ZM174.286 693.46H175.69L175.708 694.99C175.996 694.426 176.392 693.994 176.896 693.694C177.412 693.394 177.994 693.244 178.642 693.244C179.554 693.244 180.316 693.472 180.928 693.928C181.54 694.372 181.996 694.972 182.296 695.728C182.596 696.484 182.746 697.318 182.746 698.23C182.746 699.142 182.596 699.976 182.296 700.732C181.996 701.488 181.54 702.094 180.928 702.55C180.316 702.994 179.554 703.216 178.642 703.216C178.018 703.216 177.448 703.084 176.932 702.82C176.428 702.556 176.05 702.196 175.798 701.74V705.7H174.286V693.46ZM178.498 701.776C179.326 701.776 179.974 701.464 180.442 700.84C180.922 700.216 181.162 699.346 181.162 698.23C181.162 697.114 180.922 696.244 180.442 695.62C179.974 694.996 179.326 694.684 178.498 694.684C177.658 694.684 176.998 694.99 176.518 695.602C176.038 696.202 175.798 697.078 175.798 698.23C175.798 699.382 176.032 700.264 176.5 700.876C176.98 701.476 177.646 701.776 178.498 701.776ZM186.123 704.368H187.221C187.545 704.368 187.785 704.314 187.941 704.206C188.109 704.11 188.241 703.948 188.337 703.72L188.679 702.82H188.157L184.611 693.46H186.267L189.165 701.416L191.883 693.46H193.539L189.669 704.206C189.489 704.722 189.219 705.1 188.859 705.34C188.499 705.58 188.001 705.7 187.365 705.7H186.123V704.368ZM206.845 701.668H209.329V694.792H206.845V693.46H210.589L210.697 695.296C211.021 694.072 211.783 693.46 212.983 693.46H214.945V694.828H213.001C212.305 694.828 211.771 695.038 211.399 695.458C211.027 695.866 210.841 696.46 210.841 697.24V701.668H213.865V703H206.845V701.668ZM221.58 703.216C220.692 703.216 219.918 703.012 219.258 702.604C218.598 702.196 218.088 701.62 217.728 700.876C217.38 700.12 217.206 699.238 217.206 698.23C217.206 697.234 217.38 696.358 217.728 695.602C218.088 694.846 218.592 694.264 219.24 693.856C219.888 693.448 220.644 693.244 221.508 693.244C222.336 693.244 223.068 693.442 223.704 693.838C224.352 694.222 224.85 694.792 225.198 695.548C225.558 696.304 225.738 697.204 225.738 698.248V698.698H218.79C218.838 699.706 219.102 700.474 219.582 701.002C220.074 701.518 220.74 701.776 221.58 701.776C222.192 701.776 222.696 701.638 223.092 701.362C223.5 701.074 223.788 700.678 223.956 700.174L225.576 700.3C225.324 701.176 224.838 701.884 224.118 702.424C223.41 702.952 222.564 703.216 221.58 703.216ZM224.082 697.366C224.01 696.478 223.746 695.812 223.29 695.368C222.834 694.912 222.24 694.684 221.508 694.684C220.764 694.684 220.152 694.912 219.672 695.368C219.204 695.824 218.91 696.49 218.79 697.366H224.082ZM230.951 703.216C230.039 703.216 229.283 702.976 228.683 702.496C228.083 702.016 227.783 701.392 227.783 700.624C227.783 699.82 228.023 699.19 228.503 698.734C228.983 698.278 229.751 697.948 230.807 697.744L234.011 697.096C234.011 696.292 233.831 695.692 233.471 695.296C233.111 694.888 232.583 694.684 231.887 694.684C231.239 694.684 230.723 694.828 230.339 695.116C229.967 695.404 229.709 695.83 229.565 696.394L227.963 696.268C228.143 695.344 228.575 694.612 229.259 694.072C229.955 693.52 230.831 693.244 231.887 693.244C233.039 693.244 233.933 693.592 234.569 694.288C235.205 694.972 235.523 695.92 235.523 697.132V701.092C235.523 701.308 235.565 701.458 235.649 701.542C235.745 701.626 235.895 701.668 236.099 701.668H236.711V703C236.519 703.024 236.255 703.036 235.919 703.036C235.391 703.036 234.971 702.928 234.659 702.712C234.359 702.484 234.161 702.13 234.065 701.65C233.801 702.118 233.387 702.496 232.823 702.784C232.259 703.072 231.635 703.216 230.951 703.216ZM231.095 701.884C232.043 701.884 232.763 701.644 233.255 701.164C233.759 700.684 234.011 700.036 234.011 699.22V698.392L231.095 698.968C230.459 699.088 230.009 699.268 229.745 699.508C229.493 699.748 229.367 700.072 229.367 700.48C229.367 700.924 229.517 701.272 229.817 701.524C230.129 701.764 230.555 701.884 231.095 701.884ZM242.59 703.216C241.762 703.216 241.036 703.012 240.412 702.604C239.8 702.196 239.326 701.62 238.99 700.876C238.666 700.12 238.504 699.238 238.504 698.23C238.504 697.222 238.666 696.346 238.99 695.602C239.326 694.846 239.8 694.264 240.412 693.856C241.036 693.448 241.762 693.244 242.59 693.244C243.214 693.244 243.784 693.394 244.3 693.694C244.816 693.994 245.2 694.36 245.452 694.792V690.22H246.964V703H245.596L245.542 701.56C245.266 702.088 244.87 702.496 244.354 702.784C243.838 703.072 243.25 703.216 242.59 703.216ZM242.68 701.776C243.544 701.776 244.222 701.458 244.714 700.822C245.206 700.186 245.452 699.322 245.452 698.23C245.452 697.126 245.2 696.262 244.696 695.638C244.204 695.002 243.52 694.684 242.644 694.684C241.852 694.684 241.228 695.002 240.772 695.638C240.316 696.262 240.088 697.126 240.088 698.23C240.088 699.322 240.316 700.186 240.772 700.822C241.24 701.458 241.876 701.776 242.68 701.776ZM249.836 701.668H253.67V694.792H250.016V693.46H255.182V701.668H258.476V703H249.836V701.668ZM253.526 690.202H255.11V691.966H253.526V690.202ZM260.917 693.46H262.303L262.339 695.17C262.579 694.534 262.957 694.054 263.473 693.73C263.989 693.406 264.589 693.244 265.273 693.244C266.317 693.244 267.109 693.58 267.649 694.252C268.201 694.924 268.477 695.794 268.477 696.862V703H266.965V697.294C266.965 696.394 266.803 695.716 266.479 695.26C266.167 694.804 265.657 694.576 264.949 694.576C264.193 694.576 263.581 694.816 263.113 695.296C262.657 695.764 262.429 696.43 262.429 697.294V703H260.917V693.46ZM275.328 705.916C274.308 705.916 273.438 705.664 272.718 705.16C271.998 704.656 271.536 703.984 271.332 703.144L272.916 703.036C273.072 703.516 273.336 703.876 273.708 704.116C274.08 704.356 274.62 704.476 275.328 704.476C276.204 704.476 276.87 704.302 277.326 703.954C277.782 703.606 278.01 703.084 278.01 702.388V700.84C277.77 701.344 277.398 701.746 276.894 702.046C276.402 702.346 275.844 702.496 275.22 702.496C274.416 702.496 273.696 702.304 273.06 701.92C272.436 701.524 271.944 700.978 271.584 700.282C271.236 699.574 271.062 698.77 271.062 697.87C271.062 696.97 271.236 696.172 271.584 695.476C271.932 694.768 272.412 694.222 273.024 693.838C273.648 693.442 274.356 693.244 275.148 693.244C275.82 693.244 276.42 693.4 276.948 693.712C277.488 694.024 277.866 694.444 278.082 694.972V693.46H279.522V702.352C279.522 703.468 279.15 704.338 278.406 704.962C277.662 705.598 276.636 705.916 275.328 705.916ZM275.292 701.056C276.132 701.056 276.792 700.762 277.272 700.174C277.764 699.586 278.01 698.788 278.01 697.78C278.01 696.832 277.764 696.082 277.272 695.53C276.78 694.966 276.12 694.684 275.292 694.684C274.464 694.684 273.816 694.972 273.348 695.548C272.88 696.112 272.646 696.886 272.646 697.87C272.646 698.854 272.88 699.634 273.348 700.21C273.828 700.774 274.476 701.056 275.292 701.056ZM296.554 703.216C295.726 703.216 295 703.012 294.376 702.604C293.764 702.196 293.29 701.62 292.954 700.876C292.63 700.12 292.468 699.238 292.468 698.23C292.468 697.222 292.63 696.346 292.954 695.602C293.29 694.846 293.764 694.264 294.376 693.856C295 693.448 295.726 693.244 296.554 693.244C297.178 693.244 297.748 693.394 298.264 693.694C298.78 693.994 299.164 694.36 299.416 694.792V690.22H300.928V703H299.56L299.506 701.56C299.23 702.088 298.834 702.496 298.318 702.784C297.802 703.072 297.214 703.216 296.554 703.216ZM296.644 701.776C297.508 701.776 298.186 701.458 298.678 700.822C299.17 700.186 299.416 699.322 299.416 698.23C299.416 697.126 299.164 696.262 298.66 695.638C298.168 695.002 297.484 694.684 296.608 694.684C295.816 694.684 295.192 695.002 294.736 695.638C294.28 696.262 294.052 697.126 294.052 698.23C294.052 699.322 294.28 700.186 294.736 700.822C295.204 701.458 295.84 701.776 296.644 701.776ZM307.761 703.216C306.885 703.216 306.117 703.012 305.457 702.604C304.809 702.196 304.305 701.62 303.945 700.876C303.585 700.12 303.405 699.238 303.405 698.23C303.405 697.222 303.585 696.346 303.945 695.602C304.305 694.846 304.809 694.264 305.457 693.856C306.117 693.448 306.885 693.244 307.761 693.244C308.625 693.244 309.387 693.448 310.047 693.856C310.707 694.264 311.217 694.846 311.577 695.602C311.937 696.346 312.117 697.222 312.117 698.23C312.117 699.238 311.937 700.12 311.577 700.876C311.217 701.62 310.707 702.196 310.047 702.604C309.387 703.012 308.625 703.216 307.761 703.216ZM307.761 701.776C308.637 701.776 309.315 701.464 309.795 700.84C310.287 700.204 310.533 699.334 310.533 698.23C310.533 697.126 310.287 696.262 309.795 695.638C309.315 695.002 308.637 694.684 307.761 694.684C306.885 694.684 306.201 694.996 305.709 695.62C305.229 696.244 304.989 697.114 304.989 698.23C304.989 699.346 305.229 700.216 305.709 700.84C306.201 701.464 306.885 701.776 307.761 701.776ZM318.806 703.216C317.93 703.216 317.156 703.012 316.484 702.604C315.824 702.196 315.314 701.614 314.954 700.858C314.594 700.102 314.414 699.226 314.414 698.23C314.414 697.234 314.594 696.358 314.954 695.602C315.314 694.846 315.824 694.264 316.484 693.856C317.156 693.448 317.93 693.244 318.806 693.244C319.874 693.244 320.756 693.532 321.452 694.108C322.16 694.684 322.61 695.5 322.802 696.556L321.218 696.664C321.074 696.04 320.786 695.554 320.354 695.206C319.934 694.858 319.418 694.684 318.806 694.684C317.93 694.684 317.24 695.002 316.736 695.638C316.244 696.262 315.998 697.126 315.998 698.23C315.998 699.334 316.244 700.204 316.736 700.84C317.24 701.464 317.93 701.776 318.806 701.776C319.442 701.776 319.976 701.59 320.408 701.218C320.852 700.846 321.146 700.312 321.29 699.616L322.874 699.724C322.67 700.792 322.202 701.644 321.47 702.28C320.75 702.904 319.862 703.216 318.806 703.216ZM329.527 703.216C328.723 703.216 328.015 703.078 327.403 702.802C326.803 702.514 326.329 702.13 325.981 701.65C325.633 701.158 325.435 700.606 325.387 699.994L326.971 699.886C327.067 700.486 327.331 700.954 327.763 701.29C328.195 701.614 328.783 701.776 329.527 701.776C330.247 701.776 330.799 701.674 331.183 701.47C331.567 701.254 331.759 700.936 331.759 700.516C331.759 700.228 331.693 700 331.561 699.832C331.429 699.652 331.183 699.502 330.823 699.382C330.475 699.25 329.947 699.124 329.239 699.004C328.327 698.848 327.607 698.644 327.079 698.392C326.563 698.14 326.191 697.834 325.963 697.474C325.747 697.114 325.639 696.664 325.639 696.124C325.639 695.272 325.957 694.582 326.593 694.054C327.229 693.514 328.117 693.244 329.257 693.244C330.373 693.244 331.255 693.532 331.903 694.108C332.563 694.684 332.971 695.416 333.127 696.304L331.543 696.412C331.435 695.884 331.177 695.464 330.769 695.152C330.373 694.84 329.863 694.684 329.239 694.684C328.567 694.684 328.057 694.816 327.709 695.08C327.361 695.344 327.187 695.692 327.187 696.124C327.187 696.448 327.265 696.706 327.421 696.898C327.577 697.078 327.817 697.228 328.141 697.348C328.477 697.456 328.951 697.564 329.563 697.672C330.547 697.828 331.309 698.026 331.849 698.266C332.389 698.506 332.767 698.806 332.983 699.166C333.199 699.514 333.307 699.964 333.307 700.516C333.307 701.344 332.953 702.004 332.245 702.496C331.537 702.976 330.631 703.216 329.527 703.216ZM339.06 700.84H341.22V703H339.06V700.84Z" fill="white"/>
<path opacity="0.2" d="M38.3 186H10.86V115.636H38.3C60.546 115.636 74.56 129.944 74.56 150.426C74.56 170.908 60.056 186 38.3 186ZM29.382 131.61V170.026H37.222C49.472 170.026 55.548 163.656 55.548 150.426C55.548 137.98 49.276 131.61 37.222 131.61H29.382ZM116.313 187.47C96.0266 187.47 80.0526 172.084 80.0526 150.72C80.0526 129.356 96.0266 114.166 116.313 114.166C136.697 114.166 152.671 129.356 152.671 150.72C152.671 172.084 136.697 187.47 116.313 187.47ZM116.313 170.908C127.387 170.908 133.561 161.794 133.561 150.72C133.561 139.646 127.387 130.728 116.313 130.728C105.239 130.728 99.0646 139.646 99.0646 150.72C99.0646 161.794 105.239 170.908 116.313 170.908ZM193.916 187.47C173.924 187.47 158.146 171.398 158.146 150.72C158.146 130.14 173.924 114.166 193.916 114.166C213.222 114.166 228.118 127.004 230.372 145.624H210.772C209.302 136.804 202.736 130.728 194.112 130.728C183.724 130.728 177.158 138.764 177.158 150.72C177.158 162.774 183.724 170.908 194.112 170.908C202.638 170.908 209.204 164.832 210.772 155.914H230.372C228.02 174.73 213.222 187.47 193.916 187.47ZM296.323 162.97C296.323 177.474 284.759 186.98 266.433 186.98C248.107 186.98 236.347 177.278 235.073 161.696H253.791C253.987 168.36 258.397 172.574 266.041 172.574C272.411 172.574 276.625 170.124 276.625 165.714C276.625 162.676 273.587 160.422 269.471 159.638L256.633 157.188C245.363 155.032 237.915 148.466 237.915 137.098C237.915 123.966 249.479 114.754 265.257 114.754C282.015 114.754 294.069 124.358 295.147 139.548H276.429C275.939 133.178 271.627 129.062 265.453 129.062C259.965 129.062 256.633 132.002 256.633 135.824C256.633 138.96 259.769 140.822 263.493 141.508L277.115 144.154C289.659 146.604 296.323 152.778 296.323 162.97ZM38.3 263H10.86V192.636H38.3C60.546 192.636 74.56 206.944 74.56 227.426C74.56 247.908 60.056 263 38.3 263ZM29.382 208.61V247.026H37.222C49.472 247.026 55.548 240.656 55.548 227.426C55.548 214.98 49.276 208.61 37.222 208.61H29.382ZM111.609 241.538H102.691V263H84.1686V192.636H111.609C130.033 192.636 141.107 200.868 141.107 216.646C141.107 232.522 130.033 241.538 111.609 241.538ZM111.511 208.218H102.691V225.956H111.511C118.861 225.956 122.683 222.232 122.683 216.842C122.683 211.354 118.861 208.218 111.511 208.218ZM185.183 263H166.661V209.394H145.101V192.636H206.743V209.394H185.183V263ZM260.072 263L232.044 219.096V263H215.09V192.636H234.984L260.954 233.306V192.636H277.908V263H260.072ZM348.003 239.97C348.003 254.474 336.439 263.98 318.113 263.98C299.787 263.98 288.027 254.278 286.753 238.696H305.471C305.667 245.36 310.077 249.574 317.721 249.574C324.091 249.574 328.305 247.124 328.305 242.714C328.305 239.676 325.267 237.422 321.151 236.638L308.313 234.188C297.043 232.032 289.595 225.466 289.595 214.098C289.595 200.966 301.159 191.754 316.937 191.754C333.695 191.754 345.749 201.358 346.827 216.548H328.109C327.619 210.178 323.307 206.062 317.133 206.062C311.645 206.062 308.313 209.002 308.313 212.824C308.313 215.96 311.449 217.822 315.173 218.508L328.795 221.154C341.339 223.604 348.003 229.778 348.003 239.97ZM376.019 263H357.497V192.636H376.019V218.802H401.989V192.636H420.511V263H401.989V234.874H376.019V263ZM495.109 192.636V234.972C495.109 252.024 484.427 264.47 464.631 264.47C444.639 264.47 434.055 252.024 434.055 234.972V192.636H452.577V235.266C452.577 242.616 455.223 247.908 464.631 247.908C473.941 247.908 476.587 242.616 476.587 235.266V192.636H495.109ZM523.456 252.808C523.456 259.08 519.144 263.49 512.872 263.49C506.6 263.49 502.19 259.08 502.19 252.808C502.19 246.438 506.6 242.028 512.872 242.028C519.144 242.028 523.456 246.438 523.456 252.808Z" fill="white"/>
</g>
<defs>
<filter id="filter0_f_15_296" x="-400.1" y="129.9" width="537.757" height="459.387" filterUnits="userSpaceOnUse" color-interpolation-filters="sRGB">
<feFlood flood-opacity="0" result="BackgroundImageFix"/>
<feBlend mode="normal" in="SourceGraphic" in2="BackgroundImageFix" result="shape"/>
<feGaussianBlur stdDeviation="71.05" result="effect1_foregroundBlur_15_296"/>
</filter>
<filter id="filter1_f_15_296" x="-186.6" y="331.507" width="626.257" height="496.141" filterUnits="userSpaceOnUse" color-interpolation-filters="sRGB">
<feFlood flood-opacity="0" result="BackgroundImageFix"/>
<feBlend mode="normal" in="SourceGraphic" in2="BackgroundImageFix" result="shape"/>
<feGaussianBlur stdDeviation="71.05" result="effect1_foregroundBlur_15_296"/>
</filter>
<filter id="filter2_f_15_296" x="-296.51" y="146.324" width="675.459" height="502.03" filterUnits="userSpaceOnUse" color-interpolation-filters="sRGB">
<feFlood flood-opacity="0" result="BackgroundImageFix"/>
<feBlend mode="normal" in="SourceGraphic" in2="BackgroundImageFix" result="shape"/>
<feGaussianBlur stdDeviation="71.05" result="effect1_foregroundBlur_15_296"/>
</filter>
<filter id="filter3_f_15_296" x="-321.6" y="231.026" width="687.7" height="460.074" filterUnits="userSpaceOnUse" color-interpolation-filters="sRGB">
<feFlood flood-opacity="0" result="BackgroundImageFix"/>
<feBlend mode="normal" in="SourceGraphic" in2="BackgroundImageFix" result="shape"/>
<feGaussianBlur stdDeviation="71.05" result="effect1_foregroundBlur_15_296"/>
</filter>
<filter id="filter4_f_15_296" x="176.9" y="-120.1" width="537.757" height="459.387" filterUnits="userSpaceOnUse" color-interpolation-filters="sRGB">
<feFlood flood-opacity="0" result="BackgroundImageFix"/>
<feBlend mode="normal" in="SourceGraphic" in2="BackgroundImageFix" result="shape"/>
<feGaussianBlur stdDeviation="71.05" result="effect1_foregroundBlur_15_296"/>
</filter>
<filter id="filter5_f_15_296" x="390.4" y="81.5072" width="626.257" height="496.141" filterUnits="userSpaceOnUse" color-interpolation-filters="sRGB">
<feFlood flood-opacity="0" result="BackgroundImageFix"/>
<feBlend mode="normal" in="SourceGraphic" in2="BackgroundImageFix" result="shape"/>
<feGaussianBlur stdDeviation="71.05" result="effect1_foregroundBlur_15_296"/>
</filter>
<filter id="filter6_f_15_296" x="186.9" y="182.9" width="675.459" height="502.03" filterUnits="userSpaceOnUse" color-interpolation-filters="sRGB">
<feFlood flood-opacity="0" result="BackgroundImageFix"/>
<feBlend mode="normal" in="SourceGraphic" in2="BackgroundImageFix" result="shape"/>
<feGaussianBlur stdDeviation="71.05" result="effect1_foregroundBlur_15_296"/>
</filter>
<filter id="filter7_f_15_296" x="108.9" y="20.9" width="687.7" height="460.074" filterUnits="userSpaceOnUse" color-interpolation-filters="sRGB">
<feFlood flood-opacity="0" result="BackgroundImageFix"/>
<feBlend mode="normal" in="SourceGraphic" in2="BackgroundImageFix" result="shape"/>
<feGaussianBlur stdDeviation="71.05" result="effect1_foregroundBlur_15_296"/>
</filter>
<clipPath id="clip0_15_296">
<rect width="534" height="792" fill="white"/>
</clipPath>
</defs>
</svg>
